<svg id="Capa_1" enable-background="new 0 0 508.722 508.722" height="512" viewBox="0 0 508.722 508.722" width="512" xmlns="http://www.w3.org/2000/svg"><path d="m494.405 329.374h-2.683v-16.607c0-7.625-6.204-13.829-13.829-13.829h-14.036l-60.567-60.567c-.258-.258-.534-.484-.817-.697v-82.927h43.713c2.864 0 5.478-1.631 6.737-4.205 1.258-2.573.942-5.638-.816-7.899l-30-38.581c-1.421-1.827-3.606-2.896-5.921-2.896h-15.854l-243.924-96.821c-.237-.095-.48-.178-.729-.249-.079-.023-.159-.038-.239-.058-.149-.037-.298-.076-.45-.104-.144-.027-.288-.044-.432-.062-.089-.011-.177-.026-.267-.034-.176-.016-.35-.022-.525-.025-.05-.001-.099-.007-.15-.007h-.111c-.025 0-.05 0-.074 0h-18.461c-3.889 0-7.133 2.973-7.472 6.847l-7.908 90.514h-50.609c-.247-9.688-8.188-17.498-17.935-17.498h-33.088c-9.902-.001-17.958 8.055-17.958 17.957v53.734c0 9.902 8.056 17.958 17.958 17.958h33.088c9.902 0 17.958-8.056 17.958-17.958v-.612h47.59l-8.904 296.251h-6.843c-14.802 0-26.844 12.042-26.844 26.844v19.574c0 4.142 3.358 7.5 7.5 7.5h13.465c4.142 0 7.5-3.358 7.5-7.5s-3.358-7.5-7.5-7.5h-5.965v-12.074c0-6.531 5.313-11.844 11.844-11.844h22.174 72.764c6.531 0 11.844 5.313 11.844 11.844v12.074h-82.662c-4.142 0-7.5 3.358-7.5 7.5s3.358 7.5 7.5 7.5h90.162c4.142 0 7.5-3.358 7.5-7.5v-19.574c0-14.802-12.042-26.844-26.844-26.844h-14.855l-8.904-296.251h41.476v37.407c0 10.718 8.72 19.438 19.438 19.438h57.543c10.718 0 19.438-8.72 19.438-19.438v-37.407h77.549v82.3c-.643.341-1.248.781-1.79 1.323l-60.567 60.567h-15.063c-7.625 0-13.829 6.204-13.829 13.829v16.607h-6.983c-7.895 0-14.317 6.422-14.317 14.317v14.108c0 7.894 6.422 14.316 14.317 14.316h20.124c4.142 0 7.5-3.358 7.5-7.5s-3.358-7.5-7.5-7.5h-19.441v-12.741h203.798v12.741h-154.354c-4.142 0-7.5 3.358-7.5 7.5s3.358 7.5 7.5 7.5h155.04c7.894 0 14.317-6.422 14.317-14.316v-14.108c0-7.894-6.423-14.317-14.317-14.317zm-352.562-310.568h4.9l7.196 82.361h-19.292zm-87.839 136.554c0 1.631-1.327 2.958-2.958 2.958h-33.088c-1.631 0-2.958-1.327-2.958-2.958v-53.734c0-1.631 1.327-2.958 2.958-2.958h33.088c1.631 0 2.958 1.327 2.958 2.958v7.041 38.581zm15-39.193h152c4.142 0 7.5-3.358 7.5-7.5s-3.358-7.5-7.5-7.5h-52.009l-6.851-78.407 197.53 78.407h-108.67c-4.142 0-7.5 3.358-7.5 7.5s3.358 7.5 7.5 7.5h147.849c.014 0 .028.002.042.002.009 0 .017-.002.026-.002h13.595l18.336 23.581h-128.43-81.419-152v-23.581zm60.801 98.358 22.634 16.387-24.128 33.326zm1.301 156.212 31.234-39.022 1.894 63.024zm2.323-87.99 26.346-36.39 1.704 56.712zm-6.098 14.106 27.66 20.039-29.365 36.685zm27.66 109.712-32.165 40.184 1.867-62.134zm-19.429-206.39 21.951-29.111 1.383 46.005zm15.466-45.427-20.233 26.834.806-26.834zm-12.39 296.25 26.3-32.856.987 32.856zm156.286-258.843c0 2.447-1.991 4.438-4.438 4.438h-57.543c-2.447 0-4.438-1.991-4.438-4.438v-37.407h66.419zm147.72 106.783h-40.171v-40.171zm-55.171-41.143v41.144h-41.144zm-76.249 56.143h165.498v15.436h-165.498z"/></svg>