<svg height="512" viewBox="0 0 60 60" width="512" xmlns="http://www.w3.org/2000/svg"><g id="Page-1" fill="none" fill-rule="evenodd"><g id="024---Government-Agreement" fill="rgb(0,0,0)" fill-rule="nonzero"><path id="Shape" d="m58 30h-6v-3.181c.4178057-.1425216.7970105-.3796957 1.108-.693.5739985-.5579289.8960613-1.3255361.892-2.126 0-1.6568542-1.3431458-3-3-3h-11v-4c.5522847 0 1-.4477153 1-1s-.4477153-1-1-1h-.065c-.519-4.2-4.255-7.534-8.935-7.954v-1.046h3c1.1045695 0 2-.8954305 2-2v-2c0-1.1045695-.8954305-2-2-2h-3c-1.1045695 0-2 .8954305-2 2v5.046c-4.68.42-8.416 3.756-8.935 7.954h-.065c-.5522847 0-1 .4477153-1 1s.4477153 1 1 1v4h-11c-1.65344336.0082058-2.99179417 1.3465566-3 3 .00525139 1.2667854.80564913 2.3937454 2 2.816v2.184h-6c-1.1045695 0-2 .8954305-2 2v15c0 1.1045695.8954305 2 2 2h10c1.0758343-.0031436 1.9564261-.856783 1.993-1.932.777653.0811389 1.544367.2454108 2.287.49-.5311335 1.1370751-.2910389 2.4852058.6 3.369.2706075.2702976.5907818.4858975.943.635-.6013221 1.027751-.5331076 2.3148112.1734826 3.2732425.7065903.9584314 1.9159037 1.4042322 3.0755174 1.1337575.1338932.498592.3951023.9538126.758 1.321.5244787.5226201 1.2253056.8304133 1.965.863.0587875 1.1819421.8086911 2.2181769 1.9130312 2.6434722s2.3555842.1597279 3.1919688-.6774722l.7-.7.691.69c.5595824.5713265 1.3262868.8922893 2.126.89 1.3446727-.0056619 2.5220137-.9036754 2.883-2.199.9956893.214493 2.0324962-.0861397 2.759-.8.369974-.3634067.6388147-.8169891.78-1.316.8875698.194762 1.8155833-.0232625 2.5235724-.5928798s1.1196452-1.429433 1.1194276-2.3381202c.00017-.2158062-.022625-.4310179-.068-.642.8198208-.2278296 1.5043299-.7930767 1.8831035-1.5550105s.4161765-1.6488712.1028965-2.4399895l2.083-.832c.3752824.4507683.9304689.7128076 1.517.716h10c1.1045695 0 2-.8954305 2-2v-14c0-1.1045695-.8954305-2-2-2zm-10 0c-1.1045695 0-2 .8954305-2 2v.725l-7-1.712v-4.013h11v3zm-14.661 6.032.32-.28c.4155942-.3639557.4574556-.9959057.0935-1.4115-.3639557-.4155942-.9959057-.4574556-1.4115-.0935l-1.119.98h-.006l-5.362 4.693c-.5436212.4591544-1.3265124.5000364-1.915.1-.3927678-.2741098-.6384987-.7128888-.667-1.191-.0301816-.4718749.1578013-.9315116.51-1.247l4.381-3.945.021-.019 1.628-1.465c.7402038-.6690054 1.7667868-.921801 2.733-.673l13.455 3.304v10.537l-2.868 1.146zm-5.59-13.279c.026-.022.055-.038.079-.062l2.156-1.691 5.116 4h-10.21zm-4.749 4.247h14v3.523l-3.972-.972c-1.6117108-.412872-3.3230642.0099904-4.557 1.126l-1.342 1.208-4.129-.259zm29-3c.0008733.2694422-.1099083.5272084-.306.712-.1823963.1865985-.4330776.2906276-.694.288h-12.655l-2.556-2h15.211c.5522847 0 1 .4477153 1 1zm-14.091-9h-3.934c-.0474641-1.9010744-.4370186-3.7780496-1.15-5.541 2.5905284.7621817 4.5470681 2.8945944 5.084 5.541zm-7.909-6c.536 0 1.786 2.1 1.974 6h-3.948c.188-3.9 1.438-6 1.974-6zm1-7h3v2h-3zm-3.825 7.459c-.7129814 1.7629504-1.1025359 3.6399256-1.15 5.541h-3.934c.5369319-2.6464056 2.4934716-4.7788183 5.084-5.541zm-5.175 7.541h16v4h-4.766l-2.018-1.58c-.7142915-.5590283-1.7177085-.5590283-2.432 0l-2.018 1.58h-4.766zm-13.694 6.288c.18239634-.1865985.43307757-.2906276.694-.288h15.211l-2.556 2h-12.655c-.55228475 0-1-.4477153-1-1-.00087326-.2694422.10990828-.5272084.306-.712zm1.694 3.712h11v4.5l-7-.439v-.061c0-1.1045695-.8954305-2-2-2h-2zm-8 19v-15h10v15zm18.414 1.806-.707.707c-.395481.3781625-1.018519.3781625-1.414 0-.3903819-.3904999-.3903819-1.0235001 0-1.414l.243-.243.008-.008.456-.456c.2510745-.2599566.6228779-.3642126.9725073-.2726972.3496295.0915155.6226744.3645604.7141899.7141899.0915154.3496294-.0127406.7214328-.2726972.9725073zm-.707 4.949c-.3903819-.3904999-.3903819-1.0235001 0-1.414l2.122-2.121c.2510745-.2599566.6228779-.3642126.9725073-.2726972.3496295.0915155.6226744.3645604.7141899.7141899.0915154.3496294-.0127406.7214328-.2726972.9725073l-2.122 2.121c-.395481.3781625-1.018519.3781625-1.414 0zm3.243 1.414c-.0007185-.2653486.1047939-.5199469.293-.707l.353-.353 1.061-1.06c.2497527-.2659578.624527-.3747909.9778857-.2839745.3533586.0908163.6292143.3668672.7197806.72029s-.0185319.72812-.2846663.9776845l-1.415 1.414c-.3951446.3780366-1.0178554.3780366-1.413 0-.1883716-.1872714-.2935875-.4423839-.292-.708zm3.121 3.536c-.3903819-.3904999-.3903819-1.0235001 0-1.414l1.414-1.415c.3907415-.3907414 1.0242585-.3907414 1.415 0 .3907414.3907415.3907414 1.0242585 0 1.415l-1.414 1.414c-.1875683.187777-.4420908.2932867-.7075.2932867s-.5199317-.1055097-.7075-.2932867zm16.242-7.774c-.385842.3842145-1.0081684.3891042-1.4.011l-.017-.016-3.636-3.632c-.3923789-.3789722-1.0160848-.3735524-1.4018186.0121814s-.3911536 1.0094397-.0121814 1.4018186l3.636 3.636.026.025.684.675c.187777.1875683.2932867.4420908.2932867.7075s-.1055097.5199317-.2932867.7075c-.1876085.1880834-.4423455.2937876-.708.2937876s-.5203915-.1057042-.708-.2937876l-.71-.71-3.493-3.493c-.3923789-.3789722-1.0160848-.3735524-1.4018186.0121814s-.3911536 1.0094397-.0121814 1.4018186l3.493 3.493c.192091.1882866.3002305.446019.3.715-.0010824.264331-.1093343.5169189-.3.7-.3938646.3806834-1.0193895.3780216-1.41-.006l-.71-.7-.495-.5c-.3921093-.3792591-1.0158267-.3742848-1.4018372.01118-.3860104.3854649-.391867 1.0091746-.0131628 1.40182l.5.5c.3877236.3900375.3877236 1.0199625 0 1.41-.1836085.189902-.4358582.2980091-.7.3-.2668279-.0002929-.5221928-.1084983-.708-.3l-.821-.821c.4419518-.9004391.4000634-1.963025-.1113996-2.8258794-.5114629-.8628543-1.4235361-1.4096321-2.4256004-1.4541206-.0549082-1.5331107-1.2924473-2.7592641-2.826-2.8-.0419277-1.5447133-1.2842867-2.7870723-2.829-2.829-.0270188-.7492765-.3359547-1.460722-.865-1.992-1.1716684-1.117156-3.0093539-1.1329076-4.2-.036-1.1604132-.4758618-2.386414-.7725837-3.636-.88v-10.992l7.979.5h.021.011l3.038.19-2.609 2.352c-1.4327814 1.3142101-1.546629 3.5347058-.2557699 4.9885605 1.2908592 1.4538546 3.5092224 1.6036098 4.9837699.3364395l4.665-4.083 10.48 11.167c.187777.1875683.2932867.4420908.2932867.7075s-.1055097.5199317-.2932867.7075zm5.687-3.931v-14h10v14z"/></g></g></svg>