<svg id="Capa_1" enable-background="new 0 0 512 512" height="512" viewBox="0 0 512 512" width="512" xmlns="http://www.w3.org/2000/svg"><g><g><g><path d="m503.398 401.509-88.191-12.46c-4.115-1.173-7.879-2.901-11.354-4.923 30.802-35.602 47.653-80.635 47.671-128.078 0-.026.004-.051.004-.076 0-.028-.004-.055-.004-.083-.024-55.792-23.969-108.761-64.995-145.725 8.78-4.799 15.265-12.984 17.891-22.682 4.822-17.809-4.391-36.57-21.43-43.644l-75.714-31.428c-.032-.014-.064-.027-.098-.04-15.994-6.442-33.939-7.404-50.488-2.72l-74.182 20.661c-7.433 2.07-16.487 2.448-24.242 1.018l-146.185-31.108c-2.95-.626-6.028.11-8.373 2.009-2.346 1.9-3.708 4.755-3.708 7.773v90.592c0 4.982 3.667 9.205 8.601 9.901l88.192 12.46c3.798 1.083 7.304 2.634 10.555 4.456-31.024 35.651-47.998 80.813-48.022 128.459 0 .034-.005.067-.005.102 0 .037.005.073.006.111.032 55.984 24.176 109.155 65.485 146.124-8.444 4.844-14.669 12.863-17.229 22.317-4.822 17.808 4.391 36.57 21.43 43.642l75.712 31.431c.032.013.065.026.098.039 15.995 6.442 33.939 7.402 50.488 2.72l74.18-20.66c7.437-2.07 16.489-2.448 24.243-1.019l27.061 5.759c5.401 1.151 10.713-2.299 11.862-7.7s-2.298-10.713-7.7-11.862l-27.186-5.785c-10.936-2.267-22.913-1.649-33.646 1.34l-74.222 20.672c-12.332 3.492-25.669 2.782-37.562-1.996l-75.661-31.409c-7.786-3.231-11.996-11.805-9.792-19.942 2.604-9.617 13.371-14.93 22.596-11.188l61.038 24.871c16.48 6.592 33.999 6.536 50.965 2.157l42.374-12.544c5.295-1.567 8.317-7.132 6.75-12.428-1.567-5.295-7.131-8.321-12.428-6.75l-42.367 12.542c-7.978 2.371-16.428-.835-20.589-8.132-4.663-8.822-.314-22.305 9.328-25.833l59.429-20.036c25.141-8.243 49.04-5.036 69.02 13.013 10.66 9.627 23.95 21.257 38.76 23.337l80.236 11.333v69.554l-20.881-4.443c-5.398-1.147-10.713 2.3-11.862 7.7-1.149 5.401 2.298 10.713 7.7 11.862l32.962 7.014c6.128 1.3 12.081-3.523 12.081-9.781v-90.592c0-4.983-3.668-9.205-8.602-9.902zm-121.351-34.801c-15.709-13.483-36.093-20.321-56.738-19.096 5.095-25.128 8.016-52.925 8.568-81.64h97.358c-2.197 39.329-17.313 76.364-43.292 105.99-1.96-1.757-3.897-3.542-5.896-5.254zm-108.109-228.23c7.315-2.36 13.736-7.726 18.116-13.939 12.864 33.17 20.78 76.509 21.811 121.434h-116.868c.723-27.382 4.575-57.129 11.085-85.334.438-.133 65.856-22.161 65.856-22.161zm39.937 127.494c-.605 30.363-3.951 59.574-9.804 85.347-2.036.613-66.012 22.207-66.012 22.207-7.682 2.615-14.217 8.378-18.491 15.172-13.266-32.604-21.452-76.315-22.57-122.726zm117.357-20h-97.37c-1.367-61.353-15.205-120.48-36.982-157.677 0 0 60.465 24.568 61.678 24.919 43.014 31.146 69.663 80.095 72.674 132.758zm-330.994-142.728-80.238-11.336v-69.554l134.231 28.563c.08.017.16.033.241.048 10.803 2.022 22.978 1.517 33.404-1.388l74.222-20.672c12.335-3.492 25.672-2.781 37.564 1.997l75.659 31.408c7.787 3.231 11.997 11.806 9.793 19.942-2.601 9.606-13.363 14.949-22.597 11.188l-61.037-24.87c-.044-.018-.088-.035-.133-.053-16.164-6.319-34.225-7.064-50.832-2.105l-42.375 12.544c-5.216 1.545-8.293 7.211-6.75 12.428 1.568 5.296 7.133 8.315 12.427 6.75l42.379-12.545c8.909-2.768 18.806 2.531 22.021 11.173 3.139 8.911-2.135 19.396-10.824 22.812l-59.377 20.02c-8.719 2.882-17.517 5.358-26.792 5.358-19.205 0-33.308-10.76-47.059-22.675-9.281-8.069-21.37-17.267-33.927-19.033zm23.679 36.671c17.609 15.812 38.533 26.621 62.783 24.849-5.691 27.056-9.05 55.142-9.706 81.208h-97.38c2.208-39.593 17.492-76.822 43.77-106.534.178.159.357.319.533.477zm-44.3 126.057h97.381c1.428 63.584 15.22 121.179 37.696 157.565l-57.683-23.503c-1.683-.692-3.468-1.258-5.235-1.685-42.705-31.146-69.16-79.934-72.159-132.377z"/><path d="m436.05 482.182c-2.066-5.044-8.026-7.484-13.05-5.41-5.039 2.08-7.495 8.026-5.41 13.061 2.085 5.033 8.026 7.493 13.06 5.41 5.024-2.079 7.492-8.043 5.4-13.061z"/></g></g></g></svg>