<svg id="Capa_1" enable-background="new 0 0 511.991 511.991" height="512" viewBox="0 0 511.991 511.991" width="512" xmlns="http://www.w3.org/2000/svg"><g><path d="m419.462 416.577c-1.247-3.95-5.459-6.143-9.408-4.898-3.951 1.246-6.144 5.458-4.898 9.408 2.038 6.464 4.401 13.325 7.023 20.395 1.27 3.421 1.039 7.081-.647 10.308-1.678 3.211-4.534 5.477-8.043 6.381l-149.07 38.426c-6.109 1.576-12.503-1.64-14.872-7.478-8.895-21.909-29.716-73.222-82.692-66.039-3.715.503-7.42 1.023-11.07 1.536-18.062 2.537-36.737 5.159-45.136 3.785-17.798-2.914-27.568-10.285-30.747-23.199-2.042-8.198.488-14.178 3.967-19.827 3.919-7.008.648-15.288-4.628-18.939-3.53-2.444-7.465-4.033-10.333-4.976-.076-1.622.69-4.083 4.57-6.88 1.645-1.187 2.739-2.988 3.033-4.994.295-2.007-.235-4.047-1.47-5.655.051-.466-6.86-7.403-14.357-13.884 6.214-4.415 18.073-14.412 16.533-25.468-.645-4.625-3.821-10.879-15.295-14.408-12.559-3.862-14.3-8.72-14.311-13.394-.011-4.767 2.819-7.716 9.593-12.931 10.707-8.242 22.941-18.963 32.502-35.983 3.191-5.682 3.572-12.62 1.02-18.563-1.513-3.52-3.614-6.848-5.646-10.065-3.122-4.945-6.351-10.06-5.6-13.284.409-1.756 1.515-4.093 2.795-6.8 3.104-6.559 7.354-15.542 8.244-29.193.324-4.981.888-9.925 1.675-14.692.674-4.087-2.093-7.946-6.18-8.621-4.089-.667-7.946 2.094-8.621 6.18-.866 5.251-1.485 10.688-1.843 16.157-.704 10.798-3.961 17.682-6.834 23.755-1.58 3.34-3.073 6.494-3.846 9.813-2.173 9.332 2.979 17.494 7.525 24.694 1.802 2.853 3.503 5.547 4.549 7.98.721 1.679.603 3.657-.316 5.294-6.641 11.821-14.919 20.932-28.574 31.443-6.161 4.743-15.471 11.911-15.442 24.85.03 13.307 8.408 22.626 24.901 27.698 3.202.984 4.433 1.943 4.813 2.31-.459 2.51-6.238 8.38-12.036 12.162-.817.53-1.524 1.215-2.08 2.015-3.333 4.799-4.964 14.592 4.202 21.901 2.499 1.992 4.542 3.81 6.15 5.339-6.771 8.718-5.024 18.409-1.438 23.667 2.774 3.767 7.312 2.955 13.341 6.705-3.256 5.708-8.654 15.284-5.128 30.181 4.662 18.941 19.092 30.521 42.889 34.416 10.65 1.743 28.722-.795 49.645-3.733 3.628-.51 7.309-1.026 10.999-1.527 36.412-4.926 53.614 24.392 66.779 56.817 4.297 10.588 14.64 17.232 25.66 17.231 2.271 0 4.572-.282 6.854-.87l149.07-38.426c7.563-1.949 13.975-7.037 17.593-13.957 3.626-6.937 4.143-15.128 1.417-22.474-2.536-6.838-4.818-13.462-6.781-19.689z"/><path d="m410.332 41.712c-41.454-26.509-98.439-41.712-156.345-41.712-38.87 0-75.469 8.399-105.837 24.291-32.6 17.058-56.943 42.368-70.4 73.194-1.657 3.797.077 8.218 3.873 9.875 3.797 1.653 8.217-.077 9.875-3.873 23.826-54.581 86.087-88.487 162.489-88.487 55.119 0 109.159 14.342 148.264 39.349 47.188 30.176 72.13 75.169 72.13 130.116 0 68.1-8.952 96.001-68.215 149.634-10.63 9.619-13.786 26.663-9.646 52.105.599 3.681 3.781 6.297 7.394 6.297.399 0 .806-.032 1.213-.099 4.089-.665 6.863-4.519 6.198-8.606-3.166-19.466-1.47-32.806 4.906-38.576 62.577-56.632 73.15-89.809 73.15-160.755-.001-60.32-27.336-109.684-79.049-142.753z"/><path d="m149.784 256.949c2.712.43 5.438.641 8.15.641 9.836 0 19.505-2.785 27.847-7.949 5.955 13.175 18.226 23.185 33.325 25.577 4.233.669 8.478.728 12.671.173 1.853 1.879 3.903 3.52 6.093 4.938l23.503 57.653c3.093 7.589 10.042 13.1 18.138 14.382l24.453 3.873c.78.124 1.559.185 2.33.185 4.21 0 8.217-1.805 11.039-5.055 3.34-3.848 4.439-9.052 2.943-13.922l-8.724-28.39c2.28.412 4.689.619 9.127.454 6.864 6.893 15.751 11.455 25.432 12.988 2.443.388 4.886.578 7.313.578 9.656 0 19.04-3.03 27.003-8.816 9.965-7.239 16.513-17.925 18.438-30.087.22-1.389.366-2.79.46-4.192 3.82-1.777 7.498-3.934 10.982-6.466 14.136-10.27 23.426-25.43 26.158-42.687 2.275-14.361-.26-28.873-7.15-41.502 7.615-8.16 12.671-18.451 14.431-29.563 2.351-14.84-1.219-29.707-10.05-41.862-7.962-10.959-19.341-18.531-32.391-21.641-6.789-19.439-23.718-33.742-44.309-37.003-13.848-2.197-27.802.829-39.378 8.341-8.413-10.56-19.875-18.243-32.97-21.971-3.984-1.14-8.133 1.175-9.267 5.159-1.135 3.983 1.176 8.133 5.159 9.267 12.105 3.447 22.402 11.301 28.994 22.114 1.154 1.894 3.088 3.179 5.28 3.511 2.201.335 4.421-.323 6.084-1.789 9.265-8.168 21.565-11.744 33.751-9.817 16.279 2.579 29.438 14.57 33.523 30.549.747 2.923 3.173 5.113 6.157 5.56l.31.04c10.883 1.725 20.442 7.583 26.919 16.497s9.095 19.817 7.371 30.699c-1.539 9.714-6.516 18.574-14.012 24.949-2.917 2.48-3.497 6.759-1.347 9.927 7.221 10.637 10.09 23.488 8.078 36.188-2.106 13.3-9.267 24.983-20.16 32.898-10.895 7.915-24.222 11.114-37.519 9.008-8.08-1.28-15.601-4.448-22.072-9.242 1.736-2.868 3.2-5.95 4.334-9.23 1.353-3.915-.725-8.186-4.64-9.538-3.916-1.352-8.186.726-9.538 4.64-5.236 15.159-20.56 24.341-36.411 21.824-4.772-.757-9.22-2.499-13.218-5.179-3.011-2.018-7.035-1.594-9.559 1.007-4.832 4.981-11.792 7.307-18.628 6.228-5.455-.864-10.298-3.771-13.638-8.183-1.801-2.38-4.838-3.469-7.746-2.763-3.739.906-7.578 1.057-11.405.451-14.938-2.366-25.694-16.018-24.486-31.078.297-3.699-2.155-7.059-5.769-7.903-7.409-1.73-12.501-8.511-12.107-16.12.259-5.019 2.811-9.498 7-12.29 3.447-2.298 4.379-6.954 2.082-10.4-2.297-3.447-6.954-4.377-10.4-2.082-8.056 5.369-13.162 14.34-13.662 23.998-.659 12.761 6.581 24.328 17.806 29.49-8.32 6.873-18.993 9.826-29.786 8.118-20.506-3.248-34.547-22.574-31.3-43.079.928-5.851 3.144-11.247 6.586-16.04 1.679-2.337 1.872-5.429.497-7.957-4.683-8.614-6.347-18.291-4.813-27.984 2.94-18.562 17.343-33.264 35.839-36.586 3.077-.553 5.489-2.957 6.052-6.033 3.517-19.242 22.097-32.404 41.42-29.347 4.087.646 8 1.972 11.63 3.938 3.201 1.734 7.185.919 9.447-1.933 5.938-7.483 13.844-13.097 22.861-16.233 3.912-1.361 5.979-5.637 4.619-9.549-1.362-3.91-5.633-5.976-9.549-4.619-9.817 3.416-18.62 9.093-25.753 16.565-3.505-1.392-7.156-2.392-10.909-2.985-13.328-2.111-26.733 1.026-37.738 8.841-9.595 6.813-16.44 16.516-19.631 27.687-22.389 6.014-39.429 24.711-43.103 47.908-1.816 11.47-.288 22.925 4.418 33.397-3.391 5.703-5.635 11.934-6.688 18.583-4.536 28.676 15.098 55.699 43.773 60.241zm222.216 29.073c3.835 0 7.637-.349 11.376-1.015-1.829 6.879-5.926 12.875-11.764 17.116-6.723 4.884-14.94 6.86-23.152 5.559-7.487-1.187-14.271-5.061-19.102-10.909-1.76-2.131-4.551-3.123-7.258-2.577-2.511.505-5.081.556-7.636.151-3.021-.479-5.895-1.599-8.43-3.252l-2.132-6.937c10.559-.664 20.47-4.794 28.296-11.532 8.574 6.554 18.62 10.865 29.43 12.577 3.465.548 6.929.819 10.372.819zm-92.896-6.952c2.744 1.393 5.607 2.51 8.573 3.349l18.105 58.919-23.923-3.789c-2.943-.467-5.47-2.47-6.594-5.229l-18.837-46.208c6.739.317 15.81-2.008 22.676-7.042z"/><path d="m325.816 182.621c-2.931 2.927-2.935 7.675-.007 10.606 2.927 2.932 7.676 2.933 10.606.007 10.246-10.489 18.9-16.673 20.571-37.644-.018-25.474-20.384-46.197-45.399-46.197-12.229 0-23.652 4.846-32.058 13.309-8.405-8.463-19.825-13.309-32.051-13.309-25.036 0-45.406 20.37-45.407 45.407-.001 11.756 4.191 22.128 12.104 29.979l52.439 52.361c3.561 3.557 8.237 5.333 12.914 5.333 4.676 0 9.354-1.777 12.914-5.332l19.123-19.095c2.931-2.927 2.935-7.676.008-10.607-2.928-2.931-7.676-2.935-10.607-.008l-19.123 19.096c-1.275 1.273-3.354 1.274-4.629-.001l-52.457-52.379c-5.029-4.989-7.688-11.679-7.687-19.346.001-16.767 13.642-30.408 30.407-30.408 10.482 0 20.088 5.342 25.694 14.29 1.371 2.188 3.772 3.518 6.355 3.518s4.983-1.329 6.355-3.518c5.607-8.948 15.216-14.29 25.703-14.29 16.467 0 30.388 14.291 30.399 31.207-.788 13.838-8.817 19.44-16.167 27.021z"/></g></svg>