<?xml version="1.0" encoding="iso-8859-1"?>
<!-- Generator: Adobe Illustrator 19.0.0, SVG Export Plug-In . SVG Version: 6.00 Build 0)  -->
<svg version="1.1" id="Capa_1" xmlns="http://www.w3.org/2000/svg" xmlns:xlink="http://www.w3.org/1999/xlink" x="0px" y="0px"
	 viewBox="0 0 331.296 331.296" style="enable-background:new 0 0 331.296 331.296;" xml:space="preserve">
<g>
	<g>
		<path d="M38.94,0c-1.511,0-2.737,1.225-2.737,2.737v36.202c0,1.511,1.225,2.737,2.737,2.737c1.512,0,2.737-1.225,2.737-2.737
			V2.737C41.676,1.225,40.451,0,38.94,0z"/>
	</g>
</g>
<g>
	<g>
		<path d="M57.041,18.101H20.839c-1.511,0-2.737,1.225-2.737,2.737c0,1.511,1.225,2.737,2.737,2.737h36.202
			c1.511,0,2.737-1.225,2.737-2.737C59.778,19.327,58.553,18.101,57.041,18.101z"/>
	</g>
</g>
<g>
	<g>
		<path d="M310.457,45.253c-1.511,0-2.737,1.225-2.737,2.737v18.101c0,1.511,1.225,2.737,2.737,2.737
			c1.512,0,2.737-1.225,2.737-2.737V47.99C313.193,46.478,311.968,45.253,310.457,45.253z"/>
	</g>
</g>
<g>
	<g>
		<path d="M319.508,54.303h-18.102c-1.511,0-2.737,1.225-2.737,2.737c0,1.511,1.225,2.737,2.737,2.737h18.102
			c1.512,0,2.737-1.225,2.737-2.737C322.245,55.529,321.019,54.303,319.508,54.303z"/>
	</g>
</g>
<g>
	<g>
		<path d="M20.477,298.669c-1.511,0-2.737,1.225-2.737,2.737v18.101c0,1.511,1.225,2.737,2.737,2.737
			c1.511,0,2.737-1.225,2.737-2.737v-18.101C23.214,299.894,21.988,298.669,20.477,298.669z"/>
	</g>
</g>
<g>
	<g>
		<path d="M29.528,307.72H11.426c-1.511,0-2.737,1.225-2.737,2.737c0,1.511,1.225,2.737,2.737,2.737h18.102
			c1.511,0,2.737-1.225,2.737-2.737C32.264,308.945,31.039,307.72,29.528,307.72z"/>
	</g>
</g>
<g>
	<g>
		<path d="M292.356,18.101h-36.202c-1.511,0-2.737,1.225-2.737,2.737c0,1.511,1.225,2.737,2.737,2.737h36.202
			c1.511,0,2.737-1.225,2.737-2.737C295.093,19.327,293.867,18.101,292.356,18.101z"/>
	</g>
</g>
<g>
	<g>
		<path d="M328.558,253.416h-36.202c-1.511,0-2.737,1.225-2.737,2.737c0,1.511,1.225,2.737,2.737,2.737h36.202
			c1.511,0,2.737-1.225,2.737-2.737C331.295,254.641,330.07,253.416,328.558,253.416z"/>
	</g>
</g>
<g>
	<g>
		<path d="M256.153,307.72h-36.202c-1.511,0-2.737,1.225-2.737,2.737c0,1.511,1.225,2.737,2.737,2.737h36.202
			c1.512,0,2.737-1.225,2.737-2.737C258.89,308.945,257.664,307.72,256.153,307.72z"/>
	</g>
</g>
<g>
	<g>
		<path d="M20.839,90.506H2.738c-1.511,0-2.737,1.225-2.737,2.737c0,1.511,1.225,2.737,2.737,2.737h18.101
			c1.511,0,2.737-1.225,2.737-2.737C23.576,91.731,22.35,90.506,20.839,90.506z"/>
	</g>
</g>
<g>
	<g>
		<path d="M312.392,109.411c-0.511-0.511-1.216-0.803-1.935-0.803c-0.723,0-1.429,0.292-1.939,0.803
			c-0.505,0.505-0.797,1.21-0.797,1.934c0,0.718,0.292,1.423,0.797,1.934c0.51,0.511,1.216,0.803,1.939,0.803
			c0.718,0,1.424-0.292,1.935-0.803c0.511-0.511,0.802-1.216,0.802-1.934C313.195,110.621,312.903,109.922,312.392,109.411z"/>
	</g>
</g>
<g>
	<g>
		<path d="M20.839,217.214h-0.362c-1.511,0-2.737,1.225-2.737,2.737c0,1.511,1.225,2.737,2.737,2.737h0.362
			c1.511,0,2.737-1.225,2.737-2.737C23.576,218.44,22.35,217.214,20.839,217.214z"/>
	</g>
</g>
<g>
	<g>
		<path d="M131.381,326.62c-0.511-0.505-1.216-0.797-1.934-0.797c-0.724,0-1.429,0.292-1.934,0.797
			c-0.511,0.511-0.803,1.216-0.803,1.94c0,0.718,0.292,1.423,0.803,1.934c0.505,0.511,1.21,0.803,1.934,0.803
			c0.718,0,1.423-0.293,1.934-0.803c0.511-0.511,0.803-1.216,0.803-1.934C132.184,327.836,131.892,327.131,131.381,326.62z"/>
	</g>
</g>
<g>
	<g>
		<path d="M164.562,36.202c-71.376,0-129.445,58.068-129.445,129.445s58.068,129.444,129.445,129.444
			c71.376,0,129.445-58.068,129.445-129.444S235.938,36.202,164.562,36.202z M164.562,289.618
			c-68.358,0-123.971-55.613-123.971-123.971S96.204,41.676,164.562,41.676s123.971,55.613,123.971,123.971
			C288.533,234.005,232.92,289.618,164.562,289.618z"/>
	</g>
</g>
<g>
	<g>
		<path d="M137.411,217.214h-18.102c-6.609,0-11.787,5.177-11.787,11.787c0,6.61,5.178,11.788,11.787,11.788h18.101
			c6.61,0,11.787-5.177,11.788-11.788C149.198,222.391,144.02,217.214,137.411,217.214z M137.411,235.315h-18.102
			c-3.541,0-6.314-2.774-6.314-6.315c0-3.54,2.773-6.313,6.314-6.313h18.102c3.541,0,6.314,2.773,6.314,6.313
			C143.725,232.542,140.952,235.315,137.411,235.315z"/>
	</g>
</g>
<g>
	<g>
		<path d="M191.714,144.809H38.94c-1.511,0-2.737,1.225-2.737,2.737c0,1.511,1.225,2.737,2.737,2.737h152.774
			c3.54,0,6.314,2.774,6.314,6.314c0,3.54-2.774,6.314-6.314,6.314H37.854c-1.511,0-2.737,1.225-2.737,2.737
			c0,1.511,1.225,2.737,2.737,2.737h153.86c6.61,0,11.787-5.177,11.787-11.787C203.501,149.987,198.323,144.809,191.714,144.809z"/>
	</g>
</g>
<g>
	<g>
		<path d="M277.151,108.607h-121.64c-3.541,0-6.314-2.773-6.314-6.314c0-3.541,2.773-6.314,6.314-6.314h111.141
			c1.511,0,2.737-1.225,2.737-2.737c0-1.511-1.225-2.737-2.737-2.737H155.511c-6.609,0-11.787,5.178-11.787,11.787
			c0,6.609,5.178,11.787,11.787,11.787h121.64c1.511,0,2.737-1.225,2.737-2.737S278.662,108.607,277.151,108.607z"/>
	</g>
</g>
<g>
	<g>
		<path d="M101.208,90.506H83.107c-6.61,0-11.788,5.178-11.788,11.787c0,6.609,5.178,11.787,11.788,11.787h18.101
			c6.609,0,11.787-5.178,11.787-11.787C112.995,95.684,107.817,90.506,101.208,90.506z M101.208,108.607H83.107
			c-3.541,0-6.314-2.773-6.314-6.314c0-3.541,2.774-6.314,6.314-6.314h18.101c3.541,0,6.314,2.773,6.314,6.314
			C107.522,105.834,104.749,108.607,101.208,108.607z"/>
	</g>
</g>
<g>
	<g>
		<path d="M284.754,199.112H119.309c-7.91,0-15.395,3.129-21.077,8.812c-5.681,5.682-8.811,13.167-8.811,21.077
			s3.129,15.395,8.811,21.077c5.682,5.682,13.167,8.812,21.077,8.812h131.776c1.512,0,2.737-1.225,2.737-2.737
			c0-1.511-1.225-2.737-2.737-2.737H119.309c-13.235,0-24.415-11.181-24.415-24.415s11.181-24.415,24.415-24.415h165.444
			c1.511,0,2.737-1.225,2.737-2.737S286.265,199.112,284.754,199.112z"/>
	</g>
</g>
<g>
</g>
<g>
</g>
<g>
</g>
<g>
</g>
<g>
</g>
<g>
</g>
<g>
</g>
<g>
</g>
<g>
</g>
<g>
</g>
<g>
</g>
<g>
</g>
<g>
</g>
<g>
</g>
<g>
</g>
</svg>
