<svg id="_x31_-outline-expand" enable-background="new 0 0 64 64" height="512" viewBox="0 0 64 64" width="512" xmlns="http://www.w3.org/2000/svg"><path d="m54 57.5v-2h-4.85c-.018-.039-.042-.075-.062-.113l3.109-.658-.414-1.957-4.505.954c-.361-.198-.754-.382-1.185-.546l.942-.598-1.072-1.688-2.48 1.575c-.491-.093-.997-.172-1.514-.233.03-.164.032-.331-.022-.492l-4-12c-.113-.34-.4-.594-.752-.664l-9.195-1.84v-7.24h6c.266 0 .52-.105.707-.293l7-7c.391-.391.391-1.023 0-1.414l-2.707-2.707v-4.942l10.414-4.734c.357-.162.586-.517.586-.91s-.229-.748-.586-.91l-11-5c-.31-.143-.67-.114-.955.069-.286.185-.459.501-.459.841v15.586l-5.414 5.414h-5.126c.954-1.063 1.54-2.462 1.54-4 0-3.309-2.691-6-6-6s-6 2.691-6 6c0 1.538.586 2.937 1.54 4h-2.54c-.29 0-.565.126-.755.345l-5.331 6.137c-1.268 1.459-1.579 3.543-.794 5.31l2.966 6.675c.111.249.319.442.576.535.256.092.54.075.785-.047l3.545-1.772-.991 19.767c-.014.273.086.54.274.739.189.199.452.311.725.311h5c.51 0 .937-.383.994-.89l1.881-16.875 9.388 1.707 2.379 6.345c-.383.052-.759.111-1.126.181l-2.48-1.575-1.072 1.688.942.598c-.43.163-.824.347-1.185.546l-4.505-.954-.414 1.957 3.109.658c-.02.038-.044.075-.062.113h-4.849v2h4.85c.018.039.042.075.062.113l-3.109.658.414 1.957 4.505-.954c.361.198.754.382 1.185.546l-.942.598 1.072 1.688 2.48-1.575c1.102.209 2.284.34 3.484.386v1.084h2v-1.082c1.2-.046 2.382-.177 3.484-.386l2.48 1.575 1.072-1.688-.942-.598c.43-.163.824-.347 1.185-.546l4.505.954.414-1.957-3.109-.658c.02-.038.044-.075.062-.113h4.848zm-23.375-1c0-.859 3.18-2.438 8.375-2.438s8.375 1.578 8.375 2.438-3.18 2.438-8.375 2.438-8.375-1.579-8.375-2.438zm8.375-51.947 7.583 3.447-7.583 3.447zm-21 15.447c0-2.206 1.794-4 4-4s4 1.794 4 4c0 1.034-.405 1.969-1.051 2.68-.572-.352-.949-.978-.949-1.68h-2c0 1.078.441 2.077 1.164 2.807-.371.114-.757.193-1.164.193-2.206 0-4-1.794-4-4zm-3.783 14.257 1.783-1.783.001 5.352zm19.962 9.819-11-2c-.275-.054-.553.016-.776.182-.222.165-.365.415-.396.691l-1.902 17.051h-3.054l.949-18.94v-11c0-.404-.243-.77-.617-.924-.374-.156-.804-.069-1.09.217l-4 4c-.305.305-.38.77-.188 1.154l2.553 5.105-2.169 1.085-2.541-5.719c-.472-1.06-.285-2.311.476-3.186l5.032-5.792h16.544c.266 0 .52-.105.707-.293l5.293-5.293 1.586 1.586-6 6h-6.586c-.553 0-1 .447-1 1v9.06c0 .477.337.887.804.98l9.431 1.887 3.476 10.425-2.087.521-2.687-7.165c-.125-.329-.412-.569-.758-.632z"/></svg>