<svg id="Capa_1" enable-background="new 0 0 512 512" height="512" viewBox="0 0 512 512" width="512" xmlns="http://www.w3.org/2000/svg"><g><path d="m504.5 497h-8.532v-241c0-2.361-1.111-4.583-3-6l-93.193-69.895v-100.46c0-4.142-3.358-7.5-7.5-7.5s-7.5 3.358-7.5 7.5v257.032h-65.162v-88.693c0-4.142-3.358-7.5-7.5-7.5h-8.532v-40.597c0-4.142-3.358-7.5-7.5-7.5s-7.5 3.358-7.5 7.5v40.597h-17.064v-40.597c0-4.142-3.358-7.5-7.5-7.5s-7.5 3.358-7.5 7.5v40.597h-17.064v-60.321c18.376-5.077 34.685-16.085 46.586-31.874 2.014-2.673 2.014-6.356 0-9.029-11.901-15.789-28.21-26.797-46.586-31.874v-11.709c0-10.354-6.724-19.16-16.032-22.3v-65.877c0-4.142-3.358-7.5-7.5-7.5s-7.5 3.358-7.5 7.5v65.878c-9.308 3.139-16.032 11.946-16.032 22.3v11.709c-18.376 5.077-34.685 16.085-46.586 31.874-2.014 2.673-2.014 6.356 0 9.029 11.901 15.788 28.21 26.797 46.586 31.874v124.45h-17.064v-56.629c0-4.142-3.358-7.5-7.5-7.5h-56.629v-56.629c0-4.142-3.358-7.5-7.5-7.5s-7.5 3.358-7.5 7.5v152.822h-40.599c-4.142 0-7.5 3.358-7.5 7.5v88.694h-24.565c-4.142 0-7.5 3.358-7.5 7.5v56.628h-8.532c-4.142 0-7.5 3.358-7.5 7.5s3.358 7.5 7.5 7.5h497c4.142 0 7.5-3.358 7.5-7.5s-3.358-7.5-7.5-7.5zm-23.532 0h-17.064v-250.048l17.064 12.798zm-64.129-285.347v228.715c0 4.142 3.358 7.5 7.5 7.5s7.5-3.358 7.5-7.5v-217.465l17.064 12.798v261.299h-17.064v-24.567c0-4.142-3.358-7.5-7.5-7.5s-7.5 3.358-7.5 7.5v24.567h-17.064v-298.145zm-177.387 140.024h38.523l-38.523 38.523zm0 59.736 59.735-59.736h5.426v81.194h-40.597c-4.142 0-7.5 3.358-7.5 7.5v56.629h-17.064zm145.322 53.523h-113.258v-17.064h113.258zm-113.258 15h113.258v17.064h-113.258zm113.258-89.736-38.523-38.523h38.523zm-59.735-38.523 59.736 59.736v21.458h-65.162v-81.194zm-155.894-200.403h93.549c-12.975 10.973-29.346 17.064-46.774 17.064s-33.8-6.091-46.775-17.064zm46.774-32.065c17.428 0 33.799 6.092 46.775 17.065h-93.549c12.975-10.972 29.346-17.065 46.774-17.065zm-8.532-23.532c0-4.705 3.828-8.532 8.532-8.532s8.532 3.828 8.532 8.532v8.946c-2.816-.269-5.661-.414-8.532-.414s-5.716.144-8.532.414zm8.532 87.662c2.871 0 5.716-.144 8.532-.414v89.108c0 4.142 3.358 7.5 7.5 7.5s7.5-3.358 7.5-7.5v-16.55h65.161v81.193h-65.161v-32.58c0-4.142-3.358-7.5-7.5-7.5s-7.5 3.358-7.5 7.5v192.904h-17.064v-314.075c2.816.27 5.662.414 8.532.414zm-23.532 136.274v177.387h-17.064v-177.387zm-129.29 64.129h97.226v17.065h-97.226zm48.096-96.194h49.129v17.064h-49.129zm49.13-32.064v17.064h-49.129v-17.064zm-49.13 64.129h49.129v17.064h-49.129zm49.13 32.064v17.064h-97.226v-17.064zm-97.226 64.13h97.226v17.064h-97.226zm97.226 32.064v17.064h-129.291v-17.064zm-129.291 32.065h129.291v17.064h-129.291z"/></g></svg>