<svg clip-rule="evenodd" fill-rule="evenodd" height="512" stroke-linejoin="round" stroke-miterlimit="2" viewBox="0 0 267 267" width="512" xmlns="http://www.w3.org/2000/svg"><path d="m235.265 206.326c-3.785-5.106-9.766-8.118-16.122-8.118h-171.619c-6.357 0-12.338 3.012-16.123 8.118-4.041 5.452-9.7 13.088-14.64 19.752-2.491 3.362-2.876 7.84-.994 11.577 1.881 3.737 5.708 6.095 9.892 6.095h215.348c4.184 0 8.011-2.358 9.893-6.095s1.497-8.215-.995-11.577zm-3.347 2.481 14.64 19.752c1.554 2.097 1.794 4.891.62 7.222-1.173 2.331-3.561 3.802-6.171 3.802h-215.347c-2.611 0-4.998-1.471-6.172-3.802s-.934-5.125.621-7.222c0 0 14.64-19.751 14.64-19.751 2.999-4.047 7.738-6.433 12.775-6.433h171.618c5.038 0 9.777 2.386 12.776 6.432z"/><path d="m243.533 218.896h-43.626c-1.15 0-2.083.933-2.083 2.083s.933 2.083 2.083 2.083h43.626c1.149 0 2.083-.933 2.083-2.083s-.934-2.083-2.083-2.083z"/><path d="m62.321 218.896h-14.956c-1.15 0-2.084.933-2.084 2.083s.934 2.083 2.084 2.083h14.956c1.15 0 2.084-.933 2.084-2.083s-.934-2.083-2.084-2.083z"/><path d="m95.833 218.896h-14.957c-1.15 0-2.083.933-2.083 2.083s.933 2.083 2.083 2.083h14.957c1.15 0 2.083-.933 2.083-2.083s-.933-2.083-2.083-2.083z"/><path d="m52.468 200.291c0 1.151.932 2.084 2.083 2.084h157.565c1.15 0 2.083-.933 2.083-2.084v-3.588c0-6.118-4.959-11.077-11.076-11.077-27.749 0-111.83 0-139.579 0-6.117 0-11.076 4.959-11.076 11.077zm4.166-2.083v-1.505c0-3.816 3.094-6.91 6.91-6.91h139.579c3.816 0 6.909 3.094 6.909 6.909v1.506z"/><path d="m44.428 200.32c0 .573.236 1.121.653 1.514.416.394.977.598 1.549.566.296-.017.595-.025.894-.025h171.618c.3 0 .598.008.895.025.572.032 1.132-.172 1.549-.566.416-.393.652-.941.652-1.514v-88.498c0-49.068-39.837-88.905-88.905-88.905s-88.905 39.837-88.905 88.905zm173.644-2.112h-169.477v-86.386c0-46.769 37.97-84.739 84.738-84.739 46.769 0 84.739 37.97 84.739 84.739z"/><path d="m187.973 92.406c-1.027-.593-2.726-.855-4.758-.49-3.785.68-8.97 3.454-11.848 8.44-2.879 4.986-2.688 10.862-1.385 14.48.7 1.943 1.776 3.283 2.803 3.876s2.726.855 4.759.49c3.784-.681 8.969-3.454 11.848-8.44 2.878-4.986 2.688-10.862 1.384-14.48-.699-1.943-1.776-3.283-2.803-3.876zm-2.083 3.608c.216.125.371.408.55.737.319.584.58 1.327.769 2.17.616 2.743.455 6.5-1.426 9.758s-5.054 5.275-7.737 6.114c-.825.258-1.599.403-2.264.419-.374.009-.697.017-.914-.108-.216-.125-.371-.408-.55-.737-.318-.584-.58-1.327-.769-2.17-.615-2.743-.455-6.5 1.426-9.758s5.054-5.275 7.738-6.114c.825-.258 1.598-.403 2.263-.419.375-.009.698-.017.914.108z"/><path d="m110.697 54.424c-1.621.847-3.305 2.889-4.509 5.836-2.442 5.976-3.169 15.819 1.306 24.387 4.476 8.567 12.97 13.593 19.27 15.002 3.107.695 5.745.48 7.366-.367 1.62-.846 3.304-2.889 4.508-5.836 2.442-5.976 3.17-15.819-1.306-24.387-4.475-8.567-12.97-13.593-19.27-15.002-3.106-.695-5.745-.48-7.365.367zm1.929 3.693c.453-.237 1.067-.317 1.781-.323 1.444-.013 3.213.342 5.109 1.023 5.002 1.798 10.83 5.868 14.123 12.172 3.293 6.303 3.305 13.412 1.923 18.544-.524 1.946-1.243 3.601-2.078 4.779-.413.582-.83 1.04-1.283 1.277-.454.237-1.068.317-1.782.323-1.444.013-3.212-.342-5.109-1.023-5.002-1.798-10.83-5.868-14.123-12.172-3.293-6.303-3.304-13.412-1.922-18.544.523-1.946 1.242-3.6 2.078-4.779.413-.582.83-1.04 1.283-1.277z"/><path d="m92.641 102.21c-.303 5.529 2.909 15.142 4.909 20.407.408 1.075 1.613 1.617 2.687 1.208 1.075-.408 1.617-1.612 1.208-2.687-1.836-4.834-4.921-13.624-4.643-18.7.063-1.148-.818-2.131-1.966-2.194s-2.132.818-2.195 1.966z"/><path d="m181.657 99.385c-4.576 4.102-9.762 16.744-9.762 16.744-.43 1.067.086 2.281 1.153 2.711 1.066.43 2.281-.086 2.711-1.153 0 0 4.546-11.495 8.679-15.199.856-.767.929-2.085.161-2.941-.767-.857-2.085-.929-2.942-.162z"/><path d="m151.393 73.976c-7.632 7.442-15.64 29.759-15.64 29.759-.385 1.084.183 2.276 1.266 2.661 1.084.384 2.276-.183 2.661-1.267 0 0 7.417-21.144 14.622-28.17.823-.803.839-2.123.037-2.946-.803-.823-2.123-.84-2.946-.037z"/><path d="m116.58 69.962c7.204 7.026 14.622 28.17 14.622 28.17.385 1.084 1.577 1.651 2.66 1.267 1.084-.385 1.651-1.577 1.267-2.66 0 0-8.009-22.318-15.64-29.76-.823-.803-2.143-.786-2.946.037s-.786 2.143.037 2.946z"/><path d="m95.43 116.107s4.096 1.371 4.158.263l-.033.031.005-.039c.037-.364.125-1.113.658-2.144.373-.719.868-1.558 1.629-2.488.533-.521.543-1.376.023-1.909-.521-.532-1.376-.542-1.909-.022-1.464 1.142-2.395 2.225-3.062 3.114-.926 1.238-1.219 2.213-1.368 2.682-.066.211-.077.359-.091.428-.009.042-.01.084-.01.084z"/><path d="m175.626 108.457s-.731.742-.731 1.585c0 1.15.933 2.083 2.083 2.083 0 0 .607.104 1.314-.511.195-.17.575-.544 1.348-.818.575-.203 1.265-.425 2.162-.544.745.008 1.357-.589 1.365-1.334.009-.745-.589-1.357-1.333-1.365-2.897-.455-4.583.144-5.402.45-.372.14-.579.306-.691.369-.063.036-.115.085-.115.085z"/><path d="m141.352 90.526 2.786 3.047c.057-.042.116-.088.176-.138.413-.346 1.304-1.007 2.924-1.545 1.073-.356 2.402-.692 4.069-.88.744-.023 1.33-.646 1.307-1.39-.023-.745-.645-1.331-1.39-1.308-2.454-.126-4.341.122-5.778.435-1.935.421-3.062 1.082-3.6 1.412-.224.138-.356.255-.424.306-.037.029-.07.061-.07.061z"/><path d="m129.539 83.582c-.125-.148-.29-.289-.504-.42-.538-.33-1.665-.991-3.6-1.412-1.436-.313-3.323-.56-5.778-.435-.744-.022-1.367.563-1.39 1.308-.023.744.563 1.367 1.308 1.39 1.667.188 2.995.524 4.069.88 1.62.538 2.511 1.2 2.924 1.545.85.711 1.531.689 1.531.689-.628.212.692.194 1.494-.631.802-.824.783-2.144-.041-2.946z"/><path d="m96.598 105.948c-.088-.084-.192-.165-.313-.243-.415-.268-1.256-.837-2.484-1.285-.842-.308-1.806-.622-2.924-.737-.723-.179-1.455.263-1.634.986-.178.724.264 1.456.987 1.634.786.315 1.413.751 1.96 1.148.742.539 1.193 1.093 1.423 1.354.724.825 1.531.709 1.531.709-.635.21.685.196 1.489-.626s.79-2.142-.032-2.947z"/><path d="m178.496 103.389c-.054.162-.083.357-.083.559 0 1.15.933 2.084 2.083 2.084 0 0 2.576-.632 1.97-2.698-.231-.791-.673-2.422-1.987-3.911-.385-.638-1.216-.843-1.853-.458-.638.385-.843 1.216-.457 1.853.387 1.017.37 1.958.327 2.571z"/><path d="m147.596 82.742c-.594-.133.189.375 1.07.328 1.148-.061 2.03-1.043 1.969-2.191l-.022.024c0-.158-.019-.327-.059-.507-.139-.627-.433-1.928-1.158-3.464-.502-1.062-1.145-2.241-2.078-3.378-.412-.62-1.25-.79-1.871-.378-.621.411-.79 1.249-.379 1.87.555 1.057.867 2.101 1.09 3.028.307 1.273.323 2.301.33 2.796.015 1.019.574 1.574 1.108 1.872z"/><path d="m120.248 73.867 4.127.267c.011-.083.017-.17.018-.26.007-.496.023-1.524.33-2.797.224-.927.535-1.971 1.09-3.028.412-.62.242-1.459-.379-1.87-.62-.412-1.459-.242-1.87.379-.934 1.136-1.577 2.315-2.078 3.378-.725 1.535-1.019 2.836-1.159 3.463-.044.202-.06.343-.072.41-.005.029-.007.058-.007.058z"/><path d="m89.592 121.982c.389.404.924.635 1.484.64l.831.093c4.091.387 7.873 1.189 11.38 2.29.841.264 1.756-.029 2.287-.732 2.932-3.885 5.349-11.283 3.39-18.592-1.881-7.02-7.293-12.097-11.685-14.162-2.26-1.063-4.321-1.319-5.706-.948-1.386.372-3.043 1.624-4.469 3.674-2.77 3.985-4.919 11.088-3.038 18.107 1.032 3.853 3.121 7.126 5.526 9.63zm2.478-3.458c-1.733-1.951-3.217-4.403-3.98-7.25-1.308-4.884-.213-9.817 1.54-13.164.551-1.051 1.164-1.941 1.794-2.603.429-.45.826-.803 1.227-.911.401-.107.921 0 1.518.176.876.258 1.852.722 2.855 1.357 3.192 2.022 6.607 5.747 7.915 10.63 1.399 5.221.065 10.505-1.902 13.822-3.316-.945-6.854-1.64-10.639-2.004z"/><path d="m135.482 72.896c-.378.534-.482 1.214-.283 1.838 1.808 5.647 1.437 11.49.094 15.719-.777 2.445-1.793 4.349-3.001 5.084-.798.486-1.175 1.443-.923 2.342 1.201 4.281 3.343 7.334 5.383 8.4 1.62.846 4.259 1.061 7.365.367 6.3-1.41 14.795-6.435 19.27-15.003 4.476-8.567 3.748-18.41 1.306-24.386-1.204-2.947-2.888-4.99-4.508-5.836-1.493-.78-3.836-1.032-6.617-.52-5.569 1.026-13.163 5.032-18.086 11.995zm3.996 1.601c3.591-4.663 8.559-7.668 12.771-8.979 2.541-.791 4.75-1.06 6.007-.404.453.237.87.695 1.283 1.277.835 1.178 1.554 2.832 2.078 4.779 1.382 5.132 1.37 12.241-1.923 18.544-3.293 6.304-9.121 10.374-14.123 12.172-1.896.681-3.665 1.036-5.109 1.023-.714-.006-1.328-.086-1.781-.323-1.159-.606-2.141-2.302-2.905-4.551.944-.954 1.848-2.298 2.597-3.97 2.117-4.725 3.156-12.219 1.104-19.568z"/><path d="m120.909 128.928c-7.636-5.023-16.916-9.235-28.511-10.351-4.052-.737-7.963 1.921-8.76 5.975-.796 4.057 1.822 7.999 5.856 8.847 8.852 2.697 15.19 7.657 20.075 12.838 3.531 3.746 6.073 7.73 7.928 11.293.152.296.21.631.166.961-1.535 11.347-3.215 21.657-4.46 28.864-.105.606.064 1.227.459 1.697.396.47.979.741 1.594.741h35.252c.557 0 1.092-.224 1.483-.621.392-.397.608-.935.6-1.492-.183-12.636-.737-32.034-2.354-50.681-1.034-11.934-2.391-23.461-4.324-32.855-.113-.551-.445-1.033-.919-1.336s-1.051-.401-1.599-.272c-1.987.469-3.685.587-4.714.05-1.37-.716-2.494-2.957-3.3-5.832-.176-.628-.636-1.137-1.243-1.376s-1.291-.18-1.847.16c-.03.018-.06.035-.09.051-.545.284-1.31.352-2.207.317-1.777-.071-3.966-.635-6.257-1.648-.673-.298-1.453-.218-2.052.209-.599.428-.929 1.139-.866 1.872.05.594.149 1.193.299 1.79 1.234 7.646.787 18.742-.209 30.799zm4.579-29.625c2.501.694 4.783.871 6.555.608 1.237 3.21 3.009 5.48 4.709 6.368 1.278.668 3.194.941 5.473.685 1.696 8.874 2.913 19.461 3.861 30.394 1.52 17.527 2.094 35.72 2.305 48.268h-30.665c1.195-7.043 2.689-16.394 4.066-26.577.159-1.177-.048-2.374-.592-3.429-.001-.003-.002-.005-.004-.008-2.009-3.86-4.768-8.174-8.595-12.233-5.341-5.665-12.292-11.063-22.003-13.999-.066-.02-.133-.036-.201-.05-1.834-.36-3.03-2.141-2.67-3.975.36-1.833 2.141-3.03 3.975-2.669.068.013.136.023.205.029 12.01 1.136 21.358 5.853 28.916 11.198.291.206.584.391.99.421l-.006-.002c.514.101 1.056.042 1.548-.184.823-.379 1.383-1.168 1.467-2.071.001-.004.001-.007.001-.011 1.106-12.565 1.691-24.336.665-32.763z"/><path d="m173.339 110.978c-.138-1.108-1.125-1.91-2.238-1.819-2.574.211-4.988.605-7.287 1.083-7.513 1.562-13.295 4.746-18.48 7.475-.77.405-1.207 1.247-1.096 2.11.722 5.588 1.326 11.507 1.848 17.531.1 1.153.196 2.309.288 3.465.056.713.475 1.347 1.108 1.679.633.333 1.392.318 2.011-.04 2.941-1.7 5.924-3.933 9.065-6.646 5.143-4.443 11.244-10.127 22.581-11.317 4.141-.014 7.502-3.323 7.562-7.447.031-2.154-.845-4.112-2.274-5.509-.803-.785-2.083-.792-2.895-.017-2.029 1.939-4.491 3.117-6.5 3.531-.922.191-1.706.311-2.164.047-.298-.172-.501-.597-.731-1.1-.374-.819-.653-1.861-.798-3.026zm-3.749 2.521c.691 2.61 1.978 4.511 3.195 5.213.86.497 2.163.771 3.743.628 2.255-.203 5.22-1.24 7.916-3.173.064.264.095.541.091.825-.027 1.868-1.566 3.363-3.435 3.336-.08-.001-.16.003-.24.011-12.554 1.271-19.352 7.422-25.026 12.324-1.919 1.657-3.772 3.126-5.593 4.388.001-.002-.004-.052-.004-.052-.483-5.571-1.035-11.053-1.685-16.271 4.555-2.408 9.646-5.062 16.111-6.407 1.578-.328 3.215-.615 4.927-.821z"/><path d="m84.942 143.92s5.246 1.426 11.342 5.749c3.109 2.204 6.43 5.126 9.407 8.984.284.403.842.501 1.245.217.404-.284.501-.842.217-1.245-2.764-4.328-5.983-7.701-9.041-10.306-6.26-5.332-11.895-7.366-11.895-7.366-1.095-.352-2.269.251-2.621 1.346s.251 2.269 1.346 2.621z"/><path d="m160.076 150.309s3.06-5.191 8.232-9.784c3.036-2.696 6.768-5.203 11.045-6.318.483-.103.791-.578.688-1.06-.103-.483-.579-.791-1.061-.688-4.73.793-9.007 3.134-12.547 5.754-6.043 4.474-9.843 9.814-9.843 9.814-.629.962-.36 2.255.602 2.884.962.63 2.255.36 2.884-.602z"/><path d="m167.692 97.844s5.2-3.989 6.146-12.387c.398-3.529.075-7.862-1.839-13.034-.149-.47-.652-.73-1.122-.581-.47.15-.731.653-.581 1.123 1.301 4.872 1.266 8.842.603 12.021-1.381 6.616-5.669 9.497-5.669 9.497-.927.679-1.129 1.984-.449 2.911.679.928 1.984 1.129 2.911.45z"/><path d="m100.84 83.751s-4.493-5.246-5.529-13.187c-.548-4.205-.157-9.135 2.313-14.446.225-.439.052-.978-.387-1.203s-.978-.052-1.203.387c-3.132 5.572-3.932 10.913-3.687 15.534.484 9.148 5.225 15.501 5.225 15.501.714.901 2.025 1.054 2.927.34.902-.713 1.054-2.025.341-2.926z"/></svg>