<svg id="Robot-Artificial_Intelligence-Chip" height="512" viewBox="0 0 64 64" width="512" xmlns="http://www.w3.org/2000/svg" data-name="Robot-Artificial Intelligence-Chip"><path d="m27 54h7a1 1 0 0 0 .707-.293l3-3a1 1 0 0 0 .293-.707v-7a1 1 0 0 0 -1-1h-10a1 1 0 0 0 -1 1v10a1 1 0 0 0 1 1zm1-10h8v5.586l-2.411 2.414h-5.589z"/><path d="m44 45h6a1 1 0 0 0 .707-.293l3-3-1.414-1.414-2.707 2.707h-5.586z"/><path d="m50.707 51.293a1 1 0 0 0 -.707-.293h-6v2h5.586l2.707 2.707 1.414-1.414z"/><path d="m44 47h10v2h-10z"/><path d="m11.707 40.293-1.414 1.414 3 3a1 1 0 0 0 .707.293h6v-2h-5.586z"/><path d="m13.293 51.293-3 3 1.414 1.414 2.707-2.707h5.586v-2h-6a1 1 0 0 0 -.707.293z"/><path d="m10 47h10v2h-10z"/><path d="m56 41a3 3 0 1 0 -3-3 3 3 0 0 0 3 3zm0-4a1 1 0 1 1 -1 1 1 1 0 0 1 1-1z"/><path d="m59 45a3 3 0 1 0 3 3 3 3 0 0 0 -3-3zm0 4a1 1 0 1 1 1-1 1 1 0 0 1 -1 1z"/><path d="m56 55a3 3 0 1 0 3 3 3 3 0 0 0 -3-3zm0 4a1 1 0 1 1 1-1 1 1 0 0 1 -1 1z"/><path d="m8 41a3 3 0 1 0 -3-3 3 3 0 0 0 3 3zm0-4a1 1 0 1 1 -1 1 1 1 0 0 1 1-1z"/><path d="m8 48a3 3 0 1 0 -3 3 3 3 0 0 0 3-3zm-4 0a1 1 0 1 1 1 1 1 1 0 0 1 -1-1z"/><path d="m8 55a3 3 0 1 0 3 3 3 3 0 0 0 -3-3zm0 4a1 1 0 1 1 1-1 1 1 0 0 1 -1 1z"/><path d="m31 60h2v2h-2z"/><path d="m35 60h2v2h-2z"/><path d="m39 60h2v2h-2z"/><path d="m23 60h2v2h-2z"/><path d="m27 60h2v2h-2z"/><path d="m28 14h2v2h-2z"/><path d="m34 14h2v2h-2z"/><path d="m47 19v-.184a3 3 0 0 0 2-2.816h-2a1 1 0 0 1 -2 0h-2a3 3 0 0 0 2 2.816v.184a3 3 0 0 1 -3 3h-.7l-1.876-1.251a2.972 2.972 0 0 0 .576-1.749v-6a3 3 0 0 0 -3-3h-4v-2.184a3 3 0 1 0 -2 0v2.184h-4a3 3 0 0 0 -3 3v6a2.972 2.972 0 0 0 .573 1.749l-1.873 1.251h-.7a3 3 0 0 1 -3-3v-.184a3 3 0 0 0 2-2.816h-2a1 1 0 0 1 -2 0h-2a3 3 0 0 0 2 2.816v.184a5.006 5.006 0 0 0 5 5v7a1 1 0 0 0 .105.447l2 4a1 1 0 0 0 .895.553h6v2h-8a1 1 0 0 0 -1 1v18a1 1 0 0 0 1 1h18a1 1 0 0 0 1-1v-18a1 1 0 0 0 -1-1h-8v-2h6a1 1 0 0 0 .9-.553l2-4a1 1 0 0 0 .1-.447v-7a5.006 5.006 0 0 0 5-5zm-15-15a1 1 0 1 1 -1 1 1 1 0 0 1 1-1zm8 52h-16v-16h16zm-14-43a1 1 0 0 1 1-1h10a1 1 0 0 1 1 1v6a1 1 0 0 1 -1 1h-1v-2a1 1 0 0 0 -1-1h-6a1 1 0 0 0 -1 1v2h-1a1 1 0 0 1 -1-1zm8 7h-4v-1h4zm-7.7 2h11.4l2.3 1.535v6.465h-2.09a5.993 5.993 0 0 0 -11.82 0h-2.09v-6.465zm9.555 8h-7.713a3.981 3.981 0 0 1 7.716 0zm2.524 4h-12.761l-1-2h14.764z"/></svg>