<svg clip-rule="evenodd" fill-rule="evenodd" height="512" image-rendering="optimizeQuality" shape-rendering="geometricPrecision" text-rendering="geometricPrecision" viewBox="0 0 1.70666 1.70666" width="512" xmlns="http://www.w3.org/2000/svg"><g id="Layer_x0020_1"><path d="m.341346 1.68652c-.0287362 0-.0554646-.015378-.0697559-.040126l-.260748-.451626c-.0221457-.0383622-.00895669-.0875984.0294055-.109748l.45163-.260744c.0121457-.00701181.0259764-.0107205.0400039-.0107205.0287323 0 .0554606.015378.069752.040126l.260744.451626c.0221496.0383661.00895669.0875984-.0294055.109752l-.45163.260748c-.0121457.00700787-.0259764.0107126-.0399961.0107126zm.190531-.833882c-.00716929 0-.014248.00189764-.0204606.00548425l-.451622.260744c-.0197008.011374-.0264724.0366575-.0151024.0563583l.260744.451626c.00733071.0126969.0210906.0205866.0359055.0205866.00717323 0 .014248-.0018937.0204528-.00548425l.45163-.260748c.0197047-.011374.0264764-.0366575.0150984-.0563622l-.260744-.451626c-.00732677-.012689-.0210827-.0205787-.0359016-.0205787z"/><path d="m.36248 1.58219c-.0197126 0-.0380472-.0105551-.0478543-.0275472l-.202803-.35126c-.0152008-.0263346-.00614961-.060126.0201811-.0753228l.351268-.202807c.00834252-.00481496.0178386-.0073622.0274685-.0073622.0197087 0 .0380472.0105591.0478543.0275472l.202803.351264c.0152008.0263307.00614961.0601181-.0201811.0753228l-.351272.202807c-.00833858.00481496-.0178386.00735827-.0274646.00735827zm.14826-.625213c-.0028189 0-.00548819.00071654-.0079252.00212205l-.351268.202807c-.0036811.00212598-.00632283.00559055-.00744094.00975984-.00111417.00416929-.00056299.00849213.00156299.0121732l.202807.351264c.00285039.00494094.0082126.00800394.0140039.00800394.0028189 0 .00548425-.00071654.00792913-.00212205l.351268-.202807c.00766535-.00442913.0102992-.0142677.00587402-.0219331l-.202803-.351264c-.00285039-.00493307-.00821654-.00800394-.0140079-.00800394z"/><path d="m.387622 1.48321c-.0100118 0-.0185433-.00765354-.0194449-.017815l-.0312992-.352642c-.00095276-.010752.00699213-.0202402.0177402-.0211929.0107362-.00092913.0202362.00698819.0211929.0177362l.0312953.352642c.00095276.010752-.00698819.0202402-.0177362.0211929-.00058661.00005512-.00116929.00007874-.00174803.00007874z"/><path d="m.646079 1.33399c-.00387795 0-.00779528-.00115354-.0112087-.00355118l-.289752-.203421c-.00883071-.00620079-.0109646-.0183898-.00476378-.0272205.00620079-.00883465.0183898-.0109646.0272205-.00476378l.289752.203421c.00883465.00620079.0109685.0183898.00476378.0272205-.00380315.00541732-.00985827.00831496-.0160118.00831496z"/><path d="m.376555 1.35803c-.00675197 0-.0133228-.00350787-.0169449-.00977559-.00539764-.00934646-.00219291-.0212953.00715354-.0266929l.166713-.096252c.00934646-.00538583.0212992-.00219685.0266929.00715354.0053937.00934646.00219291.0212953-.00714961.0266929l-.166717.096252c-.00307087.00177559-.00643307.00262205-.00974803.00262205z"/><path d="m1.12243 1.36919c-.00331496 0-.00667323-.00084646-.00975197-.00262205-.00934646-.00539764-.0125472-.0173465-.00714961-.0266929l.160063-.277232c.0053937-.00934646.0173425-.0125433.0266929-.00715354.00934646.00539764.0125472.0173465.00714961.0266929l-.160059.277232c-.00361811.00627165-.010189.00977559-.0169449.00977559z"/><path d="m1.22882 1.41859c-.00000394 0-.00000394 0-.00000787 0-.0170276 0-.0338228-.0045-.048563-.0130118l-.0675748-.0390157c-.00935039-.0053937-.0125512-.0173465-.00715354-.0266929l.0797835-.138177.00024803-.00043701v-.00000394l.0800276-.138622c.00259449-.00448819.00685827-.00776378.0118701-.0091063.00499606-.00133858.0103386-.0006378.0148268.00195669l.0675748.0390118c.0465906.0269016.0626142.086689.0357165.133287l-.00201575.00348031c-.0153661.0266142-.0425984.0442992-.0728819.0479921.00179528.00422835.00330315.00861417.00451575.0131339.00676378.0252323.00333465.0515157-.00965354.0740157l-.00199606.00346457c-.0173543.0300512-.0498189.0487244-.0847165.0487244zm.0314567-.151634-.0506496-.0292402-.0604882.104768.0506535.0292441c.00881102.00508661.0188425.00777559.0290236.00777559h.00000394c.0209803 0 .0404724-.0111811.0508622-.0291811l.00199213-.00346457c.00777953-.0134685.0098189-.0292165.00575984-.0443661-.00398425-.0148858-.0133661-.0273386-.0264646-.0351339l-.00006299-.00003543-.00062992-.00036221v-.00000394zm-.0311024-.0630866.0506496.0292441c.00880709.00508661.0188425.00777559.0290157.00777559.0209882 0 .0404803-.011185.050874-.029185l.00201181-.00347638c.0161102-.0279134.00651181-.0637559-.0214173-.079878l-.0506496-.029248-.0604843.104768z"/><path d="m1.36531 1.68652c-.0140236 0-.0278543-.00370866-.0399961-.0107165l-.45163-.260748c-.0383622-.0221535-.0515551-.0713858-.0294055-.109752l.260748-.451622c.0142913-.0247559.0410197-.040126.069752-.040126.0140236 0 .0278504.00370472.0399961.0107126l.451626.260752c.0383622.0221496.0515591.0713819.0294094.109748l-.260744.451622c-.0142913.0247559-.0410197.0401299-.0697559.0401299zm-.190535-.833882c-.014815 0-.0285709.00788976-.0359016.0205866l-.260744.451626c-.011378.0197008-.00460236.0449882.0150984.0563622l.45163.260748c.0062126.00359055.0132835.00548425.0204528.00548425.0148189 0 .0285748-.00788976.0359055-.0205866l.260748-.451626c.0113701-.0197008.00459449-.0449843-.0151063-.0563583l-.451626-.260752c-.00620866-.00358661-.0132835-.00548425-.0204567-.00548425z"/><path d="m1.34418 1.58219c-.00962992 0-.019126-.00254331-.0274685-.00735827l-.351272-.202807c-.0263268-.0152047-.0353819-.0489921-.0201811-.0753268l.202807-.351264c.00980709-.0169882.0281457-.0275433.0478504-.0275433.00963386 0 .0191299.00254331.0274724.0073622l.351268.202807c.0263307.0151969.0353819.0489843.0201811.0753189l-.202807.351268c-.00980315.0169882-.0281378.0275433-.0478504.0275433zm-.14826-.625213c-.0057874 0-.0111535.00306693-.0140039.008l-.202807.351268c-.00442913.00766535-.00179134.0175039.00587795.0219331l.351268.202807c.00244094.00140945.0051063.00212205.00792913.00212205.0057874 0 .0111535-.00306299.0140039-.00800394l.202807-.351268c.00212205-.00367717.00267717-.008.00155906-.0121693-.00111811-.00416929-.00375591-.00763386-.00743307-.00975984l-.351272-.202807c-.00244488-.00140551-.00511024-.00212205-.00792913-.00212205z"/><path d="m.939654.624232c-.062122 0-.122614-.0322087-.155843-.0897638-.0495157-.0857677-.0200236-.195827.0657402-.245343.0410512-.0237008.0889409-.0302008.134858-.0183071.0104449.00270866.0167205.013374.0140118.0238189-.00270866.0104488-.0133701.0167205-.0238189.0140157-.0359173-.00931102-.0733858-.00422441-.105508.0143189-.0671024.0387441-.0901772.124854-.0514331.191953.0387402.0671024.12485.0901811.191949.0514331.032122-.0185433.0552638-.0484488.0651575-.0842047.00287402-.0103976.0136142-.0165.0240472-.013626.0103976.00288189.0164961.0136457.0136181.0240472-.0126457.0457008-.0422244.0839291-.0832756.10763-.0282126.0162913-.0590551.0240276-.0895039.0240276z"/><path d="m.823374.893106c-.0287362 0-.0554606-.015378-.069748-.040126l-.260748-.451626c-.0221496-.0383661-.00895669-.0875984.0294055-.109748l.451626-.260744c.0121457-.00701181.0259843-.0107205.0400039-.0107205.0287283 0 .0554567.015378.069748.040126l.260748.451626c.0106929.0185276.0135236.0401732.00795669.0609449-.00556693.0207795-.0188346.0381063-.0373661.0488031l-.45163.260748c-.0121417.00701181-.0259685.0107165-.0399961.0107165zm.190543-.833878c-.00717323 0-.014252.0018937-.0204606.00548425l-.45163.260744c-.0197008.011374-.0264724.0366535-.0150984.0563583l.260748.451626c.00732677.0126969.0210866.0205866.0358976.0205866.00717323 0 .014248-.00189764.0204567-.00548031l.45163-.260748c.00948819-.00547638.0162874-.014378.0191535-.0250669.00286614-.0106929.00142913-.0218031-.00405512-.0312953l-.260744-.451626c-.00733071-.0126969-.0210866-.0205827-.0358976-.0205827z"/><path d="m.844516.788776c-.0197087 0-.0380472-.0105551-.0478543-.0275472l-.202807-.351264c-.00734252-.0127244-.0092874-.0275748-.00546457-.0418268.00381496-.014252.0129291-.0261496.0256496-.0334921l.351268-.202807c.00833858-.00481102.0178386-.00735827.0274685-.00735827.0197126 0 .0380472.0105512.0478543.0275433l.202807.351264c.0151969.0263307.00614567.060122-.0201772.0753228l-.351272.202807c-.00834646.00481102-.0178425.00735827-.0274724.00735827zm.148256-.625213c-.0028189 0-.00548425.0007126-.0079252.00212598l-.351268.202807c-.0036811.00212205-.00632283.00558661-.00744094.00975591-.00111811.00416929-.00056299.00849606.00155906.0121772l.202807.351264c.00285039.00493701.00821654.008.0140079.008.0028189 0 .00548819-.0007126.00793307-.00212205l.351264-.202803c.00766535-.00442913.0103031-.0142677.00587402-.021937l-.202807-.351268c-.00284646-.00493307-.00820866-.008-.0140039-.008z"/><path d="m.727551 1.31624-.202803-.351264c-.00285039-.00493307-.00821654-.00800394-.0140079-.00800394-.0028189 0-.00548819.00071654-.0079252.00212205l-.351268.202807c-.0036811.00212598-.00632283.00559055-.00744094.00975984-.00111417.00416929-.00056299.00849213.00156299.0121732l.202807.351264c.00285039.00494094.0082126.00800394.0140039.00800394.0028189 0 .00548425-.00071654.00792913-.00212205l.351268-.202807c.00766535-.00442913.0102992-.0142677.00587402-.0219331zm-.172606-.0896654.102382.071878c.00883465.00620079.0109685.0183898.00476378.0272205-.00380315.00541732-.00985827.00831496-.0160118.00831496-.00387795 0-.00779528-.00115354-.0112087-.00355118l-.0926496-.0650433-.145122.0837835.0100079.11276c.00095276.010752-.00698819.0202402-.0177362.0211929l-.00174803.00007874c-.0100118 0-.0185433-.00765354-.0194449-.017815l-.0110748-.124803c-.00002756-.00023228-.00004724-.0004685-.00006693-.00070472l-.0201575-.227134c-.0004252-.00478346.00091339-.00931496.00347638-.0129567.00042913-.00061811.00089764-.00120866.00139764-.00177165.00127165-.00142913.00271654-.00263386.00428346-.0036063.00025197-.00015748.00050787-.00030709.00077165-.00045276.00226772-.00127165.00482677-.0021063.0075748-.00238189.00007874-.00000787.00015748-.00001575.00023622-.00002362.00443307-.00039764.00902756.0007126.0129567.00347244l.186413.130874c.00032284.0002126.00064173.00043701.00095669.00066929z" fill="#fff"/><path d="m.483272.925248c.00834252-.00481496.0178386-.0073622.0274685-.0073622.0197087 0 .0380472.0105591.0478543.0275472l.202803.351264c.0152008.0263307.00614961.0601181-.0201811.0753228l-.351272.202807c-.00833858.00481496-.0178386.00735827-.0274646.00735827-.0197126 0-.0380472-.0105551-.0478543-.0275472l-.202803-.35126c-.0152008-.0263346-.00614961-.060126.0201811-.0753228l.351268-.202807zm-.177835.701602c.00733071.0126969.0210906.0205866.0359055.0205866.00717323 0 .014248-.0018937.0204528-.00548425l.45163-.260748c.0115945-.00669291.0187087-.0181969.0202874-.0305512-.00023228-.00349213-.00023622-.00701181-.00000787-.0105276-.00067717-.00524016-.00237795-.0104291-.0051811-.0152835l-.260744-.451626c-.00732677-.012689-.0210827-.0205787-.0359016-.0205787-.00716929 0-.014248.00189764-.0204606.00548425l-.451622.260744c-.0197008.011374-.0264724.0366575-.0151024.0563583l.260744.451626z" fill="#b696ef"/><g fill="#fff"><path d="m.506945 1.24063-.127417-.08946.013763.15508z"/><path d="m1.20963 1.23772-.0604882.104772.0506535.0292441c.0277953.0160472.0638661.00640945.0798898-.0214055.00888189-.0154213.0126063-.0297126.00775197-.0478307-.00401181-.0149803-.0134921-.0274961-.0267244-.0352835-.00014567-.00008268-.0002874-.00016535-.00043307-.00025197l-.0506496-.0292441z"/><path d="m1.32069 1.27926c.0116299.0272953.0107638.0595512-.00514961.0871496-.0186496.0323386-.0489134.052189-.0867126.052189-.0170354 0-.0338228-.00449606-.0485709-.0130118l-.0675748-.0390157c-.00935039-.0053937-.0125512-.0173465-.00715354-.0266969l.0800315-.138614.0800315-.138618c.00072835-.00125984.0015748-.00240945.00251969-.00344094.00096457-.00105512.0020315-.00198819.00317717-.0027874.00188189-.00132283.00397638-.0022874.00616929-.00288189.00246457-.00066142.00501575-.00082284.00750394-.00050787.00149606.00018504.00298819.00055118.00444094.00109843.00098032.00037008.00194488.00082677.00288189.00136614l.0675748.0390118c.0465906.0269016.0626142.086689.0357165.133287l-.00201575.00348031c-.0153661.0266102-.0425906.0442992-.0728701.0479921zm.0235.263846c.0057874 0 .0111535-.00306299.0140039-.00800394l.202807-.351268c.00212205-.00367717.00267717-.008.00155906-.0121693-.00111811-.00416929-.00375591-.00763386-.00743307-.00975984l-.351272-.202807c-.00244488-.00140551-.00511024-.00212205-.00792913-.00212205-.0057874 0-.0111535.00306693-.0140039.008l-.202807.351268c-.00442913.00766535-.00179134.0175039.00587795.0219331l.351268.202807c.00244094.00140945.0051063.00212205.00792913.00212205z"/></g><path d="m1.22339.925248.351268.202807c.0263307.0151969.0353819.0489843.0201811.0753189l-.202807.351268c-.00980315.0169882-.0281378.0275433-.0478504.0275433-.00962992 0-.019126-.00254331-.0274685-.00735827l-.351272-.202807c-.0263268-.0152047-.0353819-.0489921-.0201811-.0753268l.202807-.351264c.00980709-.0169882.0281457-.0275433.0478504-.0275433.00963386 0 .0191299.00254331.0274724.0073622zm.121472.716713c.0062126.00359055.0132835.00548425.0204528.00548425.0148189 0 .0285748-.00788976.0359055-.0205866l.260748-.451626c.0113701-.0197008.00459449-.0449843-.0151063-.0563583l-.451626-.260752c-.00620866-.00358661-.0132835-.00548425-.0204567-.00548425-.014815 0-.0285709.00788976-.0359016.0205866l-.260744.451626c-.00279921.00484646-.0045.0100315-.00517717.0152638.00022835.00352756.00022441.00705512-.00000787.0105591.00158268.0123504.00869685.0238504.0202835.0305394l.45163.260748z" fill="#a6e7f0"/><path d="m.817661.514925c.0387402.0671024.12485.0901811.191949.0514331.032122-.0185433.0552638-.0484488.0651575-.0842047.00287402-.0103976.0136142-.0165.0240472-.013626.0103976.00288189.0164961.0136457.0136181.0240472-.0126457.0457008-.0422244.0839291-.0832756.10763-.0282126.0162913-.0590551.0240276-.0895039.0240276-.062122 0-.122614-.0322087-.155843-.0897638-.0495157-.0857677-.0200236-.195827.0657402-.245343.0410512-.0237008.0889409-.0302008.134858-.0183071.0104449.00270866.0167205.013374.0140118.0238189-.00270866.0104488-.0133701.0167205-.0238189.0140157-.0359173-.00931102-.0733858-.00422441-.105508.0143189-.0671024.0387441-.0901772.124854-.0514331.191953zm.0347835.232646.351264-.202803c.00766535-.00442913.0103031-.0142677.00587402-.021937l-.202807-.351268c-.00284646-.00493307-.00820866-.008-.0140039-.008-.0028189 0-.00548425.0007126-.0079252.00212598l-.351268.202807c-.0036811.00212205-.00632283.00558661-.00744094.00975591-.00111811.00416929-.00056299.00849606.00155906.0121772l.202807.351264c.00285039.00493701.00821654.008.0140079.008.0028189 0 .00548819-.0007126.00793307-.00212205z" fill="#fff"/><path d="m1.22326.57861-.351272.202807c-.00834646.00481102-.0178425.00735827-.0274724.00735827-.0197087 0-.0380472-.0105551-.0478543-.0275472l-.202807-.351264c-.00734252-.0127244-.0092874-.0275748-.00546457-.0418268.00381496-.014252.0129291-.0261496.0256496-.0334921l.351268-.202807c.00833858-.00481102.0178386-.00735827.0274685-.00735827.0197126 0 .0380472.0105512.0478543.0275433l.202807.351264c.0151969.0263307.00614567.060122-.0201772.0753228zm-.435783.254831c.00732677.0126969.0210866.0205866.0358976.0205866.00717323 0 .014248-.00189764.0204567-.00548031l.45163-.260748c.00948819-.00547638.0162874-.014378.0191535-.0250669.00286614-.0106929.00142913-.0218031-.00405512-.0312953l-.260744-.451626c-.00733071-.0126969-.0210866-.0205827-.0358976-.0205827-.00717323 0-.014252.0018937-.0204606.00548425l-.45163.260744c-.0197008.011374-.0264724.0366535-.0150984.0563583l.260748.451626z" fill="#ecb4f6"/><path d="m1.28966 1.09911-.0604843.104768.0506496.0292441c.0278268.0160669.0638268.00637795.0798898-.0214094l.00201181-.00347638c.0161102-.0279134.00651181-.0637559-.0214173-.079878l-.0506496-.029248z" fill="#fff"/></g></svg>