<?xml version="1.0"?>
<svg xmlns="http://www.w3.org/2000/svg" id="Layer_1" data-name="Layer 1" viewBox="0 0 128 128" width="512" height="512"><title>iStar_Design_Animals_LineIcons_Outlined-50</title><path d="M121.22,73.24a10.11,10.11,0,0,0-8.28-1.6,9.44,9.44,0,0,0-6.21,4.88c-1.66,3.28-.28,5.42.39,6.18A3.82,3.82,0,0,0,111,84.09a1.81,1.81,0,0,0,1.23-1.7,3.05,3.05,0,0,1,.36-1.66,3.41,3.41,0,0,1,3.2-1.33,3.16,3.16,0,0,1,1.48.61,5.12,5.12,0,0,1,1,7.34c-2.8,3.55-8,2.1-10.8.92A8.85,8.85,0,0,1,101.67,81c-.59-3.89,2.93-7.08,6.34-10.16,2.56-2.3,5-4.48,5.92-7a12.91,12.91,0,0,0,.13-9.35,12.19,12.19,0,0,0-6.54-6.76C103.76,46,98.82,47,97,49.84a6.61,6.61,0,0,0-1.28,5.4,5.47,5.47,0,0,0,2.63,3.25,1,1,0,0,0,.88,0,1,1,0,0,0,.54-.69,12.81,12.81,0,0,1,.52-1.81,3.44,3.44,0,0,1,2.82-2,3.19,3.19,0,0,1,1.58.27,5.06,5.06,0,0,1,3,3.69,5.16,5.16,0,0,1-.4,3.24C105.32,65.24,100,65,96.94,64.5s-6.29-3-8.76-6.76A12.08,12.08,0,0,1,86,51.15a1.22,1.22,0,0,0-.06-.26,27.71,27.71,0,1,0-43.93,0,.86.86,0,0,0-.05.23,12.08,12.08,0,0,1-2.16,6.59c-2.47,3.73-5.75,6.26-8.76,6.76s-8.38.74-10.3-3.35a5.1,5.1,0,0,1,2.58-6.93A3.38,3.38,0,0,1,24.93,54a3.44,3.44,0,0,1,2.82,2,12.81,12.81,0,0,1,.52,1.81,1,1,0,0,0,.54.69,1,1,0,0,0,.88,0,5.47,5.47,0,0,0,2.63-3.25A6.61,6.61,0,0,0,31,49.84c-1.86-2.8-6.8-3.83-10.56-2.2a12.19,12.19,0,0,0-6.54,6.76,12.91,12.91,0,0,0,.13,9.35c.95,2.57,3.36,4.75,5.92,7,3.41,3.08,6.93,6.27,6.34,10.16a8.83,8.83,0,0,1-5.71,7.31c-2.83,1.18-8,2.63-10.8-.92a5.12,5.12,0,0,1,1-7.34,3.16,3.16,0,0,1,1.48-.61,3.4,3.4,0,0,1,3.2,1.33,3.05,3.05,0,0,1,.36,1.66,1.8,1.8,0,0,0,1.23,1.7,3.82,3.82,0,0,0,3.83-1.39c.67-.76,2.05-2.9.39-6.18a9.47,9.47,0,0,0-6.21-4.88,10.12,10.12,0,0,0-8.28,1.6C4.33,75,2.2,76.75,1.09,80.36a14.52,14.52,0,0,0,.5,9.55C5.25,99.17,14,98.56,20.26,97.29c2.67-.54,8.58-.77,11.87,2.23,1.77,1.62,2.51,4,2.17,7.1-.41,3.82-4.68,6.7-7.33,6.93-2.3.2-6.36.08-7.64-3a3.85,3.85,0,0,1-.17-2.6,3.81,3.81,0,0,1,2.43-2.55,2.43,2.43,0,0,1,3.11,1.52,1.16,1.16,0,0,0,1,.78,2.33,2.33,0,0,0,2-1.22,4.14,4.14,0,0,0-.3-4.57c-1.47-2.37-4.74-3.33-7.79-2.27a9.9,9.9,0,0,0-6.14,12.6,14.48,14.48,0,0,0,12.64,9.48q.7.06,1.47.06c.63,0,1.29,0,2-.09,4-.35,8.21-3,11.63-7.31A70.7,70.7,0,0,1,46,108.89a25.16,25.16,0,0,1,35.92,0c1.64,1.68,3.27,3.53,4.84,5.49,3.42,4.3,7.66,7,11.63,7.31a19.17,19.17,0,0,0,3.46,0,14.48,14.48,0,0,0,12.64-9.48,9.9,9.9,0,0,0-6.14-12.6c-3-1-6.32-.1-7.79,2.27a4.14,4.14,0,0,0-.3,4.57,2.3,2.3,0,0,0,2,1.22,1.16,1.16,0,0,0,1-.78,2.43,2.43,0,0,1,3.11-1.52,3.81,3.81,0,0,1,2.43,2.55,3.85,3.85,0,0,1-.17,2.6c-1.28,3.08-5.34,3.2-7.65,3-2.64-.23-6.91-3.11-7.32-6.93-.34-3.09.39-5.48,2.17-7.1,3.29-3,9.2-2.77,11.87-2.23,6.26,1.27,15,1.88,18.67-7.38a14.52,14.52,0,0,0,.5-9.55C125.8,76.75,123.68,75,121.22,73.24Zm3.33,15.93c-2.4,6.07-7.47,8-16.42,6.16-3.23-.66-9.73-.82-13.61,2.71-2.27,2.08-3.22,5-2.81,8.79.52,4.88,5.76,8.42,9.14,8.71,4.93.44,8.36-1.06,9.67-4.23a5.89,5.89,0,0,0,.23-3.94,5.77,5.77,0,0,0-3.69-3.86,4.45,4.45,0,0,0-5.15,1.74.84.84,0,0,1-.08-.19,2.62,2.62,0,0,1,.47-2.1c1-1.55,3.3-2.17,5.44-1.43a7.91,7.91,0,0,1,4.9,10.06,12.66,12.66,0,0,1-10.93,8.14,18.11,18.11,0,0,1-3.11,0c-3.42-.3-7.15-2.69-10.24-6.56a73,73,0,0,0-5-5.65A26.94,26.94,0,0,0,64,99.35h0a26.94,26.94,0,0,0-19.38,8.14,70.91,70.91,0,0,0-5,5.65c-3.09,3.87-6.82,6.26-10.24,6.56a18.11,18.11,0,0,1-3.11,0,12.66,12.66,0,0,1-10.93-8.14,7.91,7.91,0,0,1,4.9-10.06c2.14-.74,4.48-.12,5.44,1.43a2.62,2.62,0,0,1,.47,2.1.84.84,0,0,1-.08.19,4.45,4.45,0,0,0-5.15-1.74,5.77,5.77,0,0,0-3.69,3.86,5.89,5.89,0,0,0,.23,3.94c1.31,3.17,4.75,4.67,9.67,4.23,3.38-.29,8.62-3.83,9.14-8.71.41-3.76-.54-6.71-2.81-8.79-3.88-3.53-10.38-3.37-13.61-2.71-9,1.81-14-.09-16.42-6.16A12.31,12.31,0,0,1,3,81c.94-3,2.64-4.43,4.94-6.08a8,8,0,0,1,6.64-1.28,7.3,7.3,0,0,1,4.9,3.84c1.1,2.16.37,3.44-.16,4a2.3,2.3,0,0,1-1.51.78,4.57,4.57,0,0,0-.74-2.67A5.36,5.36,0,0,0,12,77.41a5.31,5.31,0,0,0-2.42,1,7.08,7.08,0,0,0-2.9,5.93,7.21,7.21,0,0,0,1.56,4.26c3.62,4.58,9.79,2.92,13.14,1.53a10.82,10.82,0,0,0,6.91-8.86c.76-5-3.35-8.67-7-11.94-2.37-2.14-4.6-4.15-5.39-6.26a11,11,0,0,1-.14-7.93,10.24,10.24,0,0,1,5.47-5.65c2.85-1.24,6.79-.52,8.11,1.47a4.8,4.8,0,0,1,1,3.76,3,3,0,0,1-.58,1.12c-.08-.22-.15-.44-.24-.64A5.34,5.34,0,0,0,25.13,52a5.18,5.18,0,0,0-2.57.41,7.06,7.06,0,0,0-4.17,5.11A7.15,7.15,0,0,0,19,62c2.48,5.28,8.86,5.07,12.44,4.47s7.32-3.44,10.1-7.62a14.44,14.44,0,0,0,2.31-5.73,13.17,13.17,0,0,1,1.36,2.32,5.79,5.79,0,0,1-.86,6A25.44,25.44,0,0,0,41,66.8a1,1,0,0,0-.28.42,9.31,9.31,0,0,0-.38,2.61,9.15,9.15,0,0,0,6.95,8.89,1,1,0,0,0,.24,0,1,1,0,0,0,1-.72,9.26,9.26,0,0,0,.38-2.61,9.15,9.15,0,0,0-5.72-8.48,24.49,24.49,0,0,1,2.7-4.23A7.79,7.79,0,0,0,47,54.6a15.68,15.68,0,0,0-2.4-3.72A25.79,25.79,0,0,1,62.31,8.27a25.46,25.46,0,0,1,19.26,6.9,25.8,25.8,0,0,1,2,35.56,16.64,16.64,0,0,0-2.49,3.91,7.83,7.83,0,0,0,1.13,8.14,23.15,23.15,0,0,1,2.66,4.16,9.15,9.15,0,0,0-5.72,8.48A9.26,9.26,0,0,0,79.51,78a1,1,0,0,0,1,.72,1,1,0,0,0,.24,0,9.15,9.15,0,0,0,6.57-11.49A1,1,0,0,0,87,66.8a25.55,25.55,0,0,0-3.24-5.27,5.84,5.84,0,0,1-.88-6.07,14.53,14.53,0,0,1,1.33-2.29,14.42,14.42,0,0,0,2.3,5.68c2.78,4.18,6.55,7,10.1,7.62s10,.81,12.44-4.47a7.11,7.11,0,0,0-3.61-9.62,5.07,5.07,0,0,0-2.57-.41,5.34,5.34,0,0,0-4.45,3.22c-.09.2-.16.42-.24.64a3.09,3.09,0,0,1-.57-1.1,4.73,4.73,0,0,1,1-3.78c1.32-2,5.26-2.71,8.11-1.47a10.24,10.24,0,0,1,5.47,5.65,11,11,0,0,1-.14,7.93c-.79,2.11-3,4.12-5.39,6.26-3.62,3.27-7.73,7-7,11.94a10.82,10.82,0,0,0,6.91,8.86c3.35,1.39,9.52,3,13.14-1.53a7.21,7.21,0,0,0,1.56-4.26,7.06,7.06,0,0,0-2.91-5.93,5.27,5.27,0,0,0-2.41-1,5.38,5.38,0,0,0-5.06,2.13,4.6,4.6,0,0,0-.74,2.68,2.26,2.26,0,0,1-1.51-.78c-.53-.57-1.26-1.85-.17-4a7.38,7.38,0,0,1,4.91-3.85,8.13,8.13,0,0,1,6.64,1.29c2.3,1.65,4,3,4.94,6.08A12.31,12.31,0,0,1,124.55,89.17ZM42.42,68.8a7.11,7.11,0,0,1,4.37,7.66,7.11,7.11,0,0,1-4.37-7.66Zm43.24,1a7.15,7.15,0,0,1-4.45,6.63,7.28,7.28,0,0,1-.08-1,7.14,7.14,0,0,1,4.45-6.62A7.15,7.15,0,0,1,85.66,69.83Z"/><path d="M63.45,12.79c-.69,0-1.37,0-2.05.1a1,1,0,0,0,.09,2h.09c.62-.06,1.25-.09,1.87-.09a1,1,0,0,0,0-2Z"/><path d="M56.74,13.86c-8,2.64-13.44,9.77-13.44,17.73a1,1,0,0,0,2,0c0-7.09,4.85-13.46,12.07-15.83a1,1,0,0,0-.63-1.9Z"/><path d="M79.13,20.22a1,1,0,0,0,.71.29,1,1,0,0,0,.7-.29.77.77,0,0,0,.22-.32,1,1,0,0,0,.08-.38,1,1,0,0,0-.3-.71,1,1,0,0,0-1.7.71,1,1,0,0,0,.07.38A1.21,1.21,0,0,0,79.13,20.22Z"/><path d="M71.43,21.73a1,1,0,0,0-.3.7,1,1,0,0,0,.3.71.83.83,0,0,0,.33.22,1,1,0,0,0,.37.08,1,1,0,0,0,.71-1.71A1,1,0,0,0,71.43,21.73Z"/><path d="M78.2,28.47a1,1,0,0,0,.38.08,1,1,0,0,0,.7-.29,1,1,0,0,0,.3-.71,1.22,1.22,0,0,0-.07-.38,1.09,1.09,0,0,0-.23-.33.61.61,0,0,0-.15-.12.65.65,0,0,0-.16-.09.76.76,0,0,0-.2-.06.86.86,0,0,0-.39,0,.64.64,0,0,0-.18.06.76.76,0,0,0-.18.09l-.15.12a1.24,1.24,0,0,0-.21.33,1,1,0,0,0,.21,1.09A1,1,0,0,0,78.2,28.47Z"/><path d="M82.68,31a1,1,0,0,0,1.09.22A1.06,1.06,0,0,0,84.1,31a1.11,1.11,0,0,0,.21-.32,1,1,0,0,0,.08-.39,1,1,0,0,0-.29-.7,1,1,0,0,0-1.42,0,1,1,0,0,0-.21.32,1,1,0,0,0,0,.77A1.11,1.11,0,0,0,82.68,31Z"/><path d="M77,34.88a.64.64,0,0,0-.13.15.91.91,0,0,0-.09.17l-.06.19a1.23,1.23,0,0,0,0,.19,1,1,0,0,0,.3.71.87.87,0,0,0,.32.22,1,1,0,0,0,.39.08,1,1,0,0,0,.38-.08.87.87,0,0,0,.32-.22,1,1,0,0,0,.29-.71,1,1,0,0,0-.29-.7A1,1,0,0,0,77,34.88Z"/></svg>
