<svg height="512" viewBox="0 0 275.2 269.33" width="512" xmlns="http://www.w3.org/2000/svg" xmlns:xlink="http://www.w3.org/1999/xlink"><linearGradient id="linear-gradient" gradientUnits="userSpaceOnUse" x2="275.2" y1="134.66" y2="134.66"><stop offset="0" stop-color="#2fc8ec"/><stop offset=".91" stop-color="#047bfd"/><stop offset="1" stop-color="#0073ff"/></linearGradient><g id="Layer_2" data-name="Layer 2"><g id="Layer_1-2" data-name="Layer 1"><path id="Alphabet" d="m57.88 244.12h29.19c19-.21 22.92-26.83 4.94-32.51 7.39-10.5-.94-26.24-13.91-25.86h-20.22a4.17 4.17 0 0 0 -4.17 4.17v50a4.17 4.17 0 0 0 4.17 4.2zm37.53-16.68a8.35 8.35 0 0 1 -8.34 8.35h-25v-16.67h16c7.22.12 16.61-1.79 17.34 8.32zm-33.36-33.35h16a8.34 8.34 0 0 1 0 16.68h-16zm213.09-58.59a4.27 4.27 0 0 0 -1.16-2.69l-23.31-23.31a4.19 4.19 0 0 0 -3-1.24h-61.35l-28.25-90.07a6.75 6.75 0 0 0 -.92-1.55 4.16 4.16 0 0 0 -1.13-.9l-29.2-15.26a4.15 4.15 0 0 0 -3.18-.29l-95.83 30.06a4.27 4.27 0 0 0 -2.73 5.21l30.05 95.84a4.23 4.23 0 0 0 2 2.46l6.7 3.49c-.17 0-59.73-.07-59.88 0a4.23 4.23 0 0 0 -4 4.12v100.48a4.1 4.1 0 0 0 1.23 3l23.29 23.29a4.23 4.23 0 0 0 2.95 1.24h100.48a4.18 4.18 0 0 0 4.17-4.19v-100.47a4.84 4.84 0 0 0 -1.22-2.95l-19.36-19.36 31.63-9.91v80.38a4.11 4.11 0 0 0 1.23 2.94l23.29 23.31a4.33 4.33 0 0 0 3 1.21h100.36a4.16 4.16 0 0 0 4.17-4.16c-.03-.25.11-100.47-.03-100.68zm-14.14-3.93h-88.69c-1.37-1.36-4.86-4.86-6.27-6.27l19.35-6.06a3.86 3.86 0 0 0 2.63-2.63h58zm-169.9 8.51-27.61-87.85 87.87-27.56 27.56 87.85zm33.38-131.42 18.76 9.82-84.57 26.52-18.76-9.8zm-88.43 33.93 18.76 9.79 26.51 84.62-18.74-9.79zm-27.71 108.9c1.53 1.53 13.81 13.79 15 15v88.64l-15-15zm115.39 109.51h-92.09v-92.1h92.09zm-20.85-115.4 15 15h-88.69l-14.95-15h65.6c1.42.57 7 4.08 8.48 3.88 2.01.05 12.53-4.34 14.56-3.88zm48.59-15.72 5.6-1.77 9.35 9.37v88.63l-14.95-15zm115.39 102.12h-92.1v-92.09h92.1zm-71.08-46c-.32-27.14 33.43-40 49.26-17.71 3.17 4.43-3.57 9.26-6.77 4.87a18.47 18.47 0 0 0 -15-8c-25.19.69-25.19 41 0 41.7 14 0 14.3-13.08 20.85-9a4.17 4.17 0 0 1 .95 5.82 26.7 26.7 0 0 1 -21.8 11.48c-15.17-.01-27.49-13.11-27.49-29.16zm-83-131.55a4.16 4.16 0 0 0 -2.78 3.55s-2.75 34.37-2.76 34.38l-1.56 19.42c-.43 5.42 7.84 6.09 8.3.67l1.34-16.57 20.15-6.32 11 12.79c3.56 4.11 9.87-1.27 6.33-5.44l-35.47-41.3a4.18 4.18 0 0 0 -4.51-1.22zm16.7 28.32-13.48 4.23 1.47-18.29z" fill="url(#linear-gradient)"/></g></g></svg>