<svg id="Layer_1" enable-background="new 0 0 450 450" viewBox="0 0 450 450" xmlns="http://www.w3.org/2000/svg"><g><g><path d="m405.67 445.78h-360.82c-2.76 0-5-2.24-5-5v-140.89c0-39.59 32.21-71.79 71.79-71.79h49.69c2.76 0 5 2.24 5 5s-2.24 5-5 5h-49.69c-34.07 0-61.79 27.72-61.79 61.79v135.89h350.82v-135.89c0-34.07-27.72-61.79-61.79-61.79h-49.69c-2.76 0-5-2.24-5-5s2.24-5 5-5h49.69c39.59 0 71.79 32.21 71.79 71.79v140.89c0 2.76-2.24 5-5 5z"/></g><g><path d="m225.26 256.47c-54.89 0-103.59-36.07-119.76-88.17h-15.54c-11.89 0-21.56-9.67-21.56-21.56v-31.3c0-11.89 9.67-21.56 21.56-21.56h15.54c16.17-52.11 64.87-88.18 119.76-88.18s103.59 36.07 119.76 88.17h15.54c11.89 0 21.56 9.67 21.56 21.56v31.3c0 11.89-9.67 21.56-21.56 21.56h-15.54c-16.17 52.11-64.87 88.18-119.76 88.18zm-135.3-152.6c-6.38 0-11.56 5.19-11.56 11.56v31.3c0 6.38 5.19 11.56 11.56 11.56h19.28c2.25 0 4.22 1.5 4.82 3.66 13.79 49.76 59.51 84.51 111.2 84.51s97.41-34.75 111.2-84.51c.6-2.17 2.57-3.66 4.82-3.66h19.28c6.38 0 11.56-5.19 11.56-11.56v-31.3c0-6.38-5.19-11.56-11.56-11.56h-19.28c-2.25 0-4.22-1.5-4.82-3.67-13.79-49.76-59.51-84.51-111.2-84.51s-97.41 34.75-111.2 84.51c-.6 2.17-2.57 3.67-4.82 3.67z"/></g><g><path d="m225.26 225.45c-52.04 0-94.37-42.33-94.37-94.37s42.33-94.37 94.37-94.37 94.37 42.33 94.37 94.37-42.33 94.37-94.37 94.37zm0-178.74c-46.52 0-84.37 37.85-84.37 84.37s37.85 84.37 84.37 84.37 84.37-37.85 84.37-84.37-37.85-84.37-84.37-84.37z"/></g><g><path d="m356.16 445.78c-1.55 0-3.08-.72-4.05-2.07-39.56-54.68-43.27-109.61-39.4-146.06 4.18-39.48 17.57-65.75 18.14-66.85 1.27-2.45 4.28-3.41 6.74-2.15 2.45 1.27 3.41 4.28 2.15 6.73-.13.26-13.2 25.99-17.12 63.71-3.6 34.61 0 86.78 37.6 138.75 1.62 2.24 1.12 5.36-1.12 6.98-.9.65-1.92.96-2.94.96z"/></g><g><path d="m94.36 445.78c-1.02 0-2.04-.31-2.93-.95-2.24-1.62-2.74-4.74-1.12-6.98 37.6-51.97 41.2-104.14 37.6-138.75-3.92-37.72-16.99-63.45-17.12-63.71-1.26-2.45-.3-5.47 2.15-6.73 2.45-1.27 5.46-.31 6.73 2.15.57 1.1 13.96 27.37 18.14 66.85 3.86 36.45.16 91.38-39.4 146.06-.98 1.34-2.5 2.06-4.05 2.06z"/></g><g><path d="m225.26 309.97c-29.49 0-56.67-8.34-80.65-15.7-5.23-1.6-10.17-3.12-14.95-4.49-1.85-.53-3.23-2.08-3.55-3.98-5.1-30.33-15.21-50.22-15.31-50.42-1.26-2.45-.3-5.47 2.15-6.73 2.45-1.27 5.46-.31 6.73 2.15.43.83 10.24 20.05 15.75 50.24 3.91 1.15 7.92 2.38 12.12 3.67 23.31 7.15 49.73 15.26 77.72 15.26s54.41-8.11 77.72-15.26c4.19-1.29 8.2-2.52 12.12-3.67 5.51-30.2 15.32-49.42 15.75-50.24 1.27-2.45 4.28-3.41 6.74-2.15 2.45 1.27 3.41 4.28 2.15 6.74-.1.19-10.22 20.08-15.31 50.41-.32 1.9-1.7 3.45-3.55 3.98-4.78 1.37-9.72 2.89-14.95 4.49-24.01 7.36-51.19 15.7-80.68 15.7z"/></g><g><path d="m276.91 418.11h-103.3c-9.15 0-16.6-7.44-16.6-16.6v-57.27c0-9.15 7.45-16.6 16.6-16.6h103.3c9.15 0 16.6 7.44 16.6 16.6v57.27c0 9.15-7.45 16.6-16.6 16.6zm-103.3-80.46c-3.64 0-6.6 2.96-6.6 6.6v57.27c0 3.64 2.96 6.6 6.6 6.6h103.3c3.64 0 6.6-2.96 6.6-6.6v-57.27c0-3.64-2.96-6.6-6.6-6.6z"/></g><g><path d="m224.27 365.08h-38.03c-2.76 0-5-2.24-5-5s2.24-5 5-5h38.03c2.76 0 5 2.24 5 5s-2.24 5-5 5z"/></g><g><path d="m224.27 390.67h-38.03c-2.76 0-5-2.24-5-5s2.24-5 5-5h38.03c2.76 0 5 2.24 5 5s-2.24 5-5 5z"/></g><g><path d="m264.28 390.67h-20.67c-2.76 0-5-2.24-5-5v-25.59c0-2.76 2.24-5 5-5h20.67c2.76 0 5 2.24 5 5v25.59c0 2.76-2.23 5-5 5zm-15.66-10h10.67v-15.59h-10.67z"/></g><g><path d="m405.67 338.07h-88.8c-2.76 0-5-2.24-5-5s2.24-5 5-5h88.8c2.76 0 5 2.24 5 5s-2.24 5-5 5z"/></g><g><path d="m133.65 338.07h-88.8c-2.76 0-5-2.24-5-5s2.24-5 5-5h88.8c2.76 0 5 2.24 5 5s-2.24 5-5 5z"/></g><g><path d="m192.77 163.02c-1.28 0-2.56-.49-3.54-1.46-1.95-1.95-1.95-5.12 0-7.07l60.22-60.22c1.95-1.95 5.12-1.95 7.07 0s1.95 5.12 0 7.07l-60.22 60.22c-.97.98-2.25 1.46-3.53 1.46z"/></g><g><path d="m229.22 169.36c-1.28 0-2.56-.49-3.54-1.46-1.95-1.95-1.95-5.12 0-7.07l28.53-28.53c1.95-1.95 5.12-1.95 7.07 0s1.95 5.12 0 7.07l-28.53 28.53c-.97.98-2.25 1.46-3.53 1.46z"/></g></g></svg>