<?xml version="1.0" encoding="UTF-8"?>
<svg xmlns="http://www.w3.org/2000/svg" id="Layer_1" data-name="Layer 1" viewBox="0 0 512 512"><path d="M490.193,216h-7.576l-52.9-132.259,30.461-8.1a20.738,20.738,0,0,0-10.547-40.113L289.561,77.663A45.211,45.211,0,0,0,211.846,98.12L50.776,140.533a20.714,20.714,0,0,0,5.239,40.741,20.849,20.849,0,0,0,5.307-.691L78.4,176.248,29.392,298H21.8A16.686,16.686,0,0,0,5,314.647a16.675,16.675,0,0,0,10.421,15.434c1.113,21.582,9.863,39.73,25.49,52.736,15.238,12.683,36.514,19.657,59.908,19.657,23.351,0,44.725-7.063,60.184-19.879,15.794-13.094,24.643-31.192,25.78-52.548a16.791,16.791,0,0,0,5.509-3.675,16.333,16.333,0,0,0,4.921-11.733A16.688,16.688,0,0,0,180.408,298h-7.582L119.767,165.354,222.351,138.26A45.354,45.354,0,0,0,235.5,148.352L235.079,400H204.17a38.1,38.1,0,0,0-38.062,34.938,38.155,38.155,0,0,0-27.085,36.305,5.7,5.7,0,0,0,1.749,4.125A5.879,5.879,0,0,0,145.023,477H366.977a5.848,5.848,0,0,0,6-5.888,38.026,38.026,0,0,0-27.085-36.218A38.072,38.072,0,0,0,307.855,400h-30.93l.006-251.9a45.461,45.461,0,0,0,23.253-30.4L388.02,94.731,339.184,216h-7.6a16.657,16.657,0,0,0-6.377,32.1c1.11,21.587,9.861,39.718,25.491,52.727,15.238,12.683,36.514,19.647,59.907,19.647,23.352,0,44.726-7.069,60.185-19.885,15.8-13.1,24.647-31.2,25.781-52.568A16.61,16.61,0,0,0,490.193,216ZM153.344,373.2c-13.311,11.036-31.964,17.187-52.525,17.187-20.595,0-39.144-6.109-52.231-17C36.076,362.976,28.882,349,27.541,331H174.66C173.287,348,166,362.711,153.344,373.2ZM180.405,310h0a4.677,4.677,0,0,1,4.807,4.648,4.265,4.265,0,0,1-1.408,3.172,4.579,4.579,0,0,1-3.4,1.18H21.807a4.645,4.645,0,0,1-3.4-1.261A4.255,4.255,0,0,1,17,314.572,4.616,4.616,0,0,1,21.807,310ZM159.9,298H42.33L92.871,172.437l15.2-3.922ZM58.267,168.978a8.708,8.708,0,1,1-4.435-16.842l157.019-41.347a44.9,44.9,0,0,0,4.408,16.849ZM334.776,445c12.325,0,22.7,9,25.476,20h-208.5a26.761,26.761,0,0,1,25.5-20H334.776Zm-27.057-33h.11a26.027,26.027,0,0,1,25.765,21H178.411a26.156,26.156,0,0,1,25.9-21Zm-60.64-12,.412-247.557a44.839,44.839,0,0,0,17.439-.083l0,247.64ZM256,141.217a33.25,33.25,0,1,1,33.246-33.25A33.286,33.286,0,0,1,256,141.217Zm45.14-36.194a44.925,44.925,0,0,0-4.455-16.837l156-41.079A8.709,8.709,0,0,1,457.12,63.95ZM402.5,90.909,418.022,86.9,469.69,216H352.122ZM463.135,291.2c-13.311,11.036-31.965,17.185-52.526,17.185-20.594,0-39.144-6.106-52.23-17C345.867,280.973,338.673,267,337.332,249H484.451C483.078,266,475.792,280.707,463.135,291.2ZM490.193,237H331.6a4.51,4.51,0,1,1,0-9h158.6a4.51,4.51,0,1,1,0,9Z"/><path d="M57.255,365.118c10.823,8.606,26.294,13.346,43.564,13.346a6,6,0,1,0,0-12c-14.568,0-27.387-3.814-36.095-10.739a6,6,0,1,0-7.469,9.393Z"/><path d="M42.406,344.413a47.36,47.36,0,0,0,1.877,4.51,6,6,0,1,0,10.823-5.182,35.576,35.576,0,0,1-1.4-3.366,6,6,0,0,0-11.3,4.038Z"/></svg>
