<svg id="Layer_1" enable-background="new 0 0 74 74" height="512" viewBox="0 0 74 74" width="512" xmlns="http://www.w3.org/2000/svg"><g><path d="m48.97 54.26c2.62 0 4.8-1.97 5.07-4.58l.73-7.14 2.17-.92c.66-.28 1.14-.83 1.34-1.51s.08-1.41-.32-1.99l-5.11-7.4c.32-1.62 1.41-8.61-2.38-14.28-2.48-3.71-6.51-6.03-11.99-6.91-7.1-1.13-12.78.19-16.9 3.94-4.84 4.41-6.21 11.16-5.92 15.6.27 4.08 2.42 7.09 4.31 9.75 1.78 2.5 3.46 4.85 3.46 7.76 0 6.17-3.61 13.96-3.65 14.04-.17.38-.01.82.36 1s.82.01 1-.36c.15-.33 3.79-8.16 3.79-14.67 0-3.39-1.81-5.94-3.73-8.63-1.87-2.62-3.79-5.32-4.04-8.98-.27-4.11.98-10.34 5.43-14.39 3.76-3.43 9.03-4.63 15.66-3.56 5.04.81 8.73 2.91 10.97 6.25 3.85 5.76 2.12 13.36 2.1 13.44-.05.21-.01.42.11.6l5.3 7.67c.15.21.19.48.12.72-.07.25-.25.45-.49.55l-2.58 1.09c-.25.11-.43.34-.45.61l-.78 7.58c-.19 1.84-1.73 3.23-3.58 3.23h-5.7c-.3 0-.57.18-.69.45l-3.21 7.43c-.16.38.01.82.39.99.1.04.2.06.3.06.29 0 .57-.17.69-.45l3.01-6.98h5.21z"/><path d="m43.73 31.33c2.86-.94 3.27-4.45 3.33-5.5 1.88-2.3.86-4.95-.05-6.18-1.04-3.89-5.64-4.73-6.77-4.88-3.75-3.02-8.14-1.44-9.17-1-5.12-.63-6.72 3.24-7.13 4.57-1.01.4-1.75 1.08-2.22 2.02-1.01 2-.41 4.63-.12 5.63-.8 1.1-1.07 2.22-.81 3.32.47 1.98 2.56 3.2 3.25 3.55 1.25 1.91 3.47 2.01 5.17 1.63l-1.5 4.59c-.13.39.09.82.48.95s.82-.09.95-.48l1.96-6c.09-.28.01-.6-.21-.79-.22-.2-.54-.24-.81-.12-.04.02-3.5 1.59-4.85-.73-.08-.13-.2-.24-.34-.31-.02-.01-2.25-1.03-2.63-2.64-.17-.74.08-1.51.76-2.35.17-.2.21-.48.13-.73-.29-.81-.87-3.27-.08-4.85.35-.69.91-1.15 1.73-1.4.27-.08.47-.31.52-.58.03-.18.9-4.48 5.77-3.77.15.02.3 0 .44-.07.18-.09 4.47-2.1 7.94.84.12.1.27.16.42.18.05 0 4.91.48 5.72 3.92.03.11.08.21.14.29.08.1 1.93 2.5.03 4.59-.13.14-.19.32-.2.5 0 .04-.04 3.81-2.5 4.42-.19.05-.36.17-.46.34-.12.2-2.99 4.81-7.83 2.16-.19-.11-.43-.12-.63-.04-.21.08-.37.25-.44.46l-2.11 6.21c-.13.39.08.82.47.95.08.03.16.04.24.04.31 0 .6-.2.71-.51l1.84-5.4c4.3 1.86 7.55-.85 8.86-2.83z"/><path d="m41.4 18.6c-1.55-1.18-3.68-1.31-5.36-.38-.41-.26-.89-.42-1.41-.42-1.43 0-2.6 1.17-2.6 2.6s1.17 2.6 2.6 2.6 2.6-1.17 2.6-2.6c0-.35-.07-.69-.2-1 1.12-.5 2.46-.37 3.45.39 1.14.88 1.58 2.38 1.18 3.71-.21-.06-.43-.09-.66-.09-1.43 0-2.6 1.17-2.6 2.6s1.17 2.6 2.6 2.6 2.6-1.17 2.6-2.6c0-.65-.25-1.24-.65-1.7.8-2.01.19-4.37-1.55-5.71zm-6.77 2.89c-.61 0-1.1-.49-1.1-1.1s.49-1.1 1.1-1.1 1.1.49 1.1 1.1-.49 1.1-1.1 1.1zm6.38 5.61c-.61 0-1.1-.49-1.1-1.1s.49-1.1 1.1-1.1 1.1.49 1.1 1.1-.5 1.1-1.1 1.1z"/><path d="m26.38 29.58c.88.96 2.09 1.52 3.4 1.58h.21c.98 0 1.91-.3 2.71-.83.44.35.99.56 1.59.56 1.43 0 2.6-1.17 2.6-2.6s-1.17-2.6-2.6-2.6-2.6 1.17-2.6 2.6c0 .28.06.55.14.81-.59.39-1.28.58-1.99.56-.91-.04-1.74-.43-2.36-1.09-.61-.67-.93-1.53-.89-2.44.03-.73.3-1.4.74-1.96.34.16.71.26 1.11.26 1.43 0 2.6-1.17 2.6-2.6s-1.17-2.6-2.6-2.6-2.6 1.17-2.6 2.6c0 .49.14.94.38 1.33-.68.82-1.09 1.82-1.14 2.9-.04 1.31.42 2.56 1.3 3.52zm7.91-2.39c.61 0 1.1.49 1.1 1.1s-.49 1.1-1.1 1.1c-.4 0-.74-.23-.93-.55-.01-.01-.01-.02-.02-.03-.08-.16-.15-.33-.15-.51 0-.62.49-1.11 1.1-1.11zm-5.84-6.46c.61 0 1.1.49 1.1 1.1s-.49 1.1-1.1 1.1-1.1-.49-1.1-1.1.49-1.1 1.1-1.1z"/><path d="m65.93 14.87c-1.55 0-2.82 1.27-2.82 2.82 0 .66.24 1.26.62 1.74l-3.7 3.97h-4.18c-.41 0-.75.34-.75.75s.34.75.75.75h4.51c.21 0 .41-.09.55-.24l4.04-4.34c.31.11.63.19.98.19 1.55 0 2.82-1.27 2.82-2.82s-1.27-2.82-2.82-2.82zm0 4.14c-.73 0-1.32-.59-1.32-1.32s.59-1.32 1.32-1.32 1.32.59 1.32 1.32-.59 1.32-1.32 1.32z"/><path d="m65.15 36.06v-5.92c0-.41-.34-.75-.75-.75h-7.98c-.41 0-.75.34-.75.75s.34.75.75.75h7.23v5.17c-1.19.33-2.07 1.41-2.07 2.71 0 1.55 1.27 2.82 2.82 2.82s2.82-1.27 2.82-2.82c0-1.3-.88-2.38-2.07-2.71zm-.75 4.02c-.73 0-1.32-.59-1.32-1.32s.59-1.32 1.32-1.32 1.32.59 1.32 1.32-.59 1.32-1.32 1.32z"/><path d="m65.15 53.98v-6.49c0-.41-.34-.75-.75-.75h-6.76c-.41 0-.75.34-.75.75s.34.75.75.75h6.01v5.74c-1.19.33-2.07 1.41-2.07 2.71 0 1.55 1.27 2.82 2.82 2.82s2.82-1.27 2.82-2.82c0-1.3-.88-2.38-2.07-2.71zm-.75 4.02c-.73 0-1.32-.59-1.32-1.32s.59-1.32 1.32-1.32 1.32.59 1.32 1.32-.59 1.32-1.32 1.32z"/><path d="m55.76 54.5c-1.55 0-2.82 1.27-2.82 2.82 0 1.29.88 2.37 2.07 2.71v3.34h-12.23c-.41 0-.75.34-.75.75s.34.75.75.75h12.98c.41 0 .75-.34.75-.75v-4.09c1.19-.33 2.07-1.41 2.07-2.71 0-1.56-1.27-2.82-2.82-2.82zm0 4.14c-.73 0-1.32-.59-1.32-1.32s.59-1.32 1.32-1.32 1.32.59 1.32 1.32-.59 1.32-1.32 1.32z"/><path d="m51.42 13.16h5.13c.33 1.02 1.28 1.76 2.4 1.76 1.4 0 2.54-1.14 2.54-2.54s-1.14-2.54-2.54-2.54c-1.15 0-2.11.77-2.42 1.81h-5.12c-.41 0-.75.34-.75.75s.35.76.76.76zm7.54-1.81c.57 0 1.04.47 1.04 1.04s-.47 1.04-1.04 1.04-1.04-.47-1.04-1.04.47-1.04 1.04-1.04z"/><path d="m10.89 32.82c0-1.29-.88-2.37-2.07-2.71v-5.69h4.91c.41 0 .75-.34.75-.75s-.34-.75-.75-.75h-5.66c-.41 0-.75.34-.75.75v6.44c-1.19.33-2.07 1.41-2.07 2.71 0 1.55 1.26 2.82 2.82 2.82s2.82-1.27 2.82-2.82zm-4.14 0c0-.73.59-1.32 1.32-1.32s1.32.59 1.32 1.32-.59 1.32-1.32 1.32-1.32-.6-1.32-1.32z"/><path d="m11.97 38.31c-1.55 0-2.82 1.26-2.82 2.82s1.27 2.82 2.82 2.82c.46 0 .89-.12 1.27-.32l2 2c.14.14.33.22.53.22h4.32c.41 0 .75-.34.75-.75s-.34-.75-.75-.75h-4.01l-1.73-1.73c.27-.43.44-.94.44-1.49 0-1.56-1.27-2.82-2.82-2.82zm-1.32 2.82c0-.73.59-1.32 1.32-1.32s1.32.59 1.32 1.32-.59 1.32-1.32 1.32-1.32-.59-1.32-1.32z"/><path d="m10.44 17.84c1.55 0 2.82-1.27 2.82-2.82 0-.53-.16-1.02-.41-1.45l2.46-2.46h4.3c.41 0 .75-.34.75-.75s-.34-.75-.75-.75h-4.61c-.2 0-.39.08-.53.22l-2.71 2.71c-.39-.21-.84-.34-1.31-.34-1.55 0-2.82 1.27-2.82 2.82s1.25 2.82 2.81 2.82zm0-4.14c.73 0 1.32.59 1.32 1.32s-.59 1.32-1.32 1.32-1.32-.59-1.32-1.32.59-1.32 1.32-1.32z"/><path d="m18.57 50.3h-8.08c-.41 0-.75.34-.75.75v5.46c-1.19.33-2.07 1.41-2.07 2.71 0 1.55 1.26 2.82 2.82 2.82s2.82-1.27 2.82-2.82c0-1.29-.88-2.37-2.07-2.71v-4.71h7.33c.41 0 .75-.34.75-.75s-.33-.75-.75-.75zm-6.76 8.92c0 .73-.59 1.32-1.32 1.32s-1.32-.59-1.32-1.32.59-1.32 1.32-1.32 1.32.59 1.32 1.32z"/></g></svg>