<svg xmlns="http://www.w3.org/2000/svg"><path d="m249.086 86.703v157.923c0 3.822 3.099 6.919 6.919 6.919s6.919-3.097 6.919-6.919v-157.922c20.785-3.331 36.734-21.34 36.734-43.051 0-24.07-19.581-43.653-43.649-43.653-24.072 0-43.653 19.583-43.653 43.653 0 21.709 15.945 39.716 36.73 43.05zm6.923-72.865c16.437 0 29.811 13.374 29.811 29.815s-13.374 29.815-29.811 29.815c-16.441 0-29.815-13.374-29.815-29.815s13.374-29.815 29.815-29.815zm50.162 457.98c-1.221 2.396-3.649 3.777-6.167 3.777-1.059 0-2.135-.246-3.14-.759-3.887-1.982-9.662-4.252-15.324-6.412-3.572-1.36-5.36-5.358-4-8.928 1.356-3.572 5.36-5.369 8.928-4 6.027 2.295 12.216 4.734 16.685 7.016 3.406 1.736 4.757 5.902 3.018 9.306zm-95.851-206.307c-54.617-17.885-85.144-38.982-88.284-61.011-1.536-10.786 3.554-20.786 14.333-28.153 19.248-13.158 56.653-16.901 85.923-.399 3.329 1.876 4.509 6.097 2.631 9.426-1.878 3.333-6.108 4.507-9.423 2.628-24.252-13.671-55.91-10.766-71.32-.232-4.387 2.998-9.414 7.995-8.446 14.779.842 5.899 9.014 26.93 78.892 49.813 3.631 1.189 5.613 5.097 4.423 8.727-.955 2.917-3.667 4.768-6.577 4.768-.711.001-1.436-.112-2.152-.346zm114.982 47.856c-1.023 17.957-18.689 35.297-48.477 47.572-3.723 1.535-8.44 3.109-13.901 4.927v52.39c0 3.822-3.099 6.919-6.919 6.919s-6.919-3.097-6.919-6.919v-47.557c-22.184 8.289-40.2 18.494-38.248 34.152 1.153 9.252 8.977 18.419 23.261 27.25 3.248 2.011 4.257 6.275 2.243 9.525-1.306 2.115-3.572 3.279-5.887 3.279-1.243 0-2.5-.333-3.635-1.034-18.275-11.302-27.991-23.504-29.712-37.309-3.968-31.813 36.459-45.423 58.18-52.734l3.252-1.086c5.216-1.741 9.725-3.243 13.014-4.597 23.946-9.869 39.248-23.498 39.932-35.565.55-9.619-8.77-16.851-16.689-21.225-3.342-1.849-4.559-6.059-2.707-9.403 1.847-3.351 6.054-4.554 9.401-2.709 20.64 11.403 24.342 24.852 23.811 34.124zm-10.41 93.192c-2.815 22.654-26.778 37.659-51.968 48.867v49.655c0 3.822-3.099 6.919-6.919 6.919s-6.919-3.097-6.919-6.919v-43.846c-4.82 1.918-9.557 3.733-14.054 5.445-8.252 3.142-15.378 5.856-19.901 8.16-1.005.511-2.077.755-3.135.755-2.518 0-4.95-1.383-6.171-3.784-1.734-3.405-.378-7.57 3.027-9.304 5.185-2.637 12.631-5.475 21.252-8.759 27.162-10.345 68.207-25.98 71.059-48.894 1.122-9.038-4.315-16.996-16.622-24.324-3.284-1.955-4.36-6.2-2.405-9.484 1.964-3.288 6.216-4.358 9.486-2.403 17.288 10.294 25.117 23.051 23.27 37.916zm74.811-200.505c-5.345 26.522-49.099 50.829-126.779 70.611v54.661c0 3.822-3.099 6.919-6.919 6.919s-6.919-3.097-6.919-6.919v-51.269c-.328.077-.631.158-.959.235-28.563 6.712-45.878 17.486-47.509 29.559-1.378 10.191 8.676 22.214 26.901 32.16 3.351 1.829 4.59 6.032 2.757 9.387-1.257 2.302-3.631 3.604-6.077 3.604-1.122.002-2.257-.273-3.311-.847-23.806-12.991-36.194-29.815-33.986-46.158 1.757-12.971 13.252-30.644 58.063-41.176 115.293-27.056 129.55-55.446 131.171-63.502 1.113-5.516-1.428-10.568-7.55-15.016-15.324-11.126-47.946-13.905-72.086-.302-3.32 1.869-7.55.703-9.423-2.631-1.878-3.329-.698-7.547 2.631-9.423 29.712-16.745 68.293-12.435 87.009 1.162 10.585 7.691 15.197 17.968 12.986 28.945zm-217.198-53.712h-62.838c-11.311 0-20.509-10.225-20.509-22.793v-10.768h-4.113c-11.311 0-20.514-10.223-20.514-22.791v-8.953h-4.968c-11.306 0-20.505-10.223-20.505-22.791v-15.872c0-3.822 3.099-6.919 6.919-6.919h82.959c27.459 0 51.387 13.459 65.653 36.93l34.428 56.667c1.982 3.266.941 7.52-2.32 9.505-3.27 1.98-7.523.953-9.509-2.32l-34.427-56.667c-11.865-19.525-30.982-30.277-53.824-30.277h-76.041v8.955c0 4.854 3.054 8.953 6.667 8.953h62.32c3.82 0 6.919 3.097 6.919 6.919s-3.099 6.919-6.919 6.919h-43.514v8.953c0 4.854 3.059 8.953 6.676 8.953h62.838c3.82 0 6.919 3.097 6.919 6.919s-3.099 6.919-6.919 6.919h-44.887v10.768c0 4.854 3.054 8.955 6.671 8.955h62.838c3.82 0 6.919 3.097 6.919 6.919-.001 3.82-3.1 6.917-6.919 6.917zm300.436-103.968v15.874c0 12.568-9.198 22.791-20.504 22.791h-4.973v8.953c0 12.568-9.198 22.791-20.509 22.791h-4.113v10.768c0 12.568-9.198 22.793-20.509 22.793h-62.838c-3.82 0-6.919-3.097-6.919-6.919s3.099-6.919 6.919-6.919h62.838c3.617 0 6.671-4.101 6.671-8.955v-10.768h-44.887c-3.82 0-6.919-3.097-6.919-6.919s3.099-6.919 6.919-6.919h62.838c3.617 0 6.671-4.099 6.671-8.953v-8.953h-43.509c-3.82 0-6.919-3.097-6.919-6.919s3.099-6.919 6.919-6.919h62.32c3.613 0 6.667-4.099 6.667-8.953v-8.955h-76.041c-22.842 0-41.959 10.752-53.824 30.277l-34.428 56.667c-1.982 3.273-6.239 4.3-9.509 2.32-3.261-1.984-4.302-6.239-2.32-9.505l34.428-56.667c14.266-23.471 38.194-36.93 65.653-36.93h82.959c3.82 0 6.919 3.097 6.919 6.919z" fill="rgb(0,0,0)"/></svg>