<svg id="_x3C_Layer_x3E_" height="512" viewBox="0 0 32 32" width="512" xmlns="http://www.w3.org/2000/svg"><g id="make_a_choice_x2C__choose_x2C__tick_x2C__mark_x2C__touchscreen_x2C__check"><g><g id="XMLID_325_"><path d="m19 31c-.213 0-.409-.136-.477-.35-.029-.065-.203-.212-.323-.283-1.49-.873-3.174-4.733-3.361-5.17l-1.581-6.102c-.056-.216.038-.443.23-.556.975-.573 1.726-.522 2.188-.378.647.203 1.179.717 1.535 1.487l.789 1.648v-9.296c0-1.103.897-2 2-2s2 .897 2 2v5.269c.294-.171.636-.269 1-.269.727 0 1.363.389 1.714.97.348-.293.797-.47 1.286-.47.871 0 1.614.56 1.888 1.338.318-.213.701-.338 1.112-.338 1.103 0 2 .897 2 2v8c0 1.378-1.121 2.5-2.5 2.5h-5c-.276 0-.5-.224-.5-.5s.224-.5.5-.5h5c.827 0 1.5-.673 1.5-1.5v-8c0-.551-.448-1-1-1s-1 .449-1 1c0 .276-.224.5-.5.5s-.5-.224-.5-.5v-1c0-.551-.448-1-1-1s-1 .449-1 1c0 .276-.224.5-.5.5s-.5-.224-.5-.5v-.5c0-.551-.448-1-1-1s-1 .449-1 1c0 .276-.224.5-.5.5s-.5-.224-.5-.5v-7c0-.551-.448-1-1-1s-1 .449-1 1v11.5c0 .233-.162.436-.39.488-.23.054-.46-.062-.562-.272l-1.742-3.643c-.166-.359-.46-.812-.929-.958-.306-.095-.658-.057-1.052.116l1.457 5.645c.448 1.033 1.899 4.03 2.924 4.63.146.086.629.399.77.845.083.263-.063.544-.326.627-.049.015-.1.022-.15.022z" fill="rgb(0,0,0)"/></g><g id="XMLID_345_"><path d="m19.5 8.5c-.128 0-.256-.049-.354-.146l-2.5-2.5c-.195-.195-.195-.512 0-.707s.512-.195.707 0l2.147 2.146 5.646-5.646c.195-.195.512-.195.707 0s.195.512 0 .707l-6 6c-.097.097-.225.146-.353.146z" fill="rgb(0,0,0)"/></g><g><path d="m10.5 12h-8c-.827 0-1.5-.673-1.5-1.5v-8c0-.827.673-1.5 1.5-1.5h8c.827 0 1.5.673 1.5 1.5v8c0 .827-.673 1.5-1.5 1.5zm-8-10c-.275 0-.5.224-.5.5v8c0 .276.225.5.5.5h8c.275 0 .5-.224.5-.5v-8c0-.276-.225-.5-.5-.5z" fill="rgb(0,0,0)"/></g><g><path d="m10.5 25h-8c-.827 0-1.5-.673-1.5-1.5v-8c0-.827.673-1.5 1.5-1.5h8c.827 0 1.5.673 1.5 1.5v8c0 .827-.673 1.5-1.5 1.5zm-8-10c-.275 0-.5.224-.5.5v8c0 .276.225.5.5.5h8c.275 0 .5-.224.5-.5v-8c0-.276-.225-.5-.5-.5z" fill="rgb(0,0,0)"/></g><g><path d="m16.5 12h-1c-.827 0-1.5-.673-1.5-1.5v-8c0-.827.673-1.5 1.5-1.5h8c.276 0 .5.224.5.5s-.224.5-.5.5h-8c-.275 0-.5.224-.5.5v8c0 .276.225.5.5.5h1c.276 0 .5.224.5.5s-.224.5-.5.5z" fill="rgb(0,0,0)"/></g><g><path d="m23.5 12h-2c-.276 0-.5-.224-.5-.5s.224-.5.5-.5h2c.275 0 .5-.224.5-.5v-5c0-.276.224-.5.5-.5s.5.224.5.5v5c0 .827-.673 1.5-1.5 1.5z" fill="rgb(0,0,0)"/></g></g></g></svg>