<svg xmlns="http://www.w3.org/2000/svg" version="1.1" xmlns:xlink="http://www.w3.org/1999/xlink" xmlns:svgjs="http://svgjs.com/svgjs" x="0" y="0" viewBox="0 0 512 512" style="enable-background:new 0 0 512 512" xml:space="preserve" class=""><g><path d="M52.151 115.239c-22.961 24.463-37.027 57.374-37.027 93.573 0 75.542 61.239 136.78 136.78 136.78s136.78-61.239 136.78-136.78c0-40.926-17.98-77.647-46.465-102.714" style="stroke-width:15;stroke-linecap:round;stroke-linejoin:round;stroke-miterlimit:10;" fill="none" stroke="#cda62a" stroke-width="15" stroke-linecap="round" stroke-linejoin="round" stroke-miterlimit="10" data-original="#000000" class=""></path><path d="M190.457 231.321c0 14.703-11.919 26.622-26.622 26.622l-33.746.118V204.7h33.746c14.703 0 26.622 11.919 26.622 26.621z" style="stroke-width:15;stroke-linecap:round;stroke-linejoin:round;stroke-miterlimit:10;" fill="none" stroke="#cda62a" stroke-width="15" stroke-linecap="round" stroke-linejoin="round" stroke-miterlimit="10" data-original="#000000" class=""></path><path d="M130.09 204.774v-45.616h28.729c12.569 0 22.758 10.189 22.758 22.758s-10.189 22.758-22.758 22.758M163.125 145.038v14.527M139.951 145.038v14.12M163.125 257.945v14.643M139.951 258.06v14.121M378.822 261.671s-10.658-9.83-27.087-4.882c-15.085 4.544-18.831 25.184-8.58 33.224 5.886 4.617 14.743 8.412 26.679 12.632 26.715 9.443 16.839 47.118-10.335 47.299-10.605.071-15.563-.603-24.878-6.697M359.499 242.678v121.018M445.413 50.296 394.591 10.88c-10.492-8.137-25.753-.66-25.753 12.617a9.339 9.339 0 0 1-9.339 9.339H164.82c-11.931 0-21.604 9.672-21.604 21.604v30.055c0 11.931 9.672 21.604 21.604 21.604h194.679a9.339 9.339 0 0 1 9.339 9.339c0 13.277 15.262 20.755 25.753 12.617l50.822-39.417c12.524-9.712 12.524-28.629 0-38.342z" style="stroke-width:15;stroke-linecap:round;stroke-linejoin:round;stroke-miterlimit:10;" fill="none" stroke="#cda62a" stroke-width="15" stroke-linecap="round" stroke-linejoin="round" stroke-miterlimit="10" data-original="#000000" class=""></path><path d="M159.796 105.488a105.149 105.149 0 0 0-7.891-.297c-57.229 0-103.622 46.393-103.622 103.622s46.393 103.622 103.622 103.622 103.622-46.393 103.622-103.622c0-52.571-39.15-95.992-89.883-102.714M316.511 479.164h30.669c11.931 0 21.604-9.672 21.604-21.604v-17.875M269.781 405.901h-117.28a9.339 9.339 0 0 1-9.339-9.339c0-13.278-15.262-20.755-25.753-12.618l-50.822 39.417c-12.523 9.713-12.523 28.629 0 38.342l50.822 39.417c10.492 8.137 25.753.66 25.753-12.617a9.339 9.339 0 0 1 9.339-9.339h129.01M256.68 296.729a105.485 105.485 0 0 0-.206 6.458c0 57.229 46.393 103.622 103.622 103.622s103.622-46.393 103.622-103.622-46.393-103.622-103.622-103.622c-28.471 0-54.257 11.485-72.986 30.072" style="stroke-width:15;stroke-linecap:round;stroke-linejoin:round;stroke-miterlimit:10;" fill="none" stroke="#cda62a" stroke-width="15" stroke-linecap="round" stroke-linejoin="round" stroke-miterlimit="10" data-original="#000000" class=""></path><path d="M224.965 324.458c10.218 65.439 66.825 115.509 135.131 115.509 75.542 0 136.78-61.239 136.78-136.78s-61.239-136.78-136.78-136.78c-26.868 0-51.923 7.753-73.06 21.135M143.216 72.315a136.003 136.003 0 0 0-64.059 20.656" style="stroke-width:15;stroke-linecap:round;stroke-linejoin:round;stroke-miterlimit:10;" fill="none" stroke="#cda62a" stroke-width="15" stroke-linecap="round" stroke-linejoin="round" stroke-miterlimit="10" data-original="#000000" class=""></path></g></svg>