<svg id="happy-planet-smiling-earth-ico" enable-background="new 0 0 300 300"  viewBox="0 0 300 300" xmlns="http://www.w3.org/2000/svg"><g><path d="m149.245 68.424c-54.934 0-99.625 44.691-99.625 99.623s44.691 99.623 99.625 99.623c54.93 0 99.621-44.691 99.621-99.623s-44.692-99.623-99.621-99.623zm-91.625 99.623c0-2.216.107-4.407.262-6.584h29.441c3.516 0 6.375 2.859 6.375 6.375s-2.859 6.377-6.375 6.377h-3.625c-5.516 0-10 4.486-10 10 0 1.104-.898 2-2 2h-12.263c-1.186-5.874-1.815-11.949-1.815-18.168zm3.827 26.168h10.25c5.516 0 10-4.486 10-10 0-1.104.898-2 2-2h3.625c7.926 0 14.375-6.449 14.375-14.377 0-7.926-6.449-14.375-14.375-14.375h-28.529c7.008-43.613 44.892-77.039 90.451-77.039 50.52 0 91.621 41.102 91.621 91.623 0 9.092-1.35 17.871-3.828 26.168h-48.219c-9.926 0-18.062 7.482-18.602 16.875h-10.273c-10.062 0-18.246 7.85-18.246 17.5 0 9.648 8.184 17.498 18.246 17.498 1.723 0 3.121 1.234 3.121 2.75v6.75c0 1.012.123 2.006.305 2.99-4.606.716-9.322 1.092-14.125 1.092-41.431 0-76.507-27.647-87.797-65.455zm109.798 62.767c-.078-.463-.18-.924-.18-1.394v-6.75c0-5.928-4.988-10.75-11.121-10.75-5.648 0-10.246-4.262-10.246-9.498 0-5.238 4.598-9.5 10.246-9.5h14.246c2.211 0 4-1.791 4-4v-3.01c0-5.439 4.77-9.865 10.629-9.865h45.413c-10.897 27.006-34.289 47.665-62.987 54.767z"/><path d="m170.303 142.34c2.211 0 4-1.791 4-4 0-5.885 4.785-10.672 10.668-10.672s10.672 4.787 10.672 10.672c0 2.209 1.789 4 4 4s4-1.791 4-4c0-10.295-8.375-18.672-18.672-18.672-10.293 0-18.668 8.377-18.668 18.672 0 2.209 1.789 4 4 4z"/><path d="m167.483 189.875c1.469-1.646 1.328-4.176-.32-5.646-1.641-1.469-4.172-1.334-5.648.318-3.633 4.07-8.848 6.404-14.301 6.404-5.117 0-9.93-1.994-13.551-5.613-1.562-1.562-4.094-1.562-5.656 0s-1.562 4.094 0 5.656c5.129 5.131 11.953 7.957 19.207 7.957 7.73 0 15.116-3.308 20.269-9.076z"/><path d="m53.698 62.215c2.211 0 4-1.791 4-4v-8c0-2.209-1.789-4-4-4s-4 1.791-4 4v8c0 2.209 1.789 4 4 4z"/><path d="m53.698 70.215c-2.211 0-4 1.791-4 4v8c0 2.209 1.789 4 4 4s4-1.791 4-4v-8c0-2.209-1.789-4-4-4z"/><path d="m45.698 62.215h-8c-2.211 0-4 1.791-4 4s1.789 4 4 4h8c2.211 0 4-1.791 4-4s-1.789-4-4-4z"/><path d="m61.698 70.215h8c2.211 0 4-1.791 4-4s-1.789-4-4-4h-8c-2.211 0-4 1.791-4 4s1.789 4 4 4z"/><path d="m102.026 40.883c2.362 0 4.276-1.915 4.276-4.277s-1.914-4.276-4.276-4.276-4.276 1.915-4.276 4.276c0 2.362 1.914 4.277 4.276 4.277z"/><path d="m262.026 208.33c-2.362 0-4.276 1.915-4.276 4.276 0 2.362 1.914 4.277 4.276 4.277s4.276-1.915 4.276-4.277c0-2.361-1.914-4.276-4.276-4.276z"/><path d="m243.698 238.215c-7.719 0-14 6.281-14 14s6.281 14 14 14 14-6.281 14-14-6.282-14-14-14zm0 20c-3.309 0-6-2.691-6-6s2.691-6 6-6 6 2.691 6 6-2.692 6-6 6z"/><path d="m131.643 142.34c2.211 0 4-1.791 4-4 0-10.295-8.375-18.672-18.672-18.672-10.293 0-18.668 8.377-18.668 18.672 0 2.209 1.789 4 4 4s4-1.791 4-4c0-5.885 4.785-10.672 10.668-10.672s10.672 4.787 10.672 10.672c0 2.209 1.789 4 4 4z"/><path d="m237.698 80.994c12.559 0 22.777-10.219 22.777-22.779s-10.219-22.779-22.777-22.779-22.778 10.219-22.778 22.779 10.219 22.779 22.778 22.779zm0-37.558c8.148 0 14.777 6.631 14.777 14.779s-6.629 14.779-14.777 14.779-14.777-6.631-14.777-14.779 6.628-14.779 14.777-14.779z"/></g></svg>