<?xml version="1.0" encoding="UTF-8"?>
<svg xmlns="http://www.w3.org/2000/svg" id="Layer_1" data-name="Layer 1" viewBox="0 0 64 64" width="512" height="512"><path d="M53,1A10,10,0,1,0,63,11,10.01146,10.01146,0,0,0,53,1Zm0,18a8,8,0,1,1,8-8A8.00917,8.00917,0,0,1,53,19Z"/><path d="M54.14258,6.05731V5h-2V6.05743A2.99238,2.99238,0,0,0,52.72656,12h.833a1.00318,1.00318,0,1,1,0,2h-.833a1.04584,1.04584,0,0,1-1.084-1v-.3999h-2V13a3.02578,3.02578,0,0,0,2.5,2.94257V17h2V15.94269A2.99243,2.99243,0,0,0,53.55957,10h-.833a1.04584,1.04584,0,0,1-1.084-1,1.04584,1.04584,0,0,1,1.084-1h.833a1.04558,1.04558,0,0,1,1.083,1v.3999h2V9A3.02513,3.02513,0,0,0,54.14258,6.05731Z"/><path d="M29.127,34.75537a.99656.99656,0,0,0-.56836.51221L23.44214,46.00879a.99444.99444,0,0,0-.1853-.22266l-6.21875-5.0332a.9997.9997,0,0,0-1.40625.14844L5.56543,53.33789a1.00043,1.00043,0,0,0,.14844,1.40625l6.21875,5.0332a.99963.99963,0,0,0,1.40625-.14843l8.786-10.85462-3.02716,6.3551a.99908.99908,0,0,0,.47265,1.333L26.793,59.90283a.99961.99961,0,0,0,1.332-.47265L35.33167,44.3009,33.01562,57.437a.99933.99933,0,0,0,.81055,1.15869l7.87891,1.38916a.99955.99955,0,0,0,1.1582-.811L48,30.03925V59a.99974.99974,0,0,0,1,1h8a.99974.99974,0,0,0,1-1V24a.99974.99974,0,0,0-1-1H49a.99974.99974,0,0,0-1,1v5.09088a.9844.9844,0,0,0-.73828-.62018l-7.87891-1.38916a.99957.99957,0,0,0-1.1582.811L36.45624,37.92236l-6.56562-3.12744A.99905.99905,0,0,0,29.127,34.75537ZM12.41309,57.59375,7.749,53.81885l8.8086-10.88233,4.66406,3.77491ZM50,25h6V58H50Zm-9.97949,4.22461,5.90918,1.042L41.06738,57.8418l-5.90918-1.042ZM35.35059,39.61084,26.75,57.667l-5.417-2.58008,8.60058-18.05615Z"/><path d="M16,30H26v2a.99951.99951,0,0,0,1.59961.7998l8-6a.999.999,0,0,0,0-1.5996l-8-6A.99955.99955,0,0,0,26,20v2H16a.99974.99974,0,0,0-1,1v6A.99974.99974,0,0,0,16,30Zm1-6H27a.99974.99974,0,0,0,1-1V22l5.333,4L28,30V29a.99974.99974,0,0,0-1-1H17Z"/><path d="M4,34a3,3,0,1,0-3-3A3.00328,3.00328,0,0,0,4,34Zm0-4a1,1,0,1,1-1,1A1.001,1.001,0,0,1,4,30Z"/><path d="M10,35a3,3,0,1,0,3-3A3.00328,3.00328,0,0,0,10,35Zm3-1a1,1,0,1,1-1,1A1.001,1.001,0,0,1,13,34Z"/><path d="M9,23a3,3,0,1,0-3-3A3.00328,3.00328,0,0,0,9,23Zm0-4a1,1,0,1,1-1,1A1.001,1.001,0,0,1,9,19Z"/><rect x="1" y="61" width="62" height="2"/></svg>
