<?xml version="1.0" encoding="UTF-8" standalone="no"?>
<!-- Created with Inkscape (http://www.inkscape.org/) -->

<svg
   version="1.1"
   id="svg1641"
   xml:space="preserve"
   width="682.66669"
   height="682.66669"
   viewBox="0 0 682.66669 682.66669"
   xmlns="http://www.w3.org/2000/svg"
   xmlns:svg="http://www.w3.org/2000/svg"><defs
     id="defs1645"><clipPath
       clipPathUnits="userSpaceOnUse"
       id="clipPath1655"><path
         d="M 0,512 H 512 V 0 H 0 Z"
         id="path1653" /></clipPath></defs><g
     id="g1647"
     transform="matrix(1.3333333,0,0,-1.3333333,0,682.66667)"><g
       id="g1649"><g
         id="g1651"
         clip-path="url(#clipPath1655)"><g
           id="g1657"
           transform="translate(298.8301,92.2397)"><path
             d="m 0,0 8.43,-38.49 c 2.17,-9.91 8.719,-16.22 16.469,-18.85 13.351,-4.55 30.21,1.72 33.96,18.85 L 78.01,48.93 c 2.16,9.86 9.849,17.55 19.689,19.71 l 87.42,19.15 c 27.07,5.91 27.07,44.5 0,50.43 l -87.42,19.15 c -9.84,2.16 -17.529,9.85 -19.689,19.69 L 58.859,264.479 C 55.97,277.629 45.37,284.41 34.56,284.759 23.13,285.149 11.47,278.39 8.43,264.479 L -10.72,177.06 c -2.16,-9.84 -9.85,-17.53 -19.71,-19.69 l -87.42,-19.15 c -27.049,-5.93 -27.049,-44.52 0,-50.43 l 87.42,-19.15 c 9.86,-2.16 17.55,-9.85 19.71,-19.71 l 4.3,-19.63"
             style="fill:none;stroke:#000000;stroke-width:15;stroke-linecap:round;stroke-linejoin:round;stroke-miterlimit:10;stroke-dasharray:none;stroke-opacity:1"
             id="path1659" /></g><g
           id="g1661"
           transform="translate(197.8506,360.7295)"><path
             d="m 0,0 33.709,7.38 c 18.74,4.1 18.74,30.809 0,34.92 L -26.82,55.56 c -6.811,1.5 -12.13,6.819 -13.63,13.629 l -13.26,60.531 c -2,9.099 -9.341,13.789 -16.82,14.039 -7.92,0.27 -15.991,-4.409 -18.1,-14.039 l -13.25,-60.531 c -1.5,-6.81 -6.83,-12.129 -13.65,-13.629 L -176.05,42.3 c -18.73,-4.111 -18.73,-30.82 0,-34.92 l 60.52,-13.25 c 6.82,-1.5 12.15,-6.83 13.65,-13.65 l 13.25,-60.52 c 1.5,-6.87 6.04,-11.23 11.409,-13.06 9.241,-3.15 20.92,1.19 23.511,13.06 l 13.26,60.52 c 1.319,5.99 5.58,10.83 11.21,12.93"
             style="fill:none;stroke:#000000;stroke-width:15;stroke-linecap:round;stroke-linejoin:round;stroke-miterlimit:10;stroke-dasharray:none;stroke-opacity:1"
             id="path1663" /></g><g
           id="g1665"
           transform="translate(193.4268,97.0972)"><path
             d="m 0,0 -33.6,-7.359 c -3.781,-0.833 -6.736,-3.788 -7.569,-7.577 l -7.359,-33.6 c -1.441,-6.587 -7.922,-8.994 -13.053,-7.247 -2.979,1.013 -5.499,3.436 -6.331,7.247 l -7.359,33.6 c -0.833,3.789 -3.789,6.744 -7.578,7.577 L -116.448,0 c -10.398,2.273 -10.398,17.104 0,19.384 l 33.599,7.359 c 3.789,0.833 6.745,3.789 7.578,7.57 l 7.359,33.6 c 1.17,5.348 5.648,7.943 10.044,7.794 4.156,-0.135 8.229,-2.739 9.34,-7.794 l 7.359,-33.6 c 0.833,-3.781 3.788,-6.737 7.569,-7.57 L 0,19.384 C 10.405,17.104 10.405,2.273 0,0 Z"
             style="fill:none;stroke:#000000;stroke-width:15;stroke-linecap:round;stroke-linejoin:round;stroke-miterlimit:10;stroke-dasharray:none;stroke-opacity:1"
             id="path1667" /></g><g
           id="g1669"
           transform="translate(408.623,434.8418)"><path
             d="M 0,0 V -37.452"
             style="fill:none;stroke:#000000;stroke-width:15;stroke-linecap:round;stroke-linejoin:round;stroke-miterlimit:10;stroke-dasharray:none;stroke-opacity:1"
             id="path1671" /></g><g
           id="g1673"
           transform="translate(427.3486,416.1157)"><path
             d="M 0,0 H -37.452"
             style="fill:none;stroke:#000000;stroke-width:15;stroke-linecap:round;stroke-linejoin:round;stroke-miterlimit:10;stroke-dasharray:none;stroke-opacity:1"
             id="path1675" /></g><g
           id="g1677"
           transform="translate(235.9092,44.9521)"><path
             d="M 0,0 V -37.452"
             style="fill:none;stroke:#000000;stroke-width:15;stroke-linecap:round;stroke-linejoin:round;stroke-miterlimit:10;stroke-dasharray:none;stroke-opacity:1"
             id="path1679" /></g><g
           id="g1681"
           transform="translate(254.6348,26.2261)"><path
             d="M 0,0 H -37.452"
             style="fill:none;stroke:#000000;stroke-width:15;stroke-linecap:round;stroke-linejoin:round;stroke-miterlimit:10;stroke-dasharray:none;stroke-opacity:1"
             id="path1683" /></g><g
           id="g1685"
           transform="translate(41.8027,256)"><path
             d="M 0,0 V -37.452"
             style="fill:none;stroke:#000000;stroke-width:15;stroke-linecap:round;stroke-linejoin:round;stroke-miterlimit:10;stroke-dasharray:none;stroke-opacity:1"
             id="path1687" /></g><g
           id="g1689"
           transform="translate(60.5283,237.2739)"><path
             d="M 0,0 H -37.452"
             style="fill:none;stroke:#000000;stroke-width:15;stroke-linecap:round;stroke-linejoin:round;stroke-miterlimit:10;stroke-dasharray:none;stroke-opacity:1"
             id="path1691" /></g></g></g></g></svg>
