<?xml version="1.0" encoding="UTF-8"?>
<svg xmlns="http://www.w3.org/2000/svg" xmlns:xlink="http://www.w3.org/1999/xlink" version="1.1" id="Capa_1" x="0px" y="0px" viewBox="0 0 511.999 511.999" style="enable-background:new 0 0 511.999 511.999;" xml:space="preserve" width="512" height="512">
<g>
	<path style="fill:none;stroke:#000000;stroke-width:15;stroke-linecap:round;stroke-linejoin:round;stroke-miterlimit:10;" d="&#10;&#9;&#9;M51.633,431.382l12.501-11.553c2.283-2.109,5.969-0.334,5.743,2.766l-1.238,16.977l16.827,2.571&#10;&#9;&#9;c3.072,0.469,3.983,4.458,1.418,6.214l-14.045,9.617l8.481,14.758c1.549,2.695-1.002,5.893-3.974,4.983l-16.276-4.985&#10;&#9;&#9;l-6.251,15.833c-1.141,2.891-5.233,2.891-6.374,0l-6.251-15.833l-16.276,4.985c-2.972,0.91-5.523-2.289-3.974-4.983l8.481-14.758&#10;&#9;&#9;l-14.045-9.617c-2.564-1.756-1.654-5.745,1.418-6.214l16.827-2.571l-1.238-16.977c-0.226-3.1,3.46-4.875,5.743-2.766&#10;&#9;&#9;L51.633,431.382z"/>
	<g>
		<path style="fill:none;stroke:#000000;stroke-width:15;stroke-linecap:round;stroke-linejoin:round;stroke-miterlimit:10;" d="&#10;&#9;&#9;&#9;M34.499,437.815c-13.32-19.11-21.98-41.76-25.35-66.64c-3.96-29.19-0.78-60.71,9.44-93.67c10.52-33.92,28.13-68.12,51.91-101.19"/>
		<path style="fill:none;stroke:#000000;stroke-width:15;stroke-linecap:round;stroke-linejoin:round;stroke-miterlimit:10;" d="&#10;&#9;&#9;&#9;M472.258,274.651c-19.488,37.856-47.27,75.176-82.078,109.984c-50.47,50.47-106.22,86.17-161.23,103.23&#10;&#9;&#9;&#9;c-32.96,10.22-64.48,13.4-93.68,9.44"/>
		<path style="fill:none;stroke:#000000;stroke-width:15;stroke-linecap:round;stroke-linejoin:round;stroke-miterlimit:10;" d="&#10;&#9;&#9;&#9;M461.949,44.505c22.22,22.23,36.36,51.69,40.9,85.22c3.96,29.2,0.78,60.72-9.44,93.68c-1.979,6.382-4.209,12.773-6.684,19.165"/>
		<path style="fill:none;stroke:#000000;stroke-width:15;stroke-linecap:round;stroke-linejoin:round;stroke-miterlimit:10;" d="&#10;&#9;&#9;&#9;M116.349,121.825c1.8-1.86,3.63-3.71,5.47-5.55c50.47-50.47,106.22-86.17,161.23-103.23"/>
		<path style="fill:none;stroke:#000000;stroke-width:15;stroke-linecap:round;stroke-linejoin:round;stroke-miterlimit:10;" d="&#10;&#9;&#9;&#9;M322.189,67.195c9.37-0.35,18.47,0.21,27.24,1.68c22.84,3.83,43.11,14.05,58.6,29.55c15.5,15.49,25.72,35.76,29.55,58.6&#10;&#9;&#9;&#9;c3.46,20.65,1.87,43.08-4.74,66.67c-11.88,42.43-39.01,85.71-78.45,125.15s-82.72,66.57-125.15,78.45&#10;&#9;&#9;&#9;c-23.59,6.61-46.02,8.2-66.67,4.74c-22.84-3.83-43.11-14.05-58.6-29.55c-15.5-15.49-25.72-35.76-29.55-58.6"/>
		<path style="fill:none;stroke:#000000;stroke-width:15;stroke-linecap:round;stroke-linejoin:round;stroke-miterlimit:10;" d="&#10;&#9;&#9;&#9;M150.029,159.855c2.47-2.61,5-5.21,7.58-7.79c38.09-38.09,79.77-64.7,120.8-77.18"/>
		<path style="fill:none;stroke:#000000;stroke-width:15;stroke-linecap:round;stroke-linejoin:round;stroke-miterlimit:10;" d="&#10;&#9;&#9;&#9;M371.534,134.92c34.799,34.799,11.468,108.646-55.478,175.591s-140.793,90.278-175.592,55.479s-11.467-108.647,55.479-175.592&#10;&#9;&#9;&#9;c22.385-22.385,45.541-39.893,67.751-51.983"/>
		<path style="fill:none;stroke:#000000;stroke-width:15;stroke-linecap:round;stroke-linejoin:round;stroke-miterlimit:10;" d="&#10;&#9;&#9;&#9;M176.774,307.92c-4.593-23.396,12.343-60.551,44.241-92.449c39.704-39.704,87.553-56.227,106.874-36.905&#10;&#9;&#9;&#9;c19.321,19.321,2.798,67.171-36.905,106.874c-30.466,30.466-65.727,47.283-89.216,44.73"/>
	</g>
	
		<circle style="fill:none;stroke:#000000;stroke-width:15;stroke-linecap:round;stroke-linejoin:round;stroke-miterlimit:10;" cx="255.999" cy="250.455" r="22.27"/>
	
		<circle style="fill:none;stroke:#000000;stroke-width:15;stroke-linecap:round;stroke-linejoin:round;stroke-miterlimit:10;" cx="438.095" cy="432.551" r="22.27"/>
	
		<circle style="fill:none;stroke:#000000;stroke-width:15;stroke-linecap:round;stroke-linejoin:round;stroke-miterlimit:10;" cx="300.54" cy="72.404" r="22.27"/>
	
		<circle style="fill:none;stroke:#000000;stroke-width:15;stroke-linecap:round;stroke-linejoin:round;stroke-miterlimit:10;" cx="109.059" cy="162.221" r="41.041"/>
	<g>
		
			<line style="fill:none;stroke:#000000;stroke-width:15;stroke-linecap:round;stroke-linejoin:round;stroke-miterlimit:10;" x1="59.303" y1="27.726" x2="59.303" y2="54.404"/>
		
			<line style="fill:none;stroke:#000000;stroke-width:15;stroke-linecap:round;stroke-linejoin:round;stroke-miterlimit:10;" x1="72.642" y1="41.065" x2="45.965" y2="41.065"/>
	</g>
	
		<line style="fill:none;stroke:#000000;stroke-width:15;stroke-linecap:round;stroke-linejoin:round;stroke-miterlimit:10;" x1="474.84" y1="382.53" x2="474.84" y2="382.53"/>
	
		<line style="fill:none;stroke:#000000;stroke-width:15;stroke-linecap:round;stroke-linejoin:round;stroke-miterlimit:10;" x1="161.989" y1="467.566" x2="161.989" y2="467.566"/>
	
		<line style="fill:none;stroke:#000000;stroke-width:15;stroke-linecap:round;stroke-linejoin:round;stroke-miterlimit:10;" x1="489.927" y1="16.527" x2="489.927" y2="16.527"/>
</g>















</svg>
