<svg  viewBox="0 0 60 60"  xmlns="http://www.w3.org/2000/svg"><g  ><g><g ><path id="Shape" d="m30 0c-16.5685425 0-30 13.4314575-30 30s13.4314575 30 30 30 30-13.4314575 30-30c-.018737-16.5607751-13.4392249-29.98126296-30-30zm23.306 14.5-4.306 9.479c-.0115636-2.7532192-2.2467565-4.9790243-5-4.979h-18.484c.3236883-.7811968.7961127-1.4920411 1.391-2.093 1.2148541-1.2235925 2.86875-1.9102851 4.593-1.907h3.5c1.6568542 0 3-1.3431458 3-3-.0082058-1.6534434-1.3465566-2.99179417-3-3h-4c-1.6568542 0-3-1.34314575-3-3v-3.921c.661-.047 1.327-.079 2-.079 9.3712016.00309051 18.1192674 4.69505062 23.306 12.5zm-37.306 24.5c-1.6568542 0-3-1.3431458-3-3v-12c0-1.6568542 1.3431458-3 3-3h28c1.6568542 0 3 1.3431458 3 3v12c0 1.6568542-1.3431458 3-3 3zm25.26 2-.362.8c-.2761382.6098571-.8340525 1.0453104-1.4927151 1.1650672-.6586625.1197568-1.3341498-.0914416-1.8072849-.5650672-.3746443-.3705766-.5892992-.8731133-.598-1.4zm-15.26-38.71v3.71c.0033061 2.76005315 2.2399468 4.9966939 5 5h4c.2694422-.0008733.5272084.1099083.712.306.1865985.1823963.2906276.4330776.288.694 0 .5522847-.4477153 1-1 1h-3.5c-3.7269512-.0027749-7.0165898 2.4339945-8.1 6h-7.4c-1.2643765.0020441-2.4803613.4862922-3.4 1.354-.3963054-.7499565-.602341-1.5857741-.6-2.434.0056754-2.1477226-.9477471-4.1858466-2.6-5.558l-.661-.551c4.4081697-5.1625062 10.5428554-8.54633923 17.261-9.521zm-18.512 11.082.633.527c1.1943585.9932686 1.883308 2.4675985 1.879 4.021.0073758 1.5126416.4862718 2.9853342 1.37 4.213-.2427011.5926127-.3683473 1.2266166-.37 1.867v10.083c-.2412915.2785264-.5041007.5376577-.786.775-1.0111694.8298894-1.82112023 1.8781415-2.369 3.066-.55558578 1.1848699-.84405305 2.4773398-.845 3.786v4.232c-6.84195421-9.8369644-6.64559349-22.9424328.488-32.57zm11.183 42.228 3.729-6.525c.7315805-1.2820287 2.093922-2.0738658 3.57-2.075h1.91c1.0932058-.0027286 2.142096.4318785 2.913 1.207 1.1450103 1.1515336 2.7030971 1.7971656 4.327 1.793 1.5086195-.0029956 2.9337372.6922107 3.86 1.883l2.743 3.535c-7.2990993 3.379136-15.7013057 3.4443795-23.052.179zm24.87-1.1-2.984-3.844c-1.3034511-1.6792689-3.3112267-2.6600767-5.437-2.656-1.0932058.0027286-2.142096-.4318785-2.913-1.207-1.1450103-1.1515336-2.7030971-1.7971656-4.327-1.793h-1.91c-2.1944859.0012695-4.2200863 1.1781633-5.308 3.084l-3.794 6.636c-2.9742363-1.5888496-5.6391528-3.6986316-7.868-6.229v-6.781c.0013251-1.0166892.22595098-2.0206781.658-2.941.3462158-.7462719.8280573-1.4217316 1.421-1.992.378689 2.4262498 2.4653826 4.2169645 4.921 4.223h19c.0175724 1.8954252 1.3514773 3.5233631 3.2064523 3.9132516s3.731392-.563287 4.5105477-2.2912516l.738-1.622h.545c2.7600532-.0033061 4.9966939-2.2399468 5-5v-7.194l5.562-12.235c7.405621 13.5198988 2.4766785 30.4829567-11.021 37.929z"/><path id="Shape" d="m39 23h-2c-.5522847 0-1 .4477153-1 1v12c0 .5522847.4477153 1 1 1s1-.4477153 1-1v-5h1c2.209139 0 4-1.790861 4-4s-1.790861-4-4-4zm0 6h-1v-4h1c1.1045695 0 2 .8954305 2 2s-.8954305 2-2 2z"/><path id="Shape" d="m30 23h-2c-.5522847 0-1 .4477153-1 1v12c0 .5522847.4477153 1 1 1h2c2.209139 0 4-1.790861 4-4v-6c0-2.209139-1.790861-4-4-4zm2 10c0 1.1045695-.8954305 2-2 2h-1v-10h1c1.1045695 0 2 .8954305 2 2z"/></g><path id="Path" d="m21 25c1.1045695 0 2 .8954305 2 2 0 .5522847.4477153 1 1 1s1-.4477153 1-1c0-2.209139-1.790861-4-4-4s-4 1.790861-4 4v6c0 2.209139 1.790861 4 4 4s4-1.790861 4-4v-2c0-.5522847-.4477153-1-1-1h-2c-.5522847 0-1 .4477153-1 1s.4477153 1 1 1h1v1c0 1.1045695-.8954305 2-2 2s-2-.8954305-2-2v-6c0-1.1045695.8954305-2 2-2z"/></g></g></svg>