<svg xmlns="http://www.w3.org/2000/svg" version="1.1" xmlns:xlink="http://www.w3.org/1999/xlink" xmlns:svgjs="http://svgjs.com/svgjs" width="512" height="512" x="0" y="0" viewBox="0 0 60 60" style="enable-background:new 0 0 512 512" xml:space="preserve" class=""><g><g fill="#000" fill-rule="nonzero"><path d="M27 29a5 5 0 1 0 0-10 5 5 0 0 0 0 10zm0-8a3 3 0 1 1 0 6 3 3 0 0 1 0-6zM38 30a3 3 0 1 0 0-6 3 3 0 0 0 0 6zm0-4a1 1 0 1 1 0 2 1 1 0 0 1 0-2zM19 35a3 3 0 1 0 0-6 3 3 0 0 0 0 6zm0-4a1 1 0 1 1 0 2 1 1 0 0 1 0-2zM25 37a6 6 0 1 0 12 0 6 6 0 0 0-12 0zm10 0a4 4 0 1 1-8 0 4 4 0 0 1 8 0z" fill="#b8ff4d" data-original="#000000" class=""></path><path d="M4 34a3.945 3.945 0 0 0 2.1-.6 1.77 1.77 0 0 1 1.016-.335c1.282.067 3.185.209 5.252.5.144.732.335 1.453.572 2.16a59.732 59.732 0 0 1-4.359 3.1 1.471 1.471 0 0 1-.87.175 4.054 4.054 0 0 0-2.851.977 3.979 3.979 0 0 0-1.137 4.416 4 4 0 0 0 5.748 2.074 3.934 3.934 0 0 0 1.54-1.581c.149-.327.393-.6.7-.786.979-.5 3.44-1.58 4.824-2.167.49.546 1.012 1.06 1.565 1.542a57.995 57.995 0 0 1-2.244 4.888c-.151.258-.381.46-.656.577a4.013 4.013 0 0 0-.753 6.657 4.04 4.04 0 0 0 2.559.922A4.007 4.007 0 0 0 21 52.4a1.8 1.8 0 0 1 .218-1.047c.7-1.08 1.778-2.661 3.065-4.307.697.238 1.408.432 2.129.581.139 1.225.468 4.2.521 5.347a1.408 1.408 0 0 1-.271.82 4.012 4.012 0 0 0 2.668 6.155c.222.035.446.052.67.051a3.991 3.991 0 0 0 4-4 3.942 3.942 0 0 0-.615-2.129 1.705 1.705 0 0 1-.317-.98c.067-1.283.206-3.184.5-5.252.73-.151 1.451-.348 2.157-.59a58.169 58.169 0 0 1 3.109 4.385c.147.26.207.56.171.856a4.013 4.013 0 0 0 5.388 3.981 4 4 0 0 0 2.073-5.753 3.933 3.933 0 0 0-1.566-1.524 1.8 1.8 0 0 1-.8-.714 62.066 62.066 0 0 1-2.2-4.809 17.651 17.651 0 0 0 1.566-1.553c2.4 1.041 4.175 1.849 4.889 2.222a1.4 1.4 0 0 1 .583.662 4.016 4.016 0 0 0 6.617.808 4 4 0 0 0-1.042-6.08 3.954 3.954 0 0 0-2.168-.53 1.643 1.643 0 0 1-.985-.215 53.056 53.056 0 0 1-4.292-3.067 17.5 17.5 0 0 0 .563-2.152 58.59 58.59 0 0 1 5.345-.5c.298.002.588.1.826.28A4 4 0 1 0 56 26a3.942 3.942 0 0 0-2.1.6c-.298.21-.652.327-1.016.335a61.188 61.188 0 0 1-5.251-.5 17.361 17.361 0 0 0-.572-2.161 60.033 60.033 0 0 1 4.358-3.1c.264-.147.567-.208.867-.174a4.03 4.03 0 0 0 2.85-.978 3.979 3.979 0 0 0 1.137-4.416 4.005 4.005 0 0 0-5.749-2.074 3.944 3.944 0 0 0-1.539 1.581c-.149.327-.393.6-.7.786-.979.5-3.44 1.58-4.824 2.167a17.745 17.745 0 0 0-1.561-1.541 57.995 57.995 0 0 1 2.244-4.888 1.4 1.4 0 0 1 .656-.577A4 4 0 1 0 39 7.6a1.8 1.8 0 0 1-.218 1.047c-.7 1.08-1.777 2.66-3.065 4.306a17.662 17.662 0 0 0-2.129-.581c-.139-1.23-.469-4.213-.521-5.353.002-.29.096-.573.268-.807A4 4 0 1 0 26 4a3.95 3.95 0 0 0 .613 2.126c.205.288.317.632.319.986-.057 1.094-.351 3.766-.535 5.257a17.38 17.38 0 0 0-2.119.582 57.128 57.128 0 0 1-3.109-4.385A1.4 1.4 0 0 1 21 7.712a4 4 0 1 0-5.893 3.295c.333.15.612.4.8.713a61.737 61.737 0 0 1 2.2 4.81 17.631 17.631 0 0 0-1.565 1.552c-1.13-.49-3.868-1.688-4.89-2.222a1.4 1.4 0 0 1-.583-.662 4.005 4.005 0 1 0-5.581 5.272c.657.38 1.41.564 2.168.53.342-.032.686.043.983.215a52.168 52.168 0 0 1 4.291 3.068c-.233.705-.42 1.424-.562 2.152-2.266.321-4.282.45-5.344.5a1.4 1.4 0 0 1-.826-.28A4 4 0 1 0 4 34zm15.54 16.26a3.729 3.729 0 0 0-.54 2.2c.012.37-.08.736-.268 1.055a2 2 0 1 1-2.632-2.792 3.331 3.331 0 0 0 1.532-1.45 61.137 61.137 0 0 0 2.1-4.5 18.05 18.05 0 0 0 2.613 1.509 65.203 65.203 0 0 0-2.805 3.978zm22.775-1.071c.37.68.942 1.227 1.637 1.568A2 2 0 1 1 41 52.4a3.335 3.335 0 0 0-.49-2.051 60.581 60.581 0 0 0-2.848-4.061 17.9 17.9 0 0 0 2.608-1.518 64.89 64.89 0 0 0 2.045 4.419zm10.461-20.26a3.71 3.71 0 0 0 2.175-.633 2.054 2.054 0 0 1 2.576.409 2 2 0 0 1-2.633 2.966 3.366 3.366 0 0 0-2.021-.6c-.995.045-2.829.161-4.938.436a17.96 17.96 0 0 0 0-3.015 64.47 64.47 0 0 0 4.841.437zM40.46 9.74c.404-.66.592-1.428.54-2.2-.012-.37.08-.736.268-1.055A2 2 0 1 1 43.9 9.277a3.338 3.338 0 0 0-1.531 1.45 59.382 59.382 0 0 0-2.095 4.5 18.05 18.05 0 0 0-2.613-1.509A67.474 67.474 0 0 0 40.46 9.74zm-22.775 1.071a3.732 3.732 0 0 0-1.636-1.567A2 2 0 1 1 19 7.606c-.063.718.11 1.438.49 2.05a59.513 59.513 0 0 0 2.85 4.063c-.911.43-1.785.937-2.611 1.513a63.41 63.41 0 0 0-2.044-4.421zm-7.96 8.723A3.574 3.574 0 0 0 7.564 19a1.937 1.937 0 0 1-1.079-.264A2 2 0 1 1 9.277 16.1a3.343 3.343 0 0 0 1.452 1.54c1.032.538 3.582 1.659 5.01 2.279a2 2 0 0 0 2.295-.525 15.961 15.961 0 0 1 8.758-5.061A2 2 0 0 0 28.4 12.6c.173-1.518.472-4.236.531-5.384a3.659 3.659 0 0 0-.631-2.162A1.955 1.955 0 0 1 28 4a2 2 0 1 1 3.666 1.114 3.324 3.324 0 0 0-.6 2c.053 1.157.356 3.935.532 5.488a2 2 0 0 0 1.607 1.73 15.947 15.947 0 0 1 8.755 5.059 2.005 2.005 0 0 0 2.3.523c1.4-.61 3.9-1.712 4.934-2.236a3.719 3.719 0 0 0 1.548-1.621c.177-.33.444-.604.77-.789a2 2 0 0 1 2.325 3.232 2.052 2.052 0 0 1-1.44.5 3.364 3.364 0 0 0-2.06.487 60.722 60.722 0 0 0-4.514 3.207 2.009 2.009 0 0 0-.648 2.225c1.1 3.297 1.1 6.861 0 10.158a2.01 2.01 0 0 0 .648 2.222 60.037 60.037 0 0 0 4.454 3.164c.645.402 1.4.59 2.159.537.378-.02.753.071 1.079.264a2 2 0 1 1-2.792 2.636 3.336 3.336 0 0 0-1.452-1.539c-1.021-.533-3.576-1.657-5.009-2.279a2 2 0 0 0-2.3.525 15.887 15.887 0 0 1-9.44 5.182c-.437.072-.776.42-.836.859a62.147 62.147 0 0 0-.618 6.136 3.637 3.637 0 0 0 .628 2.158c.2.316.306.683.304 1.058a2 2 0 0 1-.7 1.529 2.005 2.005 0 0 1-2.962-2.64c.41-.588.62-1.292.6-2.008-.054-1.165-.356-3.935-.532-5.482a2 2 0 0 0-1.606-1.728 15.948 15.948 0 0 1-8.756-5.06 2.023 2.023 0 0 0-1.513-.687c-.271 0-.54.056-.789.164-1.4.61-3.9 1.712-4.934 2.236a3.719 3.719 0 0 0-1.548 1.621 1.969 1.969 0 0 1-.77.789A2 2 0 0 1 6.163 41.5 2.043 2.043 0 0 1 7.6 41c.72.061 1.442-.11 2.059-.488a60.71 60.71 0 0 0 4.515-3.208c.665-.53.924-1.42.648-2.224-1.1-3.296-1.1-6.86 0-10.155a2.01 2.01 0 0 0-.647-2.226 58.922 58.922 0 0 0-4.45-3.165zm-7.7 10.119a2.012 2.012 0 0 1 3.077-1.324c.591.413 1.3.623 2.021.6 1.2-.054 2.959-.176 4.937-.435-.041.5-.063 1-.063 1.506s.023 1.009.064 1.508a64.47 64.47 0 0 0-4.841-.437 3.753 3.753 0 0 0-2.175.633 2.052 2.052 0 0 1-2.572-.404 1.994 1.994 0 0 1-.444-1.647z" fill="#b8ff4d" data-original="#000000" class=""></path></g></g></svg>