<svg height="512pt" viewBox="0 -6 512 511" width="512pt" xmlns="http://www.w3.org/2000/svg"><path d="m258.785156 458.640625c-7.15625.984375-14.433594 1.609375-21.722656 1.867187v-19.164062c0-4.269531-3.460938-7.730469-7.730469-7.730469s-7.734375 3.460938-7.734375 7.730469v18.699219c-23.949218-3.726563-46.574218-24.714844-64.394531-60.046875-4.023437-7.972656-7.6875-16.476563-10.984375-25.414063 4.492188-.941406 9.050781-1.808593 13.667969-2.59375 4.210937-.714843 7.042969-4.703125 6.332031-8.914062-.714844-4.210938-4.707031-7.046875-8.917969-6.328125-5.4375.921875-10.789062 1.960937-16.066406 3.09375-9.71875-31.496094-15.203125-67.539063-15.863281-105.324219h3.371094c4.269531 0 7.730468-3.460937 7.730468-7.730469 0-4.269531-3.460937-7.734375-7.730468-7.734375h-3.371094c.660156-37.804687 6.148437-73.867187 15.882812-105.375 25.304688 5.414063 52.523438 8.511719 80.347656 8.996094v13.445313c0 4.269531 3.460938 7.730468 7.730469 7.730468s7.730469-3.460937 7.730469-7.730468v-13.445313c27.800781-.484375 55-3.574219 80.285156-8.980469 4.503906 14.585938 8.152344 30.222656 10.792969 46.53125.683594 4.214844 4.65625 7.082032 8.867187 6.394532 4.214844-.683594 7.078126-4.652344 6.398438-8.867188-2.742188-16.917969-6.429688-32.847656-10.925781-47.625 21.894531-5.667969 42.035156-13.148438 59.492187-22.214844 12.46875 14.589844 22.992188 30.839844 31.203125 48.398438 1.808594 3.871094 6.410157 5.539062 10.28125 3.730468 3.867188-1.808593 5.535157-6.410156 3.726563-10.28125-18.21875-38.964843-46.964844-71.972656-83.128906-95.453124-37.132813-24.105469-80.257813-36.847657-124.722657-36.847657-61.253906 0-118.84375 23.851563-162.160156 67.167969-43.316406 43.3125-67.171875 100.902344-67.171875 162.160156 0 61.253906 23.855469 118.847656 67.167969 162.160156 43.316406 43.3125 100.90625 67.167969 162.164062 67.167969 10.558594 0 21.179688-.726562 31.5625-2.15625 4.230469-.582031 7.1875-4.484375 6.605469-8.714843-.582031-4.226563-4.480469-7.183594-8.714844-6.601563zm-132.625-95.234375c-21.917968 5.691406-42.023437 13.191406-59.378906 22.203125-30.410156-35.558594-49.378906-81.171875-51.164062-131.09375h94.285156c.660156 38.898437 6.273437 76.144531 16.257812 108.890625zm-16.257812-124.355469h-94.285156c1.785156-49.921875 20.753906-95.535156 51.167968-131.09375 17.433594 9.042969 37.535156 16.503907 59.386719 22.160157-9.988281 32.757812-15.609375 70.019531-16.269531 108.933593zm36.328125-120.097656c3.296875-8.929687 6.953125-17.417969 10.972656-25.382813 17.820313-35.332031 40.445313-56.320312 64.394531-60.046874v93.683593c-26.125-.472656-51.640625-3.304687-75.367187-8.253906zm90.832031 8.253906v-93.6875c23.3125 3.609375 41.125 22.960938 52.355469 39.457031 8.765625 12.878907 16.511719 28.480469 22.957031 45.988282-23.710938 4.941406-49.207031 7.769531-75.3125 8.242187zm108.570312-59.933593c12.886719 8.367187 24.753907 18.039062 35.460938 28.816406-15.84375 7.839844-33.910156 14.34375-53.484375 19.347656-11.957031-33.140625-28.253906-59.398438-47.171875-76.359375 23.054688 5.652344 45.070312 15.128906 65.195312 28.195313zm-167.695312-28.101563c-12.785156 11.53125-24.46875 27.464844-34.542969 47.433594-4.550781 9.023437-8.664062 18.671875-12.335937 28.832031-19.53125-4.992188-37.566406-11.480469-53.386719-19.296875 27.171875-27.351563 61.667969-47.410156 100.265625-56.96875zm-100.265625 358.253906c15.734375-7.777343 33.777344-14.289062 53.382813-19.316406 3.671874 10.167969 7.789062 19.820313 12.339843 28.851563 10.074219 19.96875 21.757813 35.90625 34.542969 47.433593-38.597656-9.558593-73.09375-29.617187-100.265625-56.96875zm0 0"/><path d="m341.734375 206.890625-12.730469 12.734375-12.734375-12.734375c-38.890625-38.882813-102.164062-38.882813-141.050781 0-38.890625 38.890625-38.890625 102.164063 0 141.054687l148.316406 148.316407c1.511719 1.507812 3.488282 2.265625 5.46875 2.265625 1.976563 0 3.957032-.753906 5.464844-2.265625l148.320312-148.316407c38.886719-38.890624 38.886719-102.164062 0-141.054687-38.890624-38.882813-102.167968-38.882813-141.054687 0zm130.117187 130.121094-142.847656 142.847656-142.851562-142.847656c-15.917969-15.917969-24.683594-37.082031-24.683594-59.59375s8.765625-43.675781 24.683594-59.59375c16.429687-16.429688 38.007812-24.640625 59.59375-24.640625 21.578125 0 43.164062 8.214844 59.589844 24.640625l18.199218 18.199219c3.019532 3.019531 7.914063 3.019531 10.933594 0l18.199219-18.199219c32.859375-32.855469 86.324219-32.855469 119.183593 0 15.917969 15.917969 24.683594 37.082031 24.683594 59.59375s-8.765625 43.671875-24.683594 59.59375zm0 0"/><path d="m420.316406 325.8125h-42.636718c-3.09375 0-5.890626 1.847656-7.109376 4.695312l-13.425781 31.417969-18.390625-92.722656c-.703125-3.53125-3.753906-6.113281-7.351562-6.222656-3.582032-.109375-6.800782 2.285156-7.714844 5.769531l-18.488281 70.644531-14.558594-36.65625c-1.011719-2.539062-3.289063-4.359375-5.988281-4.78125-2.703125-.421875-5.429688.609375-7.167969 2.722657l-20.703125 25.136718h-25.421875c-4.269531 0-7.734375 3.460938-7.734375 7.730469s3.464844 7.730469 7.734375 7.730469h29.070313c2.308593 0 4.496093-1.03125 5.96875-2.816406l14.699218-17.847657 18.425782 46.394531c1.234374 3.101563 4.324218 5.078126 7.65625 4.859376 3.335937-.203126 6.164062-2.523438 7.007812-5.757813l15.941406-60.894531 16.710938 84.25c.660156 3.324218 3.40625 5.835937 6.78125 6.1875.269531.027344.539062.039062.804687.039062 3.066407 0 5.878907-1.824218 7.105469-4.691406l21.25-49.722656h37.535156c4.269532 0 7.730469-3.460938 7.730469-7.730469s-3.457031-7.734375-7.730469-7.734375zm0 0"/><path d="m420.316406 22.035156c4.273438 0 7.734375-3.464844 7.734375-7.734375v-6.070312c0-4.269531-3.460937-7.730469-7.734375-7.730469-4.269531 0-7.730468 3.460938-7.730468 7.730469v6.070312c0 4.269531 3.460937 7.734375 7.730468 7.734375zm0 0"/><path d="m420.316406 62.984375c4.273438 0 7.734375-3.460937 7.734375-7.730469v-6.070312c0-4.269532-3.460937-7.734375-7.734375-7.734375-4.269531 0-7.730468 3.464843-7.730468 7.734375v6.070312c0 4.269532 3.460937 7.730469 7.730468 7.730469zm0 0"/><path d="m396.808594 39.472656h6.070312c4.269532 0 7.730469-3.460937 7.730469-7.730468 0-4.269532-3.460937-7.734376-7.730469-7.734376h-6.070312c-4.269532 0-7.734375 3.464844-7.734375 7.734376 0 4.269531 3.464843 7.730468 7.734375 7.730468zm0 0"/><path d="m437.757812 39.472656h6.070313c4.269531 0 7.730469-3.460937 7.730469-7.730468 0-4.269532-3.460938-7.734376-7.730469-7.734376h-6.070313c-4.269531 0-7.730468 3.464844-7.730468 7.734376 0 4.269531 3.460937 7.730468 7.730468 7.730468zm0 0"/><path d="m457.246094 423.621094c-4.269532 0-7.730469 3.460937-7.730469 7.730468v6.070313c0 4.269531 3.460937 7.734375 7.730469 7.734375 4.269531 0 7.734375-3.464844 7.734375-7.734375v-6.070313c0-4.269531-3.464844-7.730468-7.734375-7.730468zm0 0"/><path d="m457.246094 464.574219c-4.269532 0-7.730469 3.460937-7.730469 7.730469v6.070312c0 4.269531 3.460937 7.730469 7.730469 7.730469 4.269531 0 7.734375-3.460938 7.734375-7.730469v-6.070312c0-4.269532-3.464844-7.730469-7.734375-7.730469zm0 0"/><path d="m439.804688 447.132812h-6.070313c-4.269531 0-7.730469 3.460938-7.730469 7.730469s3.460938 7.730469 7.730469 7.730469h6.070313c4.269531 0 7.734374-3.460938 7.734374-7.730469s-3.464843-7.730469-7.734374-7.730469zm0 0"/><path d="m480.757812 447.132812h-6.070312c-4.269531 0-7.730469 3.460938-7.730469 7.730469s3.460938 7.730469 7.730469 7.730469h6.070312c4.269532 0 7.730469-3.460938 7.730469-7.730469s-3.460937-7.730469-7.730469-7.730469zm0 0"/><path d="m480.757812 122.898438c4.269532 0 7.730469-3.460938 7.730469-7.734376v-6.066406c0-4.273437-3.460937-7.734375-7.730469-7.734375-4.269531 0-7.730468 3.460938-7.730468 7.734375v6.066406c0 4.269532 3.460937 7.734376 7.730468 7.734376zm0 0"/><path d="m480.757812 163.847656c4.269532 0 7.730469-3.460937 7.730469-7.730468v-6.070313c0-4.269531-3.460937-7.730469-7.730469-7.730469-4.269531 0-7.730468 3.460938-7.730468 7.730469v6.070313c0 4.269531 3.460937 7.730468 7.730468 7.730468zm0 0"/><path d="m457.246094 140.335938h6.070312c4.269532 0 7.730469-3.460938 7.730469-7.730469s-3.460937-7.730469-7.730469-7.730469h-6.070312c-4.269532 0-7.730469 3.460938-7.730469 7.730469s3.460937 7.730469 7.730469 7.730469zm0 0"/><path d="m498.199219 140.335938h6.070312c4.269531 0 7.730469-3.460938 7.730469-7.730469s-3.460938-7.730469-7.730469-7.730469h-6.070312c-4.269531 0-7.734375 3.460938-7.734375 7.730469s3.464844 7.730469 7.734375 7.730469zm0 0"/></svg>