<svg id="Capa_1" enable-background="new 0 0 511.954 511.954" height="512" viewBox="0 0 511.954 511.954" width="512" xmlns="http://www.w3.org/2000/svg"><g><path d="m332.854 384.39c2.303 3.443 6.963 4.366 10.403 2.063 43.751-29.269 69.87-78.126 69.87-130.694 0-86.653-70.497-157.15-157.15-157.15s-157.15 70.497-157.15 157.15 70.497 157.15 157.15 157.15c20.576 0 40.585-3.919 59.471-11.648 3.834-1.569 5.669-5.949 4.101-9.782-1.569-3.834-5.949-5.669-9.782-4.101-5.053 2.068-10.197 3.826-15.416 5.289 11.477-13.07 21.052-31.918 27.833-54.746 11.064 5.831 21.348 13.17 30.66 21.869-5.538 5.153-11.52 9.91-17.926 14.196-3.443 2.303-4.367 6.961-2.064 10.404zm.336-136.13c-.479-21.673-3.027-42.069-7.262-60.418 13.393-6.66 25.816-15.265 36.969-25.649 20.382 23.261 33.317 53.202 35.034 86.067zm-184.469 100.686c-20.189-23.207-32.988-53.002-34.695-85.687h64.741c.474 21.428 2.971 41.606 7.121 59.792-13.478 6.719-25.969 15.407-37.167 25.895zm41.05-11.026c6.775 22.809 16.341 41.646 27.805 54.715-22.112-6.212-42.054-17.653-58.413-32.895 9.299-8.676 19.565-15.999 30.608-21.82zm-75.746-89.66c1.717-32.865 14.651-62.805 35.033-86.067 11.153 10.384 23.576 18.99 36.97 25.649-4.235 18.349-6.783 38.745-7.262 60.417h-64.741zm45.513-96.83c16.289-15.068 36.096-26.382 58.039-32.546-11.364 12.954-20.859 31.578-27.624 54.117-10.963-5.758-21.163-12.998-30.415-21.571zm162.464 21.571c-6.764-22.539-16.26-41.162-27.623-54.116 21.943 6.164 41.75 17.478 58.039 32.546-9.253 8.571-19.453 15.812-30.416 21.57zm-23.452 185.289c-11.711 25.078-27.228 39.461-42.573 39.461s-30.861-14.383-42.572-39.461c-3.8-8.138-7.078-17.106-9.825-26.697 9.083-3.591 18.572-6.265 28.378-7.932 4.084-.694 6.832-4.567 6.138-8.651-.694-4.083-4.569-6.833-8.65-6.137-10.183 1.73-20.061 4.428-29.544 8.036-3.604-16.675-5.708-34.815-6.148-53.65h26.571c4.142 0 7.5-3.358 7.5-7.5s-3.358-7.5-7.5-7.5h-26.571c.446-19.076 2.593-37.446 6.281-54.295 9.551 3.624 19.503 6.323 29.76 8.041.42.07.837.104 1.249.104 3.598 0 6.774-2.596 7.388-6.261.685-4.085-2.072-7.952-6.157-8.637-9.851-1.651-19.382-4.32-28.509-7.913 2.71-9.353 5.923-18.111 9.64-26.07 11.711-25.078 27.228-39.461 42.572-39.461s30.862 14.383 42.573 39.461c3.717 7.959 6.931 16.718 9.64 26.07-9.126 3.593-18.658 6.262-28.509 7.913-4.085.685-6.842 4.551-6.157 8.637.614 3.666 3.79 6.261 7.388 6.261.411 0 .829-.034 1.248-.104 10.257-1.719 20.209-4.417 29.76-8.042 3.689 16.85 5.835 35.219 6.281 54.296h-22.387c-4.143 0-7.5 3.358-7.5 7.5s3.357 7.5 7.5 7.5h22.387c-.441 18.836-2.545 36.976-6.148 53.651-9.483-3.608-19.362-6.306-29.545-8.037-4.088-.694-7.957 2.055-8.65 6.138-.694 4.083 2.054 7.957 6.137 8.65 9.807 1.667 19.296 4.341 28.38 7.932-2.747 9.591-6.026 18.559-9.826 26.697zm34.64-95.03h64.727c-1.677 31.958-14.018 62.02-34.637 85.729-11.211-10.507-23.717-19.209-37.211-25.937 4.15-18.186 6.647-38.364 7.121-59.792z"/><path d="m496.96 169.288 3.9-2.545c7.253-4.729 11.303-12.714 10.834-21.359-.469-8.644-5.356-16.142-13.077-20.058l-51.247-25.976c-7.713-3.913-16.647-3.431-23.898 1.294-7.254 4.727-11.307 12.711-10.841 21.362l3.115 57.356c.466 8.643 5.353 16.142 13.072 20.059 7.406 3.759 15.936 3.468 23.021-.735 8.641 29.708 10.404 61.354 5.066 92.121-7.201 41.508-26.814 79.256-56.72 109.161-38.521 38.521-89.735 59.737-144.208 59.737-43.589 0-85.067-13.469-119.95-38.951-10.5-7.67-25.131-6.347-34.034 3.078l-.304.321c-5.072 5.327-7.604 12.594-6.946 19.938.665 7.428 4.506 14.218 10.538 18.629 43.83 32.054 95.925 48.996 150.668 48.995h.052c68.354 0 132.621-26.623 180.965-74.967 37.534-37.535 62.152-84.929 71.191-137.056 7.61-43.848 3.732-88.801-11.197-130.404zm-3.581 127.841c-8.508 49.064-31.683 93.676-67.02 129.013-45.51 45.51-106.01 70.573-170.359 70.573-.008 0-.016 0-.024 0-.009 0-.015 0-.025 0-51.535 0-100.576-15.942-141.815-46.103-2.549-1.864-4.172-4.729-4.452-7.858-.277-3.091.742-6.024 2.867-8.255l.348-.367c3.728-3.945 9.868-4.489 14.281-1.265 37.468 27.371 82.006 41.838 128.797 41.838 58.479 0 113.46-22.776 154.815-64.131 32.104-32.104 53.159-72.632 60.892-117.204 6.324-36.452 3.356-74.064-8.582-108.77-.752-2.186-2.469-3.903-4.655-4.654-2.187-.75-4.596-.452-6.532.811l-7.368 4.803c-3.909 2.549-7.557 1.188-8.94.484-1.385-.703-4.632-2.838-4.882-7.493l-3.115-57.356c-.251-4.66 2.75-7.137 4.052-7.985 1.3-.848 4.771-2.59 8.926-.483l51.247 25.977c4.154 2.108 4.799 5.941 4.883 7.492s-.143 5.434-4.052 7.983l-8.925 5.824c-2.965 1.935-4.173 5.68-2.897 8.982 15.693 40.648 20.028 84.959 12.535 128.144z"/><path d="m99.326 389.513-3.119-57.356c-.465-8.643-5.352-16.141-13.072-20.058-7.406-3.757-15.931-3.467-23.018.734-8.646-29.703-10.41-61.349-5.07-92.123 7.192-41.495 26.807-79.241 56.725-109.158 38.515-38.526 89.729-59.743 144.206-59.743 43.578 0 85.055 13.471 119.944 38.956 10.496 7.671 25.129 6.352 34.104-3.146l.104-.104c.048-.048.096-.097.143-.146 5.068-5.329 7.598-12.598 6.939-19.944-.666-7.428-4.507-14.218-10.538-18.629-39.459-28.854-86.232-45.64-135.263-48.542-4.147-.254-7.686 2.909-7.931 7.043-.244 4.135 2.909 7.686 7.044 7.93 46.148 2.732 90.167 18.527 127.295 45.676 2.549 1.864 4.172 4.73 4.452 7.862.275 3.066-.723 5.978-2.811 8.206-.145.145-.288.292-.432.446-3.733 3.921-9.854 4.456-14.258 1.236-37.478-27.375-82.014-41.844-128.794-41.844-58.484 0-113.465 22.778-154.813 64.137-32.116 32.115-53.173 72.643-60.896 117.201-6.327 36.461-3.357 74.074 8.588 108.774.752 2.186 2.471 3.902 4.657 4.652s4.597.451 6.532-.812l7.36-4.8c3.912-2.551 7.557-1.189 8.943-.486 1.384.703 4.63 2.838 4.881 7.491l3.119 57.356c.251 4.662-2.752 7.139-4.055 7.987-1.3.847-4.77 2.587-8.925.48l-51.251-25.981c-4.149-2.102-4.794-5.93-4.879-7.478-.085-1.553.139-5.439 4.044-7.989l8.93-5.82c2.968-1.934 4.178-5.68 2.902-8.985-15.698-40.653-20.033-84.965-12.537-128.147 8.502-49.056 31.676-93.67 67.014-129.018 41.763-41.763 97.108-66.675 155.839-70.146 4.135-.244 7.289-3.794 7.044-7.929-.244-4.135-3.793-7.292-7.929-7.044-62.4 3.689-121.197 30.152-165.561 74.515-37.537 37.547-62.152 84.942-71.186 137.06-7.611 43.845-3.734 88.796 11.197 130.406l-3.908 2.546c-7.253 4.735-11.3 12.725-10.827 21.373.473 8.638 5.362 16.129 13.076 20.037l51.247 25.979c3.463 1.757 7.17 2.629 10.861 2.629 4.534 0 9.042-1.315 13.038-3.919 7.257-4.728 11.311-12.713 10.845-21.365z"/><path d="m286.165 279.568c2.381-14.167-5.02-26.48-18.854-31.371-8.06-2.849-16.984-6.299-22.07-10.288-1.953-1.532-2.795-4.75-2.146-8.197.638-3.387 2.934-7.493 7.463-8.857 9.988-3.007 16.633 2.192 17.358 2.795 3.183 2.647 7.912 2.216 10.562-.969 2.649-3.184 2.216-7.913-.969-10.562-1.393-1.159-6.625-5.122-14.572-6.625v-4.619c0-4.142-3.357-7.5-7.5-7.5-4.142 0-7.5 3.358-7.5 7.5v5.147c-.563.142-1.131.297-1.706.47-9.171 2.763-16.021 10.595-17.877 20.441-1.701 9.025 1.223 17.753 7.629 22.778 5.476 4.294 13.104 7.953 26.33 12.628 10.105 3.572 9.489 12.186 9.06 14.741-1.093 6.502-6.562 13.528-15.985 13.591-8.671.062-11.624-.411-18.411-4.851-3.467-2.268-8.115-1.296-10.382 2.17-2.268 3.466-1.296 8.115 2.17 10.382 7.495 4.903 12.754 6.574 19.173 7.091v5.184c0 4.142 3.358 7.5 7.5 7.5 4.143 0 7.5-3.358 7.5-7.5v-5.888c13.032-3.187 21.39-14.266 23.227-25.191z"/></g></svg>