<svg  viewBox="0 0 512 512" xmlns="http://www.w3.org/2000/svg"><g id="_x36_4_Globe_Education"><g><g><path d="m493.76 164.867c-14.005-53.723-49.27-99.634-99.233-127.183-182.781-101.429-383.469 107.483-274.623 285.949h-89.193c-.051 0-.092.036-.143.038h-13.112c-3.188 0-5.774 2.586-5.774 5.774s2.586 5.774 5.774 5.774h9.586c11.595 23.945 11.59 47.347-.017 71.293h-9.568c-3.188 0-5.774 2.586-5.774 5.774s2.586 5.774 5.774 5.774h10.547c-10.779 9.269-16.322 22.233-16.322 35.677 0 26.008 21.158 47.173 47.165 47.173h352.782c3.188 0 5.774-2.586 5.774-5.774s-2.586-5.774-5.774-5.774h-9.597c-11.615-23.947-11.586-47.35.013-71.301h9.584c3.188 0 5.774-2.586 5.774-5.774s-2.586-5.774-5.774-5.774h-10.569c6.886-5.967 11.86-13.945 14.391-22.947 68.892-51.143 99.338-139.231 78.309-218.699zm-11.066 3.302c11.531 44.622 6.978 89.966-11.352 129.759-21.466-10.363-31.223-27.126-31.916-27.912-21.277-32.556-37.086-6.193-47.992-1.316-13.891 6.376-30.838-15.37-11.729-25.331 21.724-11.609 11.877-42.001-21.406-46.301-3.271-.414-5.887-2.609-6.992-5.872-1.762-5.199 1.608-8.04 2.053-8.842 6.016-5.652 15.593-9.679 23.045-15.647 8.94-7.263 15.955-20.323 10.263-31.827-10.478-21.28-40.444-7.523-49.925-24.669-16.391-29.304 34.041-53.664 47.11-65.124 49.052 25.343 84.98 70.287 98.841 123.082zm-301.801-107.145c-9.859 14.581-4.097 25.3 10.044 36.135 13.166 10.1 12.642 13.513.459 23.406-4.662 3.774-9.947 8.06-12.744 14.188-6.614 14.602 3.426 28.53 13.383 39.406 3.564 3.902 6.932 7.586 9.286 11.767 3.158 5.609 4.135 13.767-.256 17.827-4.271 3.917-12.098 3.188-23.406-2.008-28.816-12.912-44.644-5.387-46.211 26.368-.165 3.376-.316 6.556-.767 9.414-1.936 11.688-10.752 22.075-23.076 27.672-19.664-76.191 9.009-157.028 73.288-204.175zm-70.137 215.313c16.599-6.977 28.674-20.945 31.331-36.975 2.9-18.555-3.945-42.654 30.797-27.098 36.579 16.783 50.672-10.35 38.504-32-3-5.338-6.985-9.692-10.835-13.902-2.263-2.474-4.534-4.947-6.571-7.647-20.383-26.714 18.686-27.393 18.15-50.226-.386-16.774-21.83-21.544-24.271-31.602-2.354-9.781 14.117-18.97 19.678-32.261 50.989-26 111.42-28.242 164.708-5.073-18.198 14.083-40.435 23.771-48.1 47.5-3.15 9.82-2.233 20.316 2.504 28.774 8.565 15.492 23.182 14.991 35.008 16.632 18.736 2.703 23.664 16.212-2.331 31.722-11.965 7.157-15.018 10.696-14.241 10.113-5.414 5.346-7.218 13.248-4.722 20.617 6.401 18.84 21.816 8.103 37.451 24.429 4.093 4.284 1.611 11.086-3.504 13.82-32.117 16.748-5.583 58.709 21.88 46.06 17.443-7.78 19.258-24.751 33.564-2.887.68.773 11.108 19.654 36.451 31.925-12.256 22.89-28.945 43.058-48.965 59.319-1.733-25.266-22.741-43.943-47.012-43.943h-65.015c-.104-6.214 18.842-77.782-21.241-77.782-22.993 0-34.771 43.088-44.865 69.218-1.194 3.098-1.995 5.91-2.563 8.564h-19.986-82.924c-9.624-14.544-17.415-30.394-22.88-47.297zm183.019 47.296h-45.919c.186-.021.373-.041.558-.064 2.954-9.714 21.704-66.169 35.56-66.169 25.731 0 9.89 58.004 9.801 66.233zm-253.943 11.549h176.729c9.429 0 18.391 3.729 25.226 10.489 6.707 6.699 10.398 15.662 10.398 25.226 0 19.538-15.82 35.423-35.327 35.586-97.252 0-125.225-.001-128.632-.001 5.409.001 61.142.008-48.395.031 10.038-23.707 10.038-47.624.001-71.331zm19.015 154.181c-19.639 0-35.617-15.977-35.617-35.624 0-20.131 16.23-35.511 35.313-35.677h123.068c-10.074 8.684-16.261 21.444-16.261 35.677 0 13.748 6.219 26.882 16.278 35.624zm330.406 0h-176.587-.075c-.015 0-.045 0-.075 0-19.639 0-35.617-15.977-35.617-35.624 0-20.069 16.166-35.51 35.313-35.677 97.258 0 125.233.001 128.642.001-5.409-.001-61.147-.008 48.398-.031-10.037 23.707-10.037 47.624.001 71.331zm-18.725-82.88h-123.041c10.068-8.771 16.247-21.895 16.247-35.586 0-13.409-5.517-26.368-16.293-35.714h122.789c19.087 0 35.624 15.389 35.624 35.714 0 19.537-15.82 35.423-35.326 35.586z"/><path d="m364.411 435.363h-133.173c-3.188 0-5.774 2.586-5.774 5.774s2.586 5.774 5.774 5.774h133.173c3.188 0 5.774-2.586 5.774-5.774s-2.586-5.774-5.774-5.774z"/><path d="m364.411 460.521h-133.173c-3.188 0-5.774 2.586-5.774 5.774s2.586 5.774 5.774 5.774h133.173c3.188 0 5.774-2.586 5.774-5.774s-2.586-5.774-5.774-5.774z"/><path d="m64.674 364.062h133.173c3.188 0 5.774-2.586 5.774-5.774s-2.586-5.774-5.774-5.774h-133.173c-3.188 0-5.774 2.586-5.774 5.774-.001 3.188 2.586 5.774 5.774 5.774z"/><path d="m64.674 389.22h133.173c3.188 0 5.774-2.586 5.774-5.774s-2.586-5.774-5.774-5.774h-133.173c-3.188 0-5.774 2.586-5.774 5.774-.001 3.187 2.586 5.774 5.774 5.774z"/></g></g></g></svg>