<svg id="uuid-f710dcaf-7661-41ad-9550-9cec0a3fd131" height="512" viewBox="0 0 64 64" width="512" xmlns="http://www.w3.org/2000/svg"><path d="m41 57.25h-1.25v-1.25c0-.414-.336-.75-.75-.75s-.75.336-.75.75v1.25h-1.25c-.414 0-.75.336-.75.75s.336.75.75.75h1.25v1.25c0 .414.336.75.75.75s.75-.336.75-.75v-1.25h1.25c.414 0 .75-.336.75-.75s-.336-.75-.75-.75z"/><path d="m61 51.25h-1.25v-1.25c0-.414-.336-.75-.75-.75s-.75.336-.75.75v1.25h-1.25c-.414 0-.75.336-.75.75s.336.75.75.75h1.25v1.25c0 .414.336.75.75.75s.75-.336.75-.75v-1.25h1.25c.414 0 .75-.336.75-.75s-.336-.75-.75-.75z"/><path d="m49.5 37.25c-1.24 0-2.25 1.009-2.25 2.25s1.01 2.25 2.25 2.25 2.25-1.009 2.25-2.25-1.01-2.25-2.25-2.25zm0 3c-.413 0-.75-.336-.75-.75s.337-.75.75-.75.75.336.75.75-.337.75-.75.75z"/><path d="m21.75 22c0-.414-.336-.75-.75-.75h-1.25v-1.25c0-.414-.336-.75-.75-.75s-.75.336-.75.75v1.25h-1.25c-.414 0-.75.336-.75.75s.336.75.75.75h1.25v1.25c0 .414.336.75.75.75s.75-.336.75-.75v-1.25h1.25c.414 0 .75-.336.75-.75z"/><path d="m4 10.75h1.25v1.25c0 .414.336.75.75.75s.75-.336.75-.75v-1.25h1.25c.414 0 .75-.336.75-.75s-.336-.75-.75-.75h-1.25v-1.25c0-.414-.336-.75-.75-.75s-.75.336-.75.75v1.25h-1.25c-.414 0-.75.336-.75.75s.336.75.75.75z"/><path d="m21.5 7.75c1.24 0 2.25-1.009 2.25-2.25s-1.01-2.25-2.25-2.25-2.25 1.009-2.25 2.25 1.01 2.25 2.25 2.25zm0-3c.413 0 .75.336.75.75s-.337.75-.75.75-.75-.336-.75-.75.337-.75.75-.75z"/><path d="m63.75 17c0-9.236-7.514-16.75-16.75-16.75-7.955 0-14.619 5.579-16.318 13.027-17.112.407-30.432 8.561-30.432 18.723 0 2.351.731 4.638 2.155 6.808-1.366 2.425-2.155 5.216-2.155 8.192 0 9.236 7.514 16.75 16.75 16.75 7.955 0 14.619-5.579 16.318-13.027 17.112-.407 30.432-8.562 30.432-18.723 0-2.351-.731-4.638-2.155-6.808 1.366-2.425 2.155-5.216 2.155-8.192zm-1.5 0c0 3.717-1.34 7.124-3.558 9.773l-1.228-1.473v-1.443c0-.284-.16-.544-.415-.671l-1.772-.886 1.03-5.153c.049-.246-.027-.5-.205-.677l-1.714-1.714c-.187-.187-.46-.262-.712-.197l-1.965.491-2.882-1.921-.445-2.674 2.308-1.847h1.141l1.495 1.495c.076.076.167.134.267.172l4.571 1.714c.182.068.382.062.56-.013l2.289-.981c.794 1.844 1.237 3.874 1.237 6.006zm-4.755-11.036h-1.613l-1.494-1.495c-.2-.201-.496-.271-.768-.181l-1.525.508-1.828-.366.177-.53 2.825-.787c1.569.711 2.994 1.678 4.227 2.851zm-10.495-4.214c1.311 0 2.577.184 3.792.496l-1.135.317c-.24.067-.432.249-.511.485l-.571 1.714c-.143.428.122.884.564.973l2.857.571c.129.026.261.018.385-.024l1.274-.425 1.387 1.387c.141.141.331.22.53.22h3.311c.549.682 1.042 1.41 1.469 2.181l-1.941.832-4.138-1.551-1.6-1.6c-.141-.141-.331-.22-.53-.22h-1.714c-.17 0-.336.058-.469.165l-2.857 2.286c-.212.169-.315.441-.271.708l.571 3.428c.034.205.151.386.324.501l3.429 2.286c.175.117.393.154.598.104l1.874-.468 1.13 1.13-1.063 5.321c-.066.332.098.667.4.818l1.87.935v1.251c0 .175.062.345.174.48l1.526 1.831c-2.752 2.697-6.515 4.368-10.664 4.368-1.653 0-3.241-.273-4.732-.761l.767-1.978 2.637-1.582c.226-.135.364-.379.364-.643v-1.745l1.201-.4c.17-.057.313-.172.406-.326l1.714-2.857c.069-.117.106-.25.106-.386v-1.714c0-.357-.252-.666-.603-.735l-2.459-.492-.992-2.48c-.114-.285-.39-.471-.696-.471h-3.985l-.43-1.717c-.128-.513-.733-.736-1.163-.428l-.528.377v-.733l.951-1.904 3.205-1.603c.207-.103.354-.296.4-.522l.451-2.226 1.685-.03c.408-.007.736-.341.736-.75v-1.714c0-.27-.146-.519-.38-.652l-2.618-1.486c1.266-.341 2.59-.54 3.962-.54zm-6.146 23.013-.571-1.714c-.081-.243-.281-.428-.53-.49l-1.916-.479-1.516-3.702v-.991l2.789-1.992.305 1.217c.083.334.384.568.728.568h4.063l.955 2.386c.094.235.301.407.549.457l2.254.451v.892l-1.464 2.441-1.451.483c-.306.102-.513.389-.513.711v1.861l-2.493 1.496c-.143.085-.253.216-.313.372l-.863 2.223c-.333-.147-.661-.304-.98-.473l-.65-3.35 1.464-1.627c.181-.2.239-.482.154-.739zm.271-21.833 3.411 1.935v.541l-1.55.028c-.352.006-.651.256-.722.601l-.498 2.458-3.102 1.551c-.146.073-.264.19-.336.335l-1.143 2.286c-.052.104-.079.219-.079.335v1.325l-.955-.239-.44-1.324c-.094-.28-.343-.479-.637-.509l-2.468-.248c1.426-4.097 4.54-7.409 8.518-9.076zm-8.946 10.54 2.263.227.417 1.254c.081.243.281.428.53.49l.795.199-1.049.749c-.197.141-.314.368-.314.61v1.524c0 .098.019.194.056.284l1.715 4.19c.091.221.281.386.513.443l1.886.472.303.909-1.422 1.581c-.157.175-.224.414-.179.645l.455 2.346c-3.866-2.769-6.398-7.287-6.398-12.394 0-1.217.159-2.395.429-3.53zm-27.292 24.303c1.277.552 2.578 1.02 3.903 1.39-.107.371-.207.75-.3 1.139-1.273.24-2.239 1.357-2.239 2.698 0 1.071.621 1.991 1.517 2.445-.015.278-.028.552-.035.805h-5.945c.156-3.178 1.283-6.099 3.099-8.477zm4.365-.037c-1.135-.314-2.252-.707-3.35-1.161 1.745-1.857 3.941-3.282 6.421-4.083-1.227 1.279-2.279 3.067-3.071 5.245zm.998 5.264c0 .689-.561 1.25-1.25 1.25s-1.25-.561-1.25-1.25.561-1.25 1.25-1.25 1.25.561 1.25 1.25zm-5.363 13.227c-1.816-2.378-2.943-5.299-3.099-8.477h5.949c.06 2.569.42 4.972 1.031 7.094-1.317.369-2.611.834-3.881 1.383zm1.015 1.199c1.092-.452 2.201-.841 3.328-1.155.782 2.156 1.835 3.942 3.077 5.232-2.473-.802-4.664-2.225-6.405-4.077zm10.349 4.747c-2.238-.442-4.226-2.841-5.514-6.277 1.802-.397 3.644-.612 5.514-.66v6.936zm0-8.436c-2.034.049-4.036.291-5.993.733-.595-2.016-.956-4.303-1.02-6.719h7.013v5.987zm0-7.487h-7.018c.005-.167.013-.347.022-.526 1.396-.13 2.496-1.295 2.496-2.724 0-1.164-.729-2.155-1.753-2.556.078-.312.161-.617.248-.916 1.961.444 3.967.687 6.005.736v5.987zm0-7.487c-1.877-.047-3.725-.265-5.534-.664 1.309-3.498 3.338-5.827 5.534-6.265zm-12.956-1.362c-1.021-1.745-1.544-3.557-1.544-5.402-.001-9.122 12.779-16.737 28.663-17.214-.097.727-.164 1.463-.164 2.215 0 1.318.169 2.594.458 3.825-1.335 4.788-5.097 8.549-9.884 9.883-1.23-.289-2.506-.457-3.824-.457-5.665 0-10.673 2.834-13.706 7.152zm20.449 2.129c.595 2.016.956 4.303 1.02 6.719h-7.013v-5.987c2.034-.049 4.036-.291 5.993-.733zm-5.993-.767v-6.936c2.238.442 4.226 2.841 5.514 6.277-1.802.397-3.644.612-5.514.66zm7.018 8.987c-.005.167-.013.347-.022.526-1.396.13-2.496 1.295-2.496 2.724 0 1.164.729 2.155 1.753 2.556-.078.312-.161.617-.248.916-1.961-.444-3.967-.687-6.005-.736v-5.987h7.018zm-1.018 3.25c0-.689.561-1.25 1.25-1.25s1.25.561 1.25 1.25-.561 1.25-1.25 1.25-1.25-.561-1.25-1.25zm1.02-13.271c-.782-2.156-1.835-3.942-3.077-5.232 2.473.802 4.664 2.225 6.405 4.077-1.092.452-2.201.841-3.328 1.155zm-7.02 24.437v-6.929c1.877.047 3.725.265 5.534.664-1.309 3.498-3.338 5.827-5.534 6.265zm3.928-.657c1.227-1.279 2.279-3.067 3.071-5.245 1.135.315 2.252.707 3.35 1.161-1.745 1.857-3.941 3.282-6.421 4.083zm7.436-5.282c-1.277-.552-2.578-1.02-3.903-1.39.107-.371.207-.75.3-1.139 1.273-.24 2.239-1.357 2.239-2.698 0-1.071-.621-1.991-1.517-2.445.015-.278.028-.552.035-.805h5.944c-.156 3.178-1.283 6.099-3.099 8.477zm-2.851-9.977c-.06-2.569-.42-4.972-1.031-7.094 1.317-.369 2.611-.834 3.881-1.383 1.816 2.378 2.943 5.299 3.099 8.477zm-3.058-14.795c3.703-1.591 6.654-4.567 8.243-8.271 1.702 4.265 5.103 7.666 9.368 9.368-3.704 1.589-6.679 4.54-8.27 8.243-1.702-4.249-5.091-7.638-9.34-9.341zm39.045.545c0 9.123-12.78 16.738-28.664 17.215.097-.727.164-1.463.164-2.215 0-1.318-.169-2.594-.458-3.825 1.335-4.788 5.097-8.549 9.884-9.883 1.23.289 2.506.457 3.824.457 5.665 0 10.673-2.834 13.706-7.152 1.021 1.745 1.544 3.557 1.544 5.402z"/></svg>