<svg id="Layer_1" enable-background="new 0 0 512 512" viewBox="0 0 512 512" xmlns="http://www.w3.org/2000/svg"><g id="XMLID_2_"><g id="XMLID_366_"><g id="XMLID_1_"><path id="XMLID_3304_" d="m256 512c-75.4 0-146.7-33-195.4-90.7l7.6-6.5c46.9 55.4 115.3 87.2 187.8 87.2 94.5 0 181.8-55.2 222.4-140.7l9 4.3c-20.5 43.2-52.6 79.7-92.8 105.6-41.3 26.7-89.2 40.8-138.6 40.8z"/></g><g id="XMLID_584_"><path id="XMLID_3301_" d="m407 260c-.7 0-1.5 0-2.2 0-27.9-1.1-51.1-23.8-52.7-51.6-1.2-19.9 8.3-38.6 24.9-49.4v-129c0-16.5 13.5-30 30-30s30 13.5 30 30v128.9c15.5 10.1 25 27.5 25 46.1 0 15.1-6 29.2-16.9 39.6-10.3 10-23.8 15.4-38.1 15.4zm0-250c-11 0-20 9-20 20v131.7c0 1.8-1 3.4-2.5 4.3-14.8 8.6-23.4 24.6-22.4 41.7 1.3 22.8 20.3 41.4 43.1 42.2 12.4.5 24.1-4 33-12.5 8.9-8.6 13.8-20.1 13.8-32.4 0-16-8.6-30.9-22.5-39-1.5-.9-2.5-2.5-2.5-4.3v-131.7c0-11-9-20-20-20z"/></g><g id="XMLID_582_"><path id="XMLID_3298_" d="m407 230c-13.8 0-25-11.2-25-25s11.2-25 25-25 25 11.2 25 25-11.2 25-25 25zm0-40c-8.3 0-15 6.7-15 15s6.7 15 15 15 15-6.7 15-15-6.7-15-15-15z"/></g><g id="XMLID_580_"><path id="XMLID_3297_" d="m402 39h10v146h-10z"/></g><g id="XMLID_2809_"><path id="XMLID_3296_" d="m257.5 492c-12.4 0-22.9-9.7-23.9-22l-6.6-81.8c-.2-2.8-1.3-5.5-3.1-7.7l-30.6-37.3c-4.2-5.1-6.1-11.7-5.2-18.2l6.3-48.8c.8-6-2.4-11.7-7.8-14.3l-59.4-28.5c-6.2-3-10.9-8.5-12.7-15.2l-23.7-85c-.9-3.1-1.1-6.3-.7-9.6l6.4-47.9 9.9 1.3-6.4 47.9c-.2 1.9-.1 3.8.4 5.6l23.7 85c1.1 3.9 3.8 7.1 7.4 8.8l59.4 28.5c9.3 4.5 14.7 14.4 13.4 24.6l-6.3 48.8c-.5 3.8.6 7.7 3 10.6l30.6 37.3c3.1 3.8 5 8.4 5.4 13.2l6.6 81.8c.6 7.2 6.7 12.8 13.9 12.8 4.9 0 9.5-2.6 12-6.9l53.7-91.1c.7-1.3 1.3-2.6 1.6-4l18.8-84.4c1.5-6.7-2-13.4-8.4-16l-75.9-30.7c-2.5-1-5.2-1.3-7.8-.8l-29.8 5.7c-6.3 1.2-12.7-.1-18-3.7l-36.7-25c-8.2-5.6-12.1-15.8-9.8-25.4l10.7-44.6c2.1-9 9.4-16 18.4-17.9l50.2-10.4c12.9-2.7 25.6 5.6 28.3 18.5l6.1 29c.7 3.2 3.5 5.5 6.8 5.5 2.1 0 3.9-.9 5.3-2.4 1.3-1.6 1.9-3.6 1.6-5.6l-7.6-50c-1.1-7.3 1.3-14.9 6.4-20.2l33.6-34.5c4.7-4.8 5.2-12.3 1.3-17.8l-27-38.2 8.2-5.8 27.1 38.3c6.6 9.4 5.7 22.2-2.3 30.5l-33.6 34.8c-3 3.1-4.4 7.5-3.8 11.8l7.6 50c.7 4.9-.7 9.9-3.9 13.6s-7.9 5.9-12.9 5.9c-8 0-15-5.7-16.6-13.5l-6.1-29c-1.6-7.5-9-12.3-16.5-10.8l-50.2 10.4c-5.3 1.1-9.5 5.2-10.7 10.4l-10.7 44.6c-1.3 5.6 1 11.5 5.7 14.8l36.7 25c3.1 2.1 6.8 2.9 10.5 2.2l29.8-5.7c4.5-.9 9.2-.4 13.5 1.3l75.9 30.7c10.9 4.4 17 15.9 14.4 27.4l-18.8 84.4c-.5 2.4-1.5 4.8-2.7 6.9l-53.7 91.1c-4.3 7.2-12.3 11.7-20.7 11.7z"/></g><g id="XMLID_9_"><path id="XMLID_3295_" d="m256 512c-61.2 0-119.7-21.6-166-61.1v5.1c0 13.8-11.2 25-25 25s-25-11.2-25-25v-62.6c-26.3-41.3-40.1-89-40-138.2.2-68.1 27-132.2 75.6-180.5 48.4-48.2 112.5-74.7 180.4-74.7h.5c45 .1 89.3 12.1 128 34.6l-5 8.6c-37.2-21.6-79.7-33.1-123-33.2-.2 0-.4 0-.5 0-135.3 0-245.6 109.9-246 245.3-.1 47.7 13.4 94.1 39.2 134 .5.8.8 1.8.8 2.7v64c0 8.3 6.7 15 15 15s15-6.7 15-15v-16.3c0-2 1.2-3.8 3-4.6s3.9-.4 5.4.9c45.7 42.6 105.2 66 167.6 66 83.9 0 161.2-42.1 206.8-112.7 1.2-1.9 3.5-2.7 5.6-2.1s3.6 2.6 3.6 4.8v50c0 8.3 6.7 15 15 15s15-6.7 15-15v-186c0-56.5-18.6-109.7-53.9-153.7l7.8-6.3c17.8 22.2 31.7 47 41.2 73.7 9.9 27.7 14.9 56.7 14.9 86.3v186c0 13.8-11.2 25-25 25s-25-11.2-25-25v-34c-48.2 65.4-124.1 104-206 104z"/></g><g id="XMLID_8_"><path id="XMLID_3294_" d="m104.4 390c-13.8 0-25-11.2-25-25v-40c0-8.3-6.7-15-15-15-13.8 0-25-11.2-25-25v-22.2h10v22.2c0 8.3 6.7 15 15 15 13.8 0 25 11.2 25 25v40c0 8.3 6.7 15 15 15s15-6.7 15-15c0-13.8 11.2-25 25-25 8.3 0 15-6.7 15-15h10c0 13.8-11.2 25-25 25-8.3 0-15 6.7-15 15 0 13.8-11.2 25-25 25z"/></g><g id="XMLID_6_"><path id="XMLID_3293_" d="m437 368.5c-13.8 0-25-11.2-25-25v-20c0-8.3-6.7-15-15-15-13.8 0-25-11.2-25-25h10c0 8.3 6.7 15 15 15 13.8 0 25 11.2 25 25v20c0 8.3 6.7 15 15 15s15-6.7 15-15v-65.1h10v65.1c0 13.8-11.2 25-25 25z"/></g></g></g></svg>