<svg height="512pt" viewBox="0 -8 512 512" width="512pt" xmlns="http://www.w3.org/2000/svg"><path d="m316.996094 249.140625c0-37.414063-30.4375-67.855469-67.855469-67.855469-4.285156 0-7.757813 3.472656-7.757813 7.757813 0 4.285156 3.472657 7.757812 7.757813 7.757812 28.859375 0 52.339844 23.480469 52.339844 52.339844s-23.480469 52.339844-52.339844 52.339844-52.339844-23.480469-52.339844-52.339844c0-18.328125 9.789063-35.558594 25.542969-44.972656 3.679688-2.195313 4.878906-6.960938 2.683594-10.636719-2.195313-3.679688-6.960938-4.878906-10.636719-2.683594-20.421875 12.199219-33.105469 34.535156-33.105469 58.292969 0 37.414063 30.4375 67.855469 67.855469 67.855469s67.855469-30.441406 67.855469-67.855469zm0 0"/><path d="m249.140625 81.90625c-92.214844 0-167.234375 75.019531-167.234375 167.234375s75.019531 167.238281 167.234375 167.238281c31.234375 0 61.453125-8.582031 87.800781-24.875 3.816406 2.742188 8.492188 4.363282 13.542969 4.363282 12.832031 0 23.273437-10.441407 23.273437-23.273438s-10.441406-23.273438-23.273437-23.273438c-12.835937 0-23.273437 10.441407-23.273437 23.273438 0 2.128906.292968 4.191406.832031 6.152344-23.722657 14.480468-50.855469 22.117187-78.902344 22.117187-83.660156 0-151.71875-68.0625-151.71875-151.722656s68.058594-151.71875 151.71875-151.71875 151.722656 68.058594 151.722656 151.71875c0 31.238281-9.417969 61.238281-27.230469 86.746094-2.453124 3.515625-1.59375 8.351562 1.917969 10.804687 3.515625 2.449219 8.351563 1.589844 10.804688-1.921875 19.640625-28.128906 30.023437-61.195312 30.023437-95.628906 0-92.214844-75.023437-167.234375-167.238281-167.234375zm101.34375 282.925781c4.277344 0 7.757813 3.480469 7.757813 7.757813 0 4.28125-3.480469 7.757812-7.757813 7.757812-4.28125 0-7.757813-3.476562-7.757813-7.757812 0-4.277344 3.476563-7.757813 7.757813-7.757813zm0 0"/><path d="m249.140625 171.074219c4.285156 0 7.757813-3.472657 7.757813-7.757813v-10.714844c0-4.285156-3.472657-7.757812-7.757813-7.757812s-7.757813 3.472656-7.757813 7.757812v10.714844c0 4.285156 3.472657 7.757813 7.757813 7.757813zm0 0"/><path d="m241.382812 334.96875v10.714844c0 4.285156 3.472657 7.757812 7.757813 7.757812s7.757813-3.472656 7.757813-7.757812v-10.714844c0-4.285156-3.472657-7.757812-7.757813-7.757812s-7.757813 3.472656-7.757813 7.757812zm0 0"/><path d="m334.96875 241.382812c-4.285156 0-7.757812 3.472657-7.757812 7.757813s3.472656 7.757813 7.757812 7.757813h10.714844c4.285156 0 7.757812-3.472657 7.757812-7.757813s-3.472656-7.757813-7.757812-7.757813zm0 0"/><path d="m152.601562 241.382812c-4.285156 0-7.757812 3.472657-7.757812 7.757813s3.472656 7.757813 7.757812 7.757813h10.714844c4.285156 0 7.757813-3.472657 7.757813-7.757813s-3.472657-7.757813-7.757813-7.757813zm0 0"/><path d="m322.894531 175.390625c-3.03125-3.027344-7.945312-3.027344-10.972656 0l-7.578125 7.578125c-3.03125 3.027344-3.03125 7.941406 0 10.96875 1.515625 1.515625 3.5 2.273438 5.484375 2.273438 1.988281 0 3.972656-.757813 5.488281-2.269532l7.578125-7.578125c3.027344-3.03125 3.027344-7.941406 0-10.972656zm0 0"/><path d="m180.875 325.164062c1.988281 0 3.972656-.757812 5.488281-2.269531l7.578125-7.578125c3.027344-3.03125 3.027344-7.941406 0-10.96875-3.03125-3.03125-7.945312-3.03125-10.972656-.003906l-7.578125 7.578125c-3.03125 3.027344-3.03125 7.941406 0 10.96875 1.515625 1.515625 3.5 2.273437 5.484375 2.273437zm0 0"/><path d="m311.921875 322.890625c1.515625 1.515625 3.5 2.273437 5.484375 2.273437s3.972656-.757812 5.488281-2.273437c3.027344-3.03125 3.027344-7.941406 0-10.96875l-7.578125-7.578125c-3.03125-3.027344-7.941406-3.03125-10.972656 0s-3.027344 7.941406 0 10.972656zm0 0"/><path d="m188.453125 196.210938c1.984375 0 3.972656-.757813 5.488281-2.269532 3.027344-3.03125 3.027344-7.945312 0-10.972656l-7.578125-7.578125c-3.03125-3.027344-7.941406-3.027344-10.972656.003906-3.03125 3.027344-3.027344 7.941407 0 10.96875l7.578125 7.578125c1.515625 1.511719 3.5 2.269532 5.484375 2.269532zm0 0"/><path d="m512 196.933594c0-22.816406-18.5625-41.375-41.375-41.375-1.777344 0-3.523438.125-5.242188.34375-17.523437-40.644532-45.984374-75.351563-82.636718-100.660156-39.378906-27.183594-85.578125-41.554688-133.605469-41.554688-62.886719 0-122.015625 24.492188-166.488281 68.964844s-68.964844 103.601562-68.964844 166.488281c0 34.269531 7.167969 67.203125 21.308594 97.996094-9.378906 7.589843-15.390625 19.1875-15.390625 32.164062 0 22.8125 18.5625 41.375 41.375 41.375 22.816406 0 41.375-18.5625 41.375-41.375 0-22.816406-18.558594-41.375-41.375-41.375-4.269531 0-8.394531.652344-12.273438 1.859375-12.9375-28.5-19.503906-58.957031-19.503906-90.644531 0-121.273437 98.664063-219.9375 219.9375-219.9375 44.863281 0 88.015625 13.421875 124.789063 38.808594 33.859374 23.378906 60.238281 55.332031 76.652343 92.746093-12.707031 7.066407-21.332031 20.632813-21.332031 36.175782 0 22.195312 17.574219 40.363281 39.539062 41.328125.179688 3.640625.28125 7.277343.28125 10.878906 0 121.273437-98.660156 219.9375-219.925781 219.9375-51.046875 0-100.785156-17.878906-140.046875-50.351563-3.304687-2.730468-8.191406-2.265624-10.925781 1.035157-2.730469 3.300781-2.265625 8.191406 1.035156 10.921875 42.039063 34.765625 95.289063 53.910156 149.933594 53.910156 62.890625 0 122.015625-24.492188 166.484375-68.964844 44.46875-44.46875 68.960938-103.597656 68.960938-166.488281 0-4.34375-.136719-8.742187-.378907-13.132813 16.160157-5.636718 27.792969-21.019531 27.792969-39.074218zm-425.160156 182.367187c0 14.257813-11.597656 25.859375-25.859375 25.859375-14.257813 0-25.859375-11.601562-25.859375-25.859375 0-14.261719 11.601562-25.859375 25.859375-25.859375 14.261719 0 25.859375 11.597656 25.859375 25.859375zm383.785156-156.507812c-14.257812 0-25.859375-11.601563-25.859375-25.859375 0-14.257813 11.601563-25.859375 25.859375-25.859375s25.859375 11.601562 25.859375 25.859375c0 14.257812-11.601563 25.859375-25.859375 25.859375zm0 0"/><path d="m70.492188 35.246094c0-19.433594-15.808594-35.246094-35.246094-35.246094s-35.246094 15.8125-35.246094 35.246094c0 19.4375 15.8125 35.246094 35.246094 35.246094 19.4375 0 35.246094-15.808594 35.246094-35.246094zm-54.976563 0c0-10.878906 8.851563-19.730469 19.730469-19.730469 10.882812 0 19.734375 8.851563 19.734375 19.730469s-8.851563 19.730468-19.734375 19.730468c-10.878906 0-19.730469-8.851562-19.730469-19.730468zm0 0"/><path d="m402.886719 372.589844c0 4.285156-3.472657 7.757812-7.757813 7.757812s-7.757812-3.472656-7.757812-7.757812c0-4.28125 3.472656-7.757813 7.757812-7.757813s7.757813 3.476563 7.757813 7.757813zm0 0"/><path d="m492.347656 129.886719c0 4.28125-3.472656 7.757812-7.757812 7.757812s-7.757813-3.476562-7.757813-7.757812c0-4.285157 3.472657-7.757813 7.757813-7.757813s7.757812 3.472656 7.757812 7.757813zm0 0"/><path d="m70.492188 313.617188c0 4.285156-3.472657 7.757812-7.757813 7.757812s-7.757813-3.472656-7.757813-7.757812c0-4.285157 3.472657-7.757813 7.757813-7.757813s7.757813 3.472656 7.757813 7.757813zm0 0"/><path d="m59.460938 444.980469c0 4.285156-3.472657 7.757812-7.757813 7.757812s-7.757813-3.472656-7.757813-7.757812c0-4.285157 3.472657-7.757813 7.757813-7.757813s7.757813 3.472656 7.757813 7.757813zm0 0"/><path d="m437.007812 437.222656c-16.078124 0-29.164062 13.082032-29.164062 29.164063 0 16.078125 13.085938 29.160156 29.164062 29.160156 16.082032 0 29.164063-13.082031 29.164063-29.160156 0-16.082031-13.082031-29.164063-29.164063-29.164063zm0 42.8125c-7.523437 0-13.648437-6.125-13.648437-13.648437 0-7.523438 6.125-13.648438 13.648437-13.648438 7.527344 0 13.648438 6.125 13.648438 13.648438 0 7.523437-6.121094 13.648437-13.648438 13.648437zm0 0"/></svg>