<svg  viewBox="0 0 16.933333 16.933334"  xmlns="http://www.w3.org/2000/svg" xmlns:svg="http://www.w3.org/2000/svg"><g id="layer1" transform="translate(0 -280.067)"><path id="path4142" d="m8.4666679 280.59582c-4.3806282 0-7.93750031 3.55687-7.93750021 7.9375-.0000001 4.38062 3.55687201 7.9375 7.93750021 7.9375.7357081 0 1.4680386-.10223 2.1755781-.30386.339342-.0968.194131-.60582-.145211-.50902-.6603707.18819-1.343705.28371-2.0303671.28371-.9611256 0-1.8784506-.18437-2.7207641-.51676l.072347-.50385c.00555-.0407.00188-.0825-.011369-.12144l-.212907-.63821.6795452-.67799c.088665-.0897.1014987-.22928.031006-.33383l-.443384-.66611.4609537-.92191c.030929-.0626.036125-.13478.013951-.20102l-.2501149-.75396v-.74982c.0002911-.11442-.07273-.2163-.1813843-.25218l-.7932333-.26355c-.055585-.0185-.1023647-.0177-.1483114-.006l-1.0588501.26406c-.058822.0154-.1103101.0502-.1462442.0992l-.7146851.95137h-.6624891c-.3528646 0-.3528646.52916 0 .52916h.7953001c.082958-.00014.1609474-.0391.2108399-.10542l.7379396-.98237.8909018-.22479.5410523.1819v.60152c-.0000029.0285.00438.0572.013435.0842l.2284098.68936-.4785236.96066c-.042925.0849-.036565.18633.016021.26562l.4082439.6134-.6387208.64079c-.070575.0705-.095638.17442-.064596.26923l.243913.73432-.042375.29869c-2.4773139-1.19792-4.1842408-3.7338-4.1842406-6.67245-.0000001-2.29612 1.0420338-4.3462 2.6794229-5.70457l1.0237105.56896v.5271l-.7146854.71675c-.06293.0628-.090161.15316-.072347.2403l.2640667 1.3224c.019965.10038.096051.18032.1953368.20516l1.0583333.26354c.1086237.0276.2229573-.0164.2852542-.10955l.3203938-.48214.5699911.75964c.039338.0517.096389.0873.160197.0997l1.2443685.2496.7363891.73639c.03683.0368.083303.062.1343586.0724l1.3244672.26355c.163042.0325.315206-.0911.316259-.25735v-1.05885c-.00017-.10015-.05663-.19145-.146244-.23616l-.775663-.38706.558622-.74569 1.254187-.50229c.04279-.0168.08015-.0444.109037-.0801l1.05885-1.32395c.04314-.054.06316-.12297.05633-.19172l-.04082-.39998c-.01244-.37709-.588295-.31933-.525549.0527l.02946.29301-.947229 1.18339-1.2598715.50384c-.045129.0183-.084219.0487-.1131713.0879l-.7927276 1.05886c-.098252.13204-.053616.32055.093534.39429l.9120894.45527v.57205l-.9275922-.18572-.7384566-.73639c-.036831-.0368-.08382-.062-.1348756-.0724l-1.2242143-.24391-.7327718-.97875c-.1094618-.14592-.3301156-.13975-.4314981.0119l-.4258138.63872-.7146851-.17777-.2030886-1.01958.6929808-.69504c.048756-.0495.076423-.11607.076481-.18552v-.7953c-.0000342-.0955-.05165-.18361-.1348756-.23048l-.9580806-.53227c1.2064471-.85161 2.6778622-1.3534 4.2684734-1.3534 4.0946451 0 7.4083341 3.31369 7.4083331 7.40834 0 .97747-.193229 1.9455-.568957 2.84788-.1522.33232.360007.54534.488342.20309.402563-.96683.609782-2.00369.609782-3.05097 0-4.38063-3.556872-7.9375-7.9375001-7.9375zm3.4395831 6.0849v3.96875c0 .35286.529167.35286.529167 0v-3.96875c0-.44432.348918-.79272.793233-.79272.444314 0 .794783.3484.794784.79272v4.99349c-.0087.10793.04923.21028.146244.25838.719943.35719 1.175089 1.08921 1.176156 1.89291 0 1.17213-.945048 2.11718-2.117184 2.11718-1.172137 0-2.115116-.94505-2.115116-2.11718.000317-.80435.455099-1.53749 1.175639-1.89498.256428-.12117.168369-.50618-.115239-.50384-.04225-.00002-.08389.0101-.121439.0295-.899535.44629-1.468235 1.3652-1.468645 2.36936 0 1.45812 1.18668 2.64635 2.6448 2.64635 1.458119 0 2.64635-1.18823 2.64635-2.64635-.0012-.94549-.511815-1.81019-1.3224-2.28048v-4.8643c0-.72832-.595631-1.3224-1.32395-1.3224-.72832 0-1.3224.59408-1.3224 1.3224zm1.3183.26148c-.145407.003-.261072.12226-.259416.26768v5.05189c-.748576.12687-1.323432.77977-1.323432 1.56321 0 .87362.713882 1.5875 1.5875 1.5875s1.5875-.71388 1.5875-1.5875c0-.34396-.11169-.67845-.318327-.95343-.211858-.28226-.635088.0356-.42323.31781.137796.18337.21239.40625.21239.63562 0 .58764-.470698 1.05834-1.058333 1.05834s-1.058333-.4707-1.058333-1.05834c0-.58763.470698-1.05833 1.058333-1.05833.163636.002.290027-.14315.2651-.30489v-5.25188c.0017-.14924-.120521-.27047-.269751-.26768z" font-variant-ligatures="normal" font-variant-position="normal" font-variant-caps="normal" font-variant-numeric="normal" font-variant-alternates="normal" font-feature-settings="normal" text-indent="0" text-align="start" text-decoration-line="none" text-decoration-style="solid" text-decoration-color="rgb(0,0,0)" text-transform="none" text-orientation="mixed" white-space="normal" shape-padding="0" isolation="auto" mix-blend-mode="normal" solid-color="rgb(0,0,0)" solid-opacity="1" vector-effect="none"/></g></svg>