<?xml version="1.0" encoding="UTF-8"?>
<svg xmlns="http://www.w3.org/2000/svg" viewBox="0 0 512 512" width="512" height="512"><g id="outline"><path d="M356.9,316.061a7.311,7.311,0,0,1-5.324-2.349,10.51,10.51,0,0,0-15.288,0,11.289,11.289,0,0,0-1.976,12.607l5.29,11.072a14.379,14.379,0,0,0,2.581,3.744,6.731,6.731,0,0,1,0,9.2,12.7,12.7,0,0,0-3.136,11.812,12.326,12.326,0,0,0,7.893,8.844,17.871,17.871,0,0,0,5.892,1,18.643,18.643,0,0,0,16.736-10.726l1.465-3.068a3.178,3.178,0,0,1,1.369-1.449l1.779-.931a11.464,11.464,0,0,0,0-20.164,3.368,3.368,0,0,1-1.715-2.993v-.5C372.466,323.284,365.483,316.061,356.9,316.061Zm13.572,32.668-1.779.93a11.227,11.227,0,0,0-4.879,5.089l-1.464,3.067a10.327,10.327,0,0,1-12.775,5.622,4.367,4.367,0,0,1-2.751-3.163,4.741,4.741,0,0,1,1.142-4.413,14.816,14.816,0,0,0,0-20.256,6.334,6.334,0,0,1-1.146-1.665l-5.289-11.07a3.291,3.291,0,0,1,.541-3.631,2.551,2.551,0,0,1,3.76.04,15.41,15.41,0,0,0,11.069,4.782,7.856,7.856,0,0,1,7.566,8.1v.5a11.3,11.3,0,0,0,6.006,10.081,3.471,3.471,0,0,1,0,5.989Z"/><path d="M260.188,124.051V104.938l9.448-4.318,16.21,3.536a36.5,36.5,0,0,0,7.778.834,36.911,36.911,0,0,0,15.3-3.31l.385-.176A36.624,36.624,0,0,0,330.29,73.945l.521-3.24a4,4,0,0,0-1.844-4.036l-2.792-1.728A36.686,36.686,0,0,0,291.548,62.8l-.326.15a36.931,36.931,0,0,0-16.978,15.829l-7.931,14.568-6.125,2.8V95a141.426,141.426,0,0,1,2.2-27.056l13.99-7.25a36.938,36.938,0,0,0,16.177-16.653l.156-.326a36.682,36.682,0,0,0-1.439-34.658L289.6,6.231a4.015,4.015,0,0,0-4-1.927l-3.251.454A36.634,36.634,0,0,0,254.37,25.177l-.18.373a36.935,36.935,0,0,0-2.949,23.025l3.418,17.363A147.737,147.737,0,0,0,252.188,95v7.729l-4.919-4.642-2.312-14.766a36.921,36.921,0,0,0-10.652-20.616l-.267-.261a36.684,36.684,0,0,0-33.325-9.631l-3.21.687a4,4,0,0,0-3.095,3.179l-.6,3.226a36.627,36.627,0,0,0,10.48,33.014l.3.294a36.912,36.912,0,0,0,20.9,10.1l17.775,2.3c.115.015.23.018.345.023l8.579,8.095v10.322c-101.823,2.137-184,85.623-184,187.949,0,103.663,84.336,188,188,188s188-84.337,188-188C444.188,209.674,362.01,126.188,260.188,124.051ZM281.27,82.6A28.879,28.879,0,0,1,294.552,70.22l.326-.151a28.707,28.707,0,0,1,27.087,1.675l.524.324-.1.608a28.649,28.649,0,0,1-16.408,21.552l-.384.175a28.872,28.872,0,0,1-18.049,1.937l-5.787-1.263,28.453-13a4,4,0,0,0-3.326-7.275l-28.453,13ZM226.515,95.381a28.874,28.874,0,0,1-16.344-7.9l-.3-.293a28.644,28.644,0,0,1-8.2-25.818l.112-.606.6-.129a28.694,28.694,0,0,1,26.064,7.536l.267.261a28.865,28.865,0,0,1,8.334,16.126l.714,4.562L222.149,74.381a4,4,0,1,0-5.49,5.818l17.075,16.115ZM259.091,47.03A28.875,28.875,0,0,1,261.4,29.02l.18-.374a28.644,28.644,0,0,1,21.884-15.964l.609-.086.314.53A28.7,28.7,0,0,1,285.5,40.245l-.156.326a28.882,28.882,0,0,1-12.65,13.02l-7.556,3.916a80.3,80.3,0,0,1,8.868-17.873c1.618-2.519,3.46-5.187,5.8-8.4a4,4,0,0,0-6.469-4.707c-2.431,3.339-4.357,6.13-6.06,8.783A93.3,93.3,0,0,0,259.6,49.628ZM159.872,160a92.4,92.4,0,0,0,13.766,1.9l27.47,1.65a9.218,9.218,0,0,1,8.474,9.25,10.27,10.27,0,0,1-.159,2.069,5.858,5.858,0,0,1-1.806,3.322,5.119,5.119,0,0,1-3.165,1.405,13.725,13.725,0,0,0-12.511,14.341l.107,2.474a13.339,13.339,0,0,0,6.343,10.922l7.128,4.324a26.651,26.651,0,0,1,9.175,9.437,28.631,28.631,0,0,1,3.75,13.04A35.421,35.421,0,0,0,235.21,263.1l2.047,1.241a8.541,8.541,0,0,1,4.011,7.192,9.282,9.282,0,0,1-.746,3.879,9.1,9.1,0,0,1-3,3.8,8.242,8.242,0,0,1-4.288,1.591,18.729,18.729,0,0,0-15.93,11.556l-.546,1.263a21.931,21.931,0,0,0,.815,18.8l.954,1.764a32.159,32.159,0,0,1,2.745,6.844,33.629,33.629,0,0,1,1.145,7.329l.008.336c.165,7.169-5.24,13.378-12.05,13.842-11.41.779-20.959,9.844-22.7,21.559l-2.821,19.023a18.8,18.8,0,0,0-.192,3.124,17.91,17.91,0,0,0,5.6,12.658,23.858,23.858,0,0,1,4.741,6.147,25.544,25.544,0,0,1,3.019,11.513,26.544,26.544,0,0,1-2.092,10.909A7.545,7.545,0,0,1,192,431.457l-9.882,4.155a3.818,3.818,0,0,1-1.382.308h-.077a3.834,3.834,0,0,1-3.739-3.786l-.007-.319a10.511,10.511,0,0,1,2.513-7.041,10.64,10.64,0,0,0,2.593-7.228,10.235,10.235,0,0,0-3.27-7.35,27.549,27.549,0,0,1-8.576-19.487,29.417,29.417,0,0,1,.531-6.228c2.341-12-3.547-23.705-14.319-28.462l-7.209-3.18a24.465,24.465,0,0,0-25.037,3.3l-10.595,8.305a11.079,11.079,0,0,1-2.788,1.6,10.411,10.411,0,0,1-3.037.672,9.985,9.985,0,0,1-7.442-2.593,11.2,11.2,0,0,1-3.58-8,11.856,11.856,0,0,1,.424-3.447,22.792,22.792,0,0,0-.587-13.818,91.954,91.954,0,0,0-20.267-32.12A180.057,180.057,0,0,1,159.872,160ZM76.244,316.445c6.207,7.322,9.027,15.044,12.785,25.183a14.653,14.653,0,0,1,.891,4.707,14.829,14.829,0,0,1-.511,4.228,19.881,19.881,0,0,0-.707,5.749,19.23,19.23,0,0,0,6.186,13.72,17.863,17.863,0,0,0,13.387,4.664,18.376,18.376,0,0,0,5.384-1.2,19.129,19.129,0,0,0,4.817-2.755l10.6-8.312a16.493,16.493,0,0,1,16.867-2.275l7.211,3.181c7.215,3.185,11.293,11.433,9.7,19.619a37.342,37.342,0,0,0-.676,7.937,35.589,35.589,0,0,0,11.135,25.168,2.335,2.335,0,0,1,.711,1.669,2.652,2.652,0,0,1-.645,1.808,18.346,18.346,0,0,0-4.461,12.447l.009.388a11.8,11.8,0,0,0,11.718,11.546c.092,0,.186,0,.279,0a11.791,11.791,0,0,0,4.291-.928l9.9-4.163a15.4,15.4,0,0,0,8.183-8.237,34.6,34.6,0,0,0,2.726-14.218,33.6,33.6,0,0,0-3.975-15.125,31.844,31.844,0,0,0-6.331-8.2,9.879,9.879,0,0,1-3.059-6.988,10.777,10.777,0,0,1,.109-1.779l2.819-19.008c1.2-8.025,7.645-14.23,15.336-14.754,11.017-.75,19.766-10.622,19.5-22.015l-.011-.42a41.9,41.9,0,0,0-1.425-9.172,40.328,40.328,0,0,0-3.429-8.546l-.947-1.748a13.845,13.845,0,0,1-.5-11.85l.544-1.259a10.787,10.787,0,0,1,9.127-6.724,16.241,16.241,0,0,0,8.46-3.115,17.271,17.271,0,0,0,7.017-14.316,16.5,16.5,0,0,0-7.86-13.847l-2.045-1.24a27.436,27.436,0,0,1-12.924-22.47,36.664,36.664,0,0,0-4.815-16.7,34.689,34.689,0,0,0-11.95-12.274l-7.131-4.326a5.367,5.367,0,0,1-2.5-4.42l-.106-2.474A5.679,5.679,0,0,1,205,187.579a13.2,13.2,0,0,0,8.064-3.523,13.953,13.953,0,0,0,4.237-7.776,18.293,18.293,0,0,0,.282-3.662,17.166,17.166,0,0,0-15.988-17.052l-27.474-1.65c-1.141-.069-2.282-.168-3.421-.284a179.755,179.755,0,0,1,221.745,40.875c.1,1.074.175,2.164.175,3.273a35.389,35.389,0,0,1-1.141,8.915,60.011,60.011,0,0,0-1.939,15.075,54.535,54.535,0,0,0,5.529,24.223,11.133,11.133,0,0,0,9.942,6.327,11.284,11.284,0,0,0,3.094-.438,3.194,3.194,0,0,1,.906-.132,2.91,2.91,0,0,1,2.315,1.225,5.4,5.4,0,0,1,.731,4.649l-.559,2.17c-1.3,5.02-5.252,8.9-9.6,9.446l-2.5.309a16.414,16.414,0,0,0-11.065,6.628,19.376,19.376,0,0,0-3.691,14.584,38.326,38.326,0,0,0,3.532,11.231,10.124,10.124,0,0,0,9.051,5.748,10.625,10.625,0,0,0,6.06-1.958,2.135,2.135,0,0,1,2.81.054l2.628,2.559a4.085,4.085,0,0,1,1.041,3.292A5.159,5.159,0,0,1,407.7,315.5a12.553,12.553,0,0,0-3.648,3.957l-2.961,5.012a80.152,80.152,0,0,0-11.115,42.886v.2c0,2.5-1.519,4.811-3.542,5.385a24.559,24.559,0,0,0-11.244,7.1,28.551,28.551,0,0,0-6.544,12.123,18.97,18.97,0,0,0-.621,4.8,17.674,17.674,0,0,0,1.8,7.839,9.407,9.407,0,0,1,.969,4.251c0,5.023-3.45,9.536-7.677,10.058a16.764,16.764,0,0,1-2.014.132,15.352,15.352,0,0,1-8.917-2.85l-9.528-6.709a14.255,14.255,0,0,0-16.516.251,17.518,17.518,0,0,0-4.446,4.533,18.917,18.917,0,0,0-2.635,5.83l-4.809,18.53a14.172,14.172,0,0,0,.929,9.854,5.762,5.762,0,0,1,.573,2.551,6.656,6.656,0,0,1-2.654,5.363,17.483,17.483,0,0,1-5.216,2.511l-5.978,1.709a11.425,11.425,0,0,0-7.225,6.5,12.037,12.037,0,0,0,.12,10.25,9.973,9.973,0,0,0,6.493,5.325l6.225,1.548a.944.944,0,0,1,.123.052A179.431,179.431,0,0,1,256.188,492C158.422,492,78.612,413.651,76.244,316.445ZM315.62,481.905a9.249,9.249,0,0,0-6.171-5.228l-6.232-1.55a1.987,1.987,0,0,1-1.248-1.119,4.133,4.133,0,0,1,.035-3.461,3.524,3.524,0,0,1,2.1-2.041l5.98-1.71a25.457,25.457,0,0,0,7.6-3.646,14.669,14.669,0,0,0,6.071-11.92,13.806,13.806,0,0,0-1.4-6.1,6.257,6.257,0,0,1-.353-4.291l4.81-18.533a10.87,10.87,0,0,1,1.514-3.351,9.514,9.514,0,0,1,2.4-2.459,6.27,6.27,0,0,1,7.331-.271l9.521,6.7a23.3,23.3,0,0,0,13.531,4.315,24.706,24.706,0,0,0,2.981-.19c8.249-1.02,14.71-8.926,14.71-18a17.32,17.32,0,0,0-1.81-7.821,9.628,9.628,0,0,1-.961-4.269,10.945,10.945,0,0,1,.363-2.786,20.516,20.516,0,0,1,4.693-8.728,16.57,16.57,0,0,1,7.545-4.817c5.418-1.536,9.35-7.037,9.35-13.079v-.25c0-.035,0-.071,0-.107a72.172,72.172,0,0,1,10-38.658l2.96-5.01a4.642,4.642,0,0,1,1.337-1.465,13.229,13.229,0,0,0,5.463-9.722,12.028,12.028,0,0,0-3.432-9.674l-2.618-2.548a9.822,9.822,0,0,0-6.922-2.836,10.51,10.51,0,0,0-6.056,1.94,2.143,2.143,0,0,1-3.372-.79,30.377,30.377,0,0,1-2.79-8.9A11.341,11.341,0,0,1,394.719,281a8.5,8.5,0,0,1,5.66-3.511l2.5-.309c7.643-.953,14.217-7.131,16.359-15.384l.557-2.166a13.242,13.242,0,0,0-2.144-11.547,10.9,10.9,0,0,0-8.646-4.333,11.2,11.2,0,0,0-3.114.442,3.047,3.047,0,0,1-3.666-1.766,46.489,46.489,0,0,1-4.691-20.656,52.038,52.038,0,0,1,1.682-13.061,43.458,43.458,0,0,0,.924-4.648A179.064,179.064,0,0,1,436.188,312C436.188,390.434,385.755,457.3,315.62,481.905Z"/><path d="M312.188,272a4,4,0,0,0,4-4,24,24,0,0,1,48,0,4,4,0,0,0,8,0,32,32,0,0,0-64,0A4,4,0,0,0,312.188,272Z"/><path d="M144.188,272a4,4,0,0,0,4-4,24,24,0,0,1,48,0,4,4,0,0,0,8,0,32,32,0,0,0-64,0A4,4,0,0,0,144.188,272Z"/><path d="M304.188,364h-96a4,4,0,0,0-4,4,52,52,0,0,0,104,0A4,4,0,0,0,304.188,364Zm-76.363,37.619a35.954,35.954,0,0,1,56.5.191,43.941,43.941,0,0,1-56.5-.191Zm62.194-5.5a43.968,43.968,0,0,0-67.854-.233,43.5,43.5,0,0,1-9.8-23.885H300.01A43.5,43.5,0,0,1,290.019,396.118Z"/><path d="M286.812,180.775a2.491,2.491,0,0,1,3.01.538,10.514,10.514,0,0,0,15.288,0,11.289,11.289,0,0,0,1.977-12.608l-2.74-5.735a26.635,26.635,0,0,0-11.569-12.089,25.168,25.168,0,0,0-23.334,0l-5.1,2.667h0a13.918,13.918,0,0,0-3.615,2.724l-.193.2a14.532,14.532,0,0,0,0,19.865A21.984,21.984,0,0,0,286.812,180.775Zm-20.5-18.769.192-.2a5.966,5.966,0,0,1,1.551-1.172l5.1-2.666a17.169,17.169,0,0,1,15.917,0,18.583,18.583,0,0,1,8.059,8.45l2.74,5.735a3.289,3.289,0,0,1-.541,3.631,2.571,2.571,0,0,1-3.722,0,10.446,10.446,0,0,0-12.5-2.1,14.053,14.053,0,0,1-16.782-2.875A6.447,6.447,0,0,1,266.313,162.006Z"/></g></svg>
