<?xml version="1.0" encoding="UTF-8"?>
<svg xmlns="http://www.w3.org/2000/svg" id="Line_Expand" data-name="Line Expand" viewBox="0 0 64 64" width="512" height="512"><path d="M56.546,14.226a.5.5,0,0,0-.271-.339L32.217,2.3a.5.5,0,0,0-.434,0L7.725,13.887a.5.5,0,0,0-.271.339L1.513,40.26a.5.5,0,0,0,.1.423L18.257,61.56a.5.5,0,0,0,.391.188h26.7a.5.5,0,0,0,.391-.188L62.391,40.683a.5.5,0,0,0,.1-.423ZM27.436,44.2h9.128L32,54.24ZM32.5,21.1l8.156,3.928L32.5,31.013Zm-1,9.916-8.156-5.988L31.5,21.1Zm-.624.782-10.2,2.846L22.7,25.788Zm.222.976L26.542,42.75l-5.68-7.123Zm.9.433L36.563,43.2H27.437Zm.9-.433,10.236,2.856-5.68,7.123Zm.222-.976,8.181-6.007,2.021,8.853Zm8.01-7.651-8.2-3.947,8.339-6.6Zm-18.268,0L22.724,13.6l8.339,6.6ZM19.684,34.487,11.155,28.1l10.556-2.5Zm.419,1.792,5.688,7.133L15.284,46.19Zm23.794,0,4.819,9.911L38.209,43.412Zm.419-1.792-2.027-8.88,10.556,2.5ZM32,19.663l-8.353-6.611H40.353ZM21.871,24.541l-10.578,2.5L21.728,13.957ZM19.37,35.5l-4.841,9.956L10.791,29.078Zm7.009,8.79L30.974,54.4,15.8,47.089Zm11.242,0,10.584,2.8L33.026,54.4ZM44.63,35.5l8.579-6.423L49.471,45.457Zm-2.5-10.96.143-10.584L52.707,27.041ZM23.415,12.052,32,3.459l8.585,8.593Zm-13.093,14.6L8.513,14.77l12.54-1.57Zm-.544,2.48L13.627,46,2.713,40.184ZM30.8,55.425l-11.833,5.14-3.8-12.67ZM48.838,47.9l-3.8,12.67L33.2,55.425Zm5.384-18.759,7.065,11.048L50.373,46Zm-.544-2.48L42.947,13.2l12.54,1.57ZM42.023,12.077l-7.592-7.6,18.656,8.984Zm-20.046,0L10.913,13.462,29.569,4.478ZM9.478,27.75,3.127,37.682,7.843,17.014ZM13.938,47.3l3.488,11.617L3.9,41.948ZM32,55.993l10.946,4.755H21.054Zm18.062-8.7L60.1,41.948,46.574,58.912Zm4.46-19.545,1.635-10.736,4.716,20.668Z"/></svg>
