<svg id="Layer_1" enable-background="new 0 0 75 75" height="512" viewBox="0 0 75 75" width="512" xmlns="http://www.w3.org/2000/svg"><g><path d="m66.5 27.7h-30.2c0-.3.1-.6.1-.9.1-1.9-1.7-.4-3.6-.2 1-2.7 1.1-5.5.1-8.5-.3-1.1-2-.8-2 .3 0 1.4-.8 1.7-2.3 2.5 1.3-7.6-3.1-13.5-12.2-16.4-.9-.3-1.7.7-1.1 1.5 5.3 7.7-5 9.4-5.9 17-1-.7-2-2.1-3-2.5-.6-.2-1.2.1-1.4.7-.7 3.1-.6 5.8.3 8.1-.5.7-.8 1.5-.8 2.3v34.8c0 2.2 1.8 4 4 4h58c2.2 0 4-1.8 4-4v-34.7c0-2.2-1.8-4-4-4zm-55 12.8c.6-.1 1.2-.3 1.7-.5.6.2 1.2.3 1.8.4.9.2 1.5-.8 1-1.6-.8-1.2-1.6-3.1-1.2-5.9.4.3 1 .5 1.4.9.7.8 2 0 1.7-1-1-3.2 0-5.6 2.9-7.2-.6 3.7 4.1 5.1 3.9 8.2 0 .6.5 1.2 1.2 1.1.6-.1 1.1-.4 1.4-.7.2 1.5.1 2.8-.3 3.9-.3.8.6 1.6 1.4 1.2 1.9-.9 4-2.3 5.5-4.6h23.7c.4 3 2.8 5.4 5.8 5.8v17.1c-3 .4-5.4 2.8-5.8 5.8h-40.3c-.4-3-2.8-5.4-5.8-5.8zm-4.9-17.2c1 1 2 2 3.5 2.3.6.1 1.2-.4 1.2-1.1-.5-6.8 10-9.4 6.9-17.2 7.3 3.1 10 8.5 7.8 15.6-.3 1 .9 1.8 1.7 1 1.1-1.1 2.6-1.5 3.8-2.5.2 2.3-.4 4.4-1.6 6.5-.6 1 .7 2.1 1.5 1.3.7-.6 1.9-.6 2.8-.8-.5 3.5-2.2 6.2-4.8 8 .1-1.3 0-2.8-.4-4.4-.1-.6-.8-.9-1.3-.7s-.8.5-1.1.9c-1.1-3.6-5.4-4.4-3-7.8.5-.8-.2-1.8-1.1-1.5-4.1 1.3-7.1 3.9-6.9 8.2-.2-.1-.2-.2-.2-.4 0-1.1-1.6-1.4-2-.3-.9 2.8-.9 5.4-.1 7.7-2.4-.7-4.4-1.7-5.6-2.9 1.1-.1 2.4 0 3.4-.4.8-.3.8-1.4.1-1.8-3.7-2.1-5.2-5.3-4.6-9.7zm1.3 9.8c-.5 0-1 .1-1.4.2 0-.3 0-1.4 0-1.7.4.5.9 1 1.4 1.5zm60.6 33.4c0 1.1-.9 2-2 2h-58c-1.1 0-2-.9-2-2v-29.8c.9.8 2.1 1.5 3.4 2.1-.2.2-.4.5-.4.8v19c0 .6.4 1 1 1 2.7 0 4.9 2.2 4.9 4.9 0 .6.4 1 1 1h42.2c.6 0 1-.4 1-1 0-2.7 2.2-4.9 4.9-4.9.6 0 1-.4 1-1v-19c0-.6-.4-1-1-1-2.7 0-4.9-2.2-4.9-4.9 0-.6-.4-1-1-1h-23.5c.4-.9.7-1.9.9-3h30.5c1.1 0 2 .9 2 2z"/><path d="m37.5 52.7c-.7 0-1.3-.6-1.3-1.3 0-.6-.4-1-1-1s-1 .4-1 1c0 1.5 1 2.7 2.3 3.2v.8c0 .6.4 1 1 1s1-.4 1-1v-.8c1.3-.4 2.3-1.7 2.3-3.2 0-1.8-1.5-3.3-3.3-3.3-.7 0-1.3-.6-1.3-1.3s.6-1.3 1.3-1.3 1.3.6 1.3 1.3c0 .6.4 1 1 1s1-.4 1-1c0-1.5-1-2.7-2.3-3.1v-.8c0-.6-.4-1-1-1s-1 .4-1 1v.8c-1.3.4-2.3 1.7-2.3 3.1 0 1.8 1.5 3.3 3.3 3.3.7 0 1.3.6 1.3 1.3s-.6 1.3-1.3 1.3z"/><path d="m55.6 52.3c1.8 0 3.3-1.5 3.3-3.3s-1.5-3.3-3.3-3.3-3.3 1.5-3.3 3.3 1.5 3.3 3.3 3.3zm0-4.5c.7 0 1.3.6 1.3 1.3s-.5 1.3-1.3 1.3c-.7 0-1.3-.6-1.3-1.3s.6-1.3 1.3-1.3z"/><path d="m37.5 60.5c6.3 0 11.4-5.1 11.4-11.4s-5.1-11.4-11.4-11.4-11.4 5.1-11.4 11.4 5.1 11.4 11.4 11.4zm0-20.8c5.2 0 9.4 4.2 9.4 9.4s-4.2 9.4-9.4 9.4-9.4-4.2-9.4-9.4 4.2-9.4 9.4-9.4z"/><path d="m19.4 52.3c1.8 0 3.3-1.5 3.3-3.3s-1.5-3.3-3.3-3.3-3.3 1.5-3.3 3.3 1.5 3.3 3.3 3.3zm0-4.5c.7 0 1.3.6 1.3 1.3s-.5 1.3-1.3 1.3c-.7 0-1.3-.6-1.3-1.3s.6-1.3 1.3-1.3z"/></g></svg>