<?xml version="1.0" encoding="UTF-8" standalone="no"?>
<!-- Created with Inkscape (http://www.inkscape.org/) -->

<svg
   version="1.1"
   id="svg9"
   xml:space="preserve"
   viewBox="0 0 682.66669 682.66669"
   xmlns="http://www.w3.org/2000/svg"
   xmlns:svg="http://www.w3.org/2000/svg"><defs
     id="defs13"><clipPath
       clipPathUnits="userSpaceOnUse"
       id="clipPath23"><path
         d="M 0,512 H 512 V 0 H 0 Z"
         id="path21" /></clipPath></defs><g
     id="g15"
     transform="matrix(1.3333333,0,0,-1.3333333,0,682.66667)"><g
       id="g17"><g
         id="g19"
         clip-path="url(#clipPath23)"><g
           id="g25"
           transform="translate(455,159.8354)"><path
             d="m 0,0 c 23.423,33.543 37,73.403 37,116.165 0,119.293 -105.661,216 -236,216 -130.339,0 -236,-96.707 -236,-216 0,-50.052 18.607,-96.123 49.826,-132.748 L -435,-139.835 l 136.414,60.133 c 30.259,-12.91 63.999,-20.133 99.586,-20.133 41.484,0 80.469,9.796 114.342,27"
             style="fill:none;stroke:#000000;stroke-width:40;stroke-linecap:round;stroke-linejoin:round;stroke-miterlimit:10;stroke-dasharray:none;stroke-opacity:1"
             id="path27" /></g><g
           id="g29"
           transform="translate(256,295)"><path
             d="M 0,0 V -108"
             style="fill:none;stroke:#000000;stroke-width:40;stroke-linecap:round;stroke-linejoin:round;stroke-miterlimit:10;stroke-dasharray:none;stroke-opacity:1"
             id="path31" /></g><g
           id="g33"
           transform="translate(256,384)"><path
             d="m 0,0 c -11.046,0 -20,-8.954 -20,-20 0,-11.046 8.954,-20 20,-20 11.046,0 20,8.954 20,20 C 20,-8.954 11.046,0 0,0"
             style="fill:#000000;fill-opacity:1;fill-rule:nonzero;stroke:none"
             id="path35" /></g></g></g></g></svg>
