<?xml version="1.0" encoding="iso-8859-1"?>
<!-- Generator: Adobe Illustrator 19.0.0, SVG Export Plug-In . SVG Version: 6.00 Build 0)  -->
<svg version="1.1" id="Capa_1" xmlns="http://www.w3.org/2000/svg" xmlns:xlink="http://www.w3.org/1999/xlink" x="0px" y="0px"
	 viewBox="0 0 374.95 374.95" style="enable-background:new 0 0 374.95 374.95;" xml:space="preserve">
<g>
	<g>
		<path d="M369.475,316.475l-86-86c-7.3-7.3-19.2-7.3-26.5,0l-20.7-20.7c38.5-51.4,34.5-124.6-12.2-171.3
			c-51.3-51.3-134.4-51.3-185.6,0c-51.3,51.3-51.3,134.4,0,185.6c46.7,46.7,119.9,50.7,171.3,12.2l20.7,20.7
			c-7.3,7.3-7.3,19.2,0,26.5l86,86c7.3,7.3,19.2,7.3,26.5,0l26.5-26.5C376.775,335.675,376.775,323.775,369.475,316.475z
			 M206.975,186.075l-20.7,20.7c-15.9,11.6-34.9,18.1-54.9,18.1c-25.2,0.1-48.7-9.6-66.4-27.4c-17.7-17.7-27.5-41.3-27.5-66.3
			s9.8-48.6,27.5-66.3c17.7-17.7,41.3-27.5,66.3-27.5s48.6,9.8,66.3,27.5c17.7,17.7,27.5,41.3,27.5,66.3
			C225.075,151.275,218.575,170.175,206.975,186.075z"/>
	</g>
</g>
<g>
</g>
<g>
</g>
<g>
</g>
<g>
</g>
<g>
</g>
<g>
</g>
<g>
</g>
<g>
</g>
<g>
</g>
<g>
</g>
<g>
</g>
<g>
</g>
<g>
</g>
<g>
</g>
<g>
</g>
</svg>
