<svg  viewBox="0 0 124 124"  xmlns="http://www.w3.org/2000/svg"><path d="m96.16 51.161c-.021 0-.042 0-.064-.001-2.568-.082-5.221-.91-8.029-1.787-5.18-1.618-11.051-3.452-17.678-.779-1.288.517-2.748-.465-2.748-1.855v-18.715c0-.53.21-1.038.584-1.413 10.231-10.247 19.478-4.357 28.42 1.338 6.542 4.167 13.307 8.478 21.064 7.343 1.563-.226 2.794 1.458 2.074 2.882-1.605 3.171-3.953 5.942-9.525 5.862.992 1.228 2.228 3.413-.103 4.181-3.518 1.158-6.764.146-9.881-1.377.303.634.559 1.33.559 2.101.001 2.31-3.068 2.22-4.673 2.22zm-18.78-7.93c4.442 0 8.424 1.244 11.879 2.323 2.429.759 4.729 1.477 6.695 1.595-.595-1.301-1.096-3.076.056-4.972.718-1.181 2.076-1.1 3.119-.469 2.297 1.264 4.395 2.417 6.398 2.836l-1.563-1.934c-1.174-1.453.215-3.64 2.024-3.202 3.924.946 6.199.743 7.64.012-7.22-.511-13.487-4.503-19.131-8.099-9.35-5.955-15.54-9.299-22.856-2.452v15.098c1.988-.523 3.903-.736 5.739-.736z"/><path d="m27.774 51.117c-1.205 0-3.015-.061-3.956-.918-.989-.9-.664-2.326-.178-3.398-3.054 1.543-6.362 2.519-9.889 1.163-2.217-.852-.992-2.935-.011-4.148-5.573.078-7.92-2.69-9.525-5.862-.717-1.417.509-3.118 2.077-2.881 7.631 1.126 14.332-3.154 20.817-7.292 8.981-5.732 18.269-11.66 28.655-1.399.38.376.594.888.594 1.423v18.715c0 1.395-1.474 2.381-2.764 1.849-6.408-2.649-11.94-.859-17.288.874-2.955.955-5.795 1.874-8.532 1.874zm.214-9.159c1.352 1.891.599 3.841-.03 5.156 2.063-.042 4.458-.817 7.116-1.678 4.812-1.558 10.658-3.451 17.284-1.7v-15.078c-7.455-6.884-13.688-3.51-23.098 2.494-5.586 3.565-11.788 7.522-18.896 8.045 1.44.733 3.715.939 7.646-.009 1.805-.437 3.203 1.743 2.024 3.202l-1.708 2.112c2.014-.351 4.209-1.584 6.918-3.219.324-.195 1.881-.533 2.744.675z"/><path d="m83.587 81.23c-1.851-6.381-9.379-8.73-13.877-10.134l-.856-.269c-1.68-.536-3.269-.86-4.793-1.066v-46.539c5.566-.945 9.819-5.745 9.819-11.521 0-6.452-5.302-11.701-11.819-11.701s-11.82 5.249-11.82 11.701c0 5.776 4.253 10.576 9.819 11.521v46.249c-1.765-.02-3.432.076-5.01.172-4.369.267-7.819.478-11.116-2.054-1.574-1.208-4.224-3.771-4.292-7.36-.077-4.125 3.414-7.058 4.114-7.604.871-.679 1.026-1.936.347-2.807s-1.936-1.026-2.807-.347c-1.354 1.056-5.763 4.958-5.653 10.833.099 5.265 3.71 8.812 5.854 10.458 4.484 3.443 9.008 3.168 13.796 2.874 1.553-.095 3.131-.184 4.767-.164v16.446c-1.286-.017-2.498.052-3.644.122-3.074.188-5.296.324-7.449-1.329-1.026-.789-2.755-2.453-2.798-4.737-.049-2.631 2.221-4.536 2.676-4.891.871-.679 1.027-1.936.348-2.807-.678-.871-1.936-1.028-2.807-.348-1.01.787-4.298 3.699-4.216 8.119.074 3.959 2.763 6.608 4.361 7.835 3.339 2.563 6.79 2.353 10.129 2.149 1.108-.068 2.234-.131 3.4-.112v14.047c-.922-.017-1.776.031-2.548.078-2.151.129-3.329.157-4.508-.748-.473-.362-1.575-1.344-1.599-2.633-.027-1.463 1.363-2.588 1.521-2.712.872-.679 1.028-1.936.35-2.807-.679-.873-1.935-1.028-2.807-.35-.734.572-3.125 2.689-3.063 5.943.054 2.918 2.006 4.844 3.163 5.732 2.42 1.858 4.844 1.71 7.188 1.567.751-.046 1.514-.089 2.304-.071v10.035c0 1.104.896 2 2 2s2-.896 2-2v-9.258c1.554.496 3.703 1.282 4.091 2.621.292 1.009-.387 2.241-.817 2.886-1.421 2.126 1.89 4.373 3.325 2.223 1.432-2.143 1.893-4.294 1.334-6.223-1.028-3.544-5.055-4.8-7.219-5.476l-.395-.124c-.109-.035-.213-.058-.32-.089v-14.153c.36.088.724.187 1.096.306l.624.196c2.52.786 6.736 2.102 7.531 4.844.526 1.812-.449 3.815-1.359 5.177-1.42 2.127 1.889 4.372 3.326 2.223 1.982-2.966 2.63-5.91 1.875-8.514-1.394-4.806-6.895-6.523-10.182-7.548l-.601-.188c-.799-.255-1.564-.436-2.311-.582v-16.525c1.151.182 2.338.447 3.579.842l.88.277c3.73 1.164 9.975 3.112 11.227 7.43.834 2.875-.646 5.956-2.034 8.034-1.421 2.126 1.89 4.371 3.326 2.222 2.668-3.994 3.549-7.925 2.55-11.371-1.85-6.381.999 3.446 0 0zm-29.346-69.529c0-4.246 3.508-7.701 7.82-7.701s7.819 3.455 7.819 7.701-3.508 7.702-7.819 7.702-7.82-3.455-7.82-7.702z"/><path d="m80.445 70.53c-2.18 0-2.73-3.14-.68-3.881 3.072-1.11 5.089-3.686 5.139-6.562.047-2.727-1.74-5.296-4.553-6.545-1.01-.448-1.465-1.63-1.017-2.64.449-1.009 1.632-1.462 2.64-1.017 4.284 1.902 7.003 5.933 6.929 10.271-.079 4.55-3.132 8.575-7.778 10.254-.224.081-.454.12-.68.12z"/><path d="m55.667 122.469c-1.149 0-2.276-.401-3.169-1.142-1.023-.85-1.65-2.075-1.721-3.361-.138-2.513 1.847-4.761 4.423-5.01 1.095-.106 2.077.699 2.183 1.798s-.699 2.077-1.798 2.183c-.826.08-1.062.994-.368 1.421.743.458 1.572-.05 2.295.734 1.429 1.55-.099 3.377-1.845 3.377z"/></svg>