<svg height="512" viewBox="0 0 60 54" width="512" xmlns="http://www.w3.org/2000/svg"><g id="011---Mental-Health"><path id="Shape" d="m58.217 23.667c.007-.008.009-.019.016-.028 2.5590417-2.8738808 2.3094431-7.2767468-.558-9.843l-.008-.011-.01-.008c.224052-.3234248.4220102-.6641671.592-1.019.0875552-.1685897.1650248-.3422285.232-.52.3312753-.875437.5069204-1.8020581.519-2.738-.0044093-4.14030787-3.3596921-7.49559072-7.5-7.5-.18 0-.371.011-.562.022-.175.013-.339.035-.488.057-.4137348.0544061-.8219443.14474754-1.22.27l-.013-.016s-.01-.006-.014-.011c-2.287504-2.56339448-6.105076-3.07002395-8.982-1.192-.029.016-.061.018-.089.037s-.066.052-.1.076c-.009.006-.019.01-.027.016-.3386437-.23932014-.6992649-.44591558-1.077-.617-1.8313374-.84347804-3.937443-.85633281-5.7789401-.03527218-1.841497.82106063-3.2395297 2.39629093-3.8360599 4.32227218-3.2380259-3.19532911-7.6158147-4.96871422-12.1647998-4.92780169-4.5489852.04091252-8.89416956 1.89275005-12.0742002 5.14580169-6.75817381 6.8764805-6.75817381 17.9005195 0 24.777l23.375 23.644c.3734568.367099.9113261.5128594 1.4190357.3845529s.9117513-.5121031 1.0659643-1.0125529c.01.007.018.016.028.024 1.5086302 1.1609212 3.5461146 1.3630043 5.2533958.5210458s2.787266-2.581445 2.7846042-4.4850458c3.8639376-.0049584 6.9950416-3.1360624 7-7 3.8639376-.0049584 6.9950416-3.1360624 7-7v-.071c.023 0 .046-.01.069-.013s.052 0 .08-.007.033-.015.052-.019c3.348569-.5856467 5.7935429-3.4906079 5.799-6.89-.0002151-.2277766-.0118965-.455398-.035-.682-.0721577-.7364323-.2597872-1.4569164-.556-2.135-.1742197-.3808173-.3729707-.7499263-.595-1.105.106-.1.2-.209.3-.315.033-.034.072-.063.103-.096zm-29.217 27.614-22.5-22.763c-5.99190102-6.0961438-5.99190102-15.8698562 0-21.966 2.8452586-2.91139386 6.7441634-4.55267367 10.815-4.55267367s7.9697414 1.64127981 10.815 4.55267367l.872.884v43.845zm27.582-25.281c.2088134.4829465.3413918.9953809.393 1.519v.013c.0161109.1554872.0244546.3116813.025.468-.0058206 1.3324434-.5409266 2.6079548-1.4875126 3.5457257-.9465859.937771-2.2270478 1.4609201-3.5594874 1.4542743-2.0245623-.0130404-3.8380683-1.2550268-4.582-3.138 1.3458215-.2894416 2.5503877-1.034789 3.41-2.11.3451779-.4313344.2753344-1.060822-.156-1.406-.4313344-.3451779-1.060822-.2753344-1.406.156-1.3798548 1.7243359-3.896072 2.0041146-5.621.625-.4316105-.345178-1.061322-.2751105-1.4065.1565s-.2751105 1.061322.1565 1.4065c.8460443.6737171 1.8596925 1.1041373 2.932 1.245.7472606 2.648644 2.9879969 4.6061995 5.713 4.991 0 .027.007.051.007.078-.0033061 2.7600532-2.2399468 4.9966939-5 5-.113 0-.2-.021-.31-.027-.6009402-1.9564717-2.0196825-3.5568422-3.89-4.388.7793999-1.0341359 1.2006578-2.2940479 1.2-3.589 0-.5522847-.4477153-1-1-1s-1 .4477153-1 1c0 2.209139-1.790861 4-4 4-.5522847 0-1 .4477153-1 1s.4477153 1 1 1c1.0858458-.0006945 2.150863-.2980694 3.08-.86 2.4893821.5464243 4.1664311 2.8816212 3.8889286 5.4151159-.2775024 2.5334947-2.4202871 4.4502921-4.9689286 4.4448841-.2890962-.0036418-.5774024-.0310677-.862-.082-.6785467-.1159131-1.3255762-.37166-1.9-.751-.4600532-.3056896-1.0808103-.1805531-1.3864999.2795-.3056896.4600532-.1805532 1.0808104.2794999 1.3865.5707317.3799181 1.1944675.6734209 1.851.871.009.1.02.194.02.3.0027021 1.1442811-.6472672 2.1899584-1.6745458 2.6940268-1.0272787.5040684-2.2520575.3782985-3.1554542-.3240268-.7463001-.5596492-1.1815148-1.4412189-1.172-2.374v-42c-.0008122-1.70646767.8687381-3.29551077 2.3064148-4.21481391s3.2449246-1.04190279 4.7935852-.32518609c.1397246.06840387.2758987.14383364.408.226-.7936373 1.00242627-1.2959909 2.20399263-1.452 3.473-.7095573.15388894-1.3612318.50503062-1.88 1.013-.2599566.25107447-.3642126.62287789-.2726972.97250732.0915155.34962944.3645604.6226744.7141899.71418984.3496294.09151544.7214328-.01274058.9725073-.27269716.791167-.75581397 2.036833-.75581397 2.828 0 .2510745.25995658.6228779.3642126.9725073.27269716.3496295-.09151544.6226744-.3645604.7141899-.71418984.0915154-.34962943-.0127406-.72143285-.2726972-.97250732-.4876945-.47616718-1.0934837-.81375231-1.755-.978.1822575-1.12148155.7426009-2.14689591 1.588-2.906l.011-.007c.9104318-.82503996 2.0953518-1.28168332 3.324-1.281 2.7580047.008237 4.991763 2.24199533 5 5 0 .55228475.4477153 1 1 1s1-.44771525 1-1c-.0014964-.99069754-.2138695-1.96972729-.623-2.872.116-.023.23-.053.349-.068s.232-.035.344-.042c.141-.009.289-.018.43-.018 3.0359672.0038566 5.4961434 2.46403277 5.5 5.5-.0112961.7061301-.1466917 1.4047715-.4 2.064-.0449817.1120411-.096058.221538-.153.328-.132755.2722062-.2886622.5324976-.466.778-1.9863281-.9450784-4.3040353-.8875164-6.241.155-.8126796-.5377215-1.7655297-.8246198-2.74-.825-.5522847 0-1 .4477153-1 1s.4477153 1 1 1c1.6568542 0 3 1.3431458 3 3 0 .5522847.4477153 1 1 1s1-.4477153 1-1c-.0027193-.9383378-.2718218-1.8566154-.776-2.648 1.7174209-.6336494 3.6426398-.2994259 5.046.876 1.0306596.8866262 1.6533879 2.1565583 1.7232872 3.5143061.0698994 1.3577479-.4191254 2.6849151-1.3532872 3.6726939-.1375215.1457239-.2834366.2832915-.437.412-.071.059-.145.116-.219.172-.6324311.4764449-1.3689748.7958766-2.149.932-.5122454.0866225-.8728443.5510637-.8298301 1.0687978s.475313.9163001.9948301.9172022c.055639.0002659.1111914-.0044192.166-.014.6906162-.1218019 1.3588393-.3473524 1.982-.669.187.312.38.653.434.766z"/><path id="Path" d="m41 16c-3.8639376.0049584-6.9950416 3.1360624-7 7 0 .5522847.4477153 1 1 1s1-.4477153 1-1c.0033061-2.7600532 2.2399468-4.9966939 5-5 .5522847 0 1-.4477153 1-1s-.4477153-1-1-1z"/><path id="Path" d="m17.312 4c-3.5399404-.00458643-6.93091 1.42431046-9.4 3.961-2.37904513 2.4077565-3.77220597 5.6178045-3.906 9-.01054421.2654373.08495951.524162.26543822.7190866.18047872.1949245.43109913.3100282.69656178.3199134h.043c.53628999.0004732.97747602-.422183 1-.958.1140309-2.8850706 1.30248514-5.6232948 3.332-7.677 2.092847-2.15190351 4.9672177-3.36563889 7.969-3.365.5522847 0 1-.44771525 1-1s-.4477153-1-1-1z"/><path id="Path" d="m6.44 20.729c-.08723911-.3546602-.36089258-.6335496-.71383588-.727494s-.72902984.012001-.9810366.2763627-.33984423.6450848-.22912752.9931313c.10266667.3646667.22066667.725.354 1.081.14660869.3898458.51949803.648.936.648.12010172-.0003977.23921593-.0217164.352-.063.24848451-.0933472.44966102-.2816573.5592039-.5234394.10954289-.2417822.11846342-.5171966.0247961-.7655606-.114-.302-.214-.61-.302-.919z"/></g></svg>