<?xml version="1.0" encoding="UTF-8" standalone="no"?>
<!-- Created with Inkscape (http://www.inkscape.org/) -->

<svg
   version="1.1"
   id="svg2319"
   xml:space="preserve"
   viewBox="0 0 682.66669 682.66669"
   xmlns="http://www.w3.org/2000/svg"
   xmlns:svg="http://www.w3.org/2000/svg"><defs
     id="defs2323"><clipPath
       clipPathUnits="userSpaceOnUse"
       id="clipPath2333"><path
         d="M 0,512 H 512 V 0 H 0 Z"
         id="path2331" /></clipPath></defs><g
     id="g2325"
     transform="matrix(1.3333333,0,0,-1.3333333,0,682.66667)"><g
       id="g2327"><g
         id="g2329"
         clip-path="url(#clipPath2333)"><g
           id="g2335"
           transform="translate(391.3613,265.0913)"><path
             d="m 0,0 c 0,-6.695 -5.427,-12.122 -12.121,-12.122 -6.695,0 -12.122,5.427 -12.122,12.122 0,6.695 5.427,12.122 12.122,12.122 C -5.427,12.122 0,6.695 0,0"
             style="fill:#000000;fill-opacity:1;fill-rule:nonzero;stroke:none"
             id="path2337" /></g><g
           id="g2339"
           transform="translate(108.5166,273.1729)"><path
             d="m 0,0 c 0,-6.695 -5.428,-12.122 -12.122,-12.122 -6.695,0 -12.122,5.427 -12.122,12.122 0,6.695 5.427,12.122 12.122,12.122 C -5.428,12.122 0,6.695 0,0"
             style="fill:#000000;fill-opacity:1;fill-rule:nonzero;stroke:none"
             id="path2341" /></g><g
           id="g2343"
           transform="translate(168.1162,135.7905)"><path
             d="m 0,0 c 0,-6.695 -5.428,-12.122 -12.122,-12.122 -6.695,0 -12.122,5.427 -12.122,12.122 0,6.695 5.427,12.122 12.122,12.122 C -5.428,12.122 0,6.695 0,0"
             style="fill:#000000;fill-opacity:1;fill-rule:nonzero;stroke:none"
             id="path2345" /></g><g
           id="g2347"
           transform="translate(366.1074,130.7397)"><path
             d="m 0,0 c 0,-6.695 -5.427,-12.122 -12.122,-12.122 -6.694,0 -12.121,5.427 -12.121,12.122 0,6.695 5.427,12.122 12.121,12.122 C -5.427,12.122 0,6.695 0,0"
             style="fill:#000000;fill-opacity:1;fill-rule:nonzero;stroke:none"
             id="path2349" /></g><g
           id="g2351"
           transform="translate(323.6807,382.2705)"><path
             d="m 0,0 c 0,-6.695 -5.427,-12.122 -12.122,-12.122 -6.694,0 -12.122,5.427 -12.122,12.122 0,6.695 5.428,12.122 12.122,12.122 C -5.427,12.122 0,6.695 0,0"
             style="fill:#000000;fill-opacity:1;fill-rule:nonzero;stroke:none"
             id="path2353" /></g><g
           id="g2355"
           transform="translate(207.5117,400.4531)"><path
             d="m 0,0 c 0,-6.695 -5.427,-12.122 -12.121,-12.122 -6.695,0 -12.122,5.427 -12.122,12.122 0,6.695 5.427,12.122 12.122,12.122 C -5.427,12.122 0,6.695 0,0"
             style="fill:#000000;fill-opacity:1;fill-rule:nonzero;stroke:none"
             id="path2357" /></g><g
           id="g2359"
           transform="translate(414.0898,447.7373)"><path
             d="m 0,0 c 55.217,-45.579 90.41,-114.548 90.41,-191.737 0,-137.243 -111.257,-248.5 -248.5,-248.5 -137.243,0 -248.5,111.257 -248.5,248.5 0,137.242 111.257,248.5 248.5,248.5 47.513,0 91.911,-13.335 129.657,-36.465"
             style="fill:none;stroke:#000000;stroke-width:15;stroke-linecap:round;stroke-linejoin:round;stroke-miterlimit:10;stroke-dasharray:none;stroke-opacity:1"
             id="path2361" /></g><g
           id="g2363"
           transform="translate(262.3662,231.7559)"><path
             d="m 0,0 h -0.61 c -16.569,0 -30,13.432 -30,30 v 41.017 c 0,16.568 13.431,30 30,30 H 0 c 16.568,0 30,-13.432 30,-30 V 30 C 30,13.432 16.568,0 0,0 Z"
             style="fill:none;stroke:#000000;stroke-width:15;stroke-linecap:round;stroke-linejoin:round;stroke-miterlimit:10;stroke-dasharray:none;stroke-opacity:1"
             id="path2365" /></g><g
           id="g2367"
           transform="translate(262.0605,332.7725)"><path
             d="M 0,0 V 10.102"
             style="fill:none;stroke:#000000;stroke-width:15;stroke-linecap:round;stroke-linejoin:round;stroke-miterlimit:10;stroke-dasharray:none;stroke-opacity:1"
             id="path2369" /></g><g
           id="g2371"
           transform="translate(287.2432,320.6504)"><path
             d="M 0,0 7.143,7.143"
             style="fill:none;stroke:#000000;stroke-width:15;stroke-linecap:round;stroke-linejoin:round;stroke-miterlimit:10;stroke-dasharray:none;stroke-opacity:1"
             id="path2373" /></g><g
           id="g2375"
           transform="translate(236.8789,320.6504)"><path
             d="M 0,0 -7.144,7.143"
             style="fill:none;stroke:#000000;stroke-width:15;stroke-linecap:round;stroke-linejoin:round;stroke-miterlimit:10;stroke-dasharray:none;stroke-opacity:1"
             id="path2377" /></g><g
           id="g2379"
           transform="translate(287.2432,243.8779)"><path
             d="M 0,0 7.143,-7.143"
             style="fill:none;stroke:#000000;stroke-width:15;stroke-linecap:round;stroke-linejoin:round;stroke-miterlimit:10;stroke-dasharray:none;stroke-opacity:1"
             id="path2381" /></g><g
           id="g2383"
           transform="translate(236.8789,243.8779)"><path
             d="M 0,0 -7.144,-7.143"
             style="fill:none;stroke:#000000;stroke-width:15;stroke-linecap:round;stroke-linejoin:round;stroke-miterlimit:10;stroke-dasharray:none;stroke-opacity:1"
             id="path2385" /></g><g
           id="g2387"
           transform="translate(262.0605,231.7559)"><path
             d="M 0,0 V -10.102"
             style="fill:none;stroke:#000000;stroke-width:15;stroke-linecap:round;stroke-linejoin:round;stroke-miterlimit:10;stroke-dasharray:none;stroke-opacity:1"
             id="path2389" /></g><g
           id="g2391"
           transform="translate(292.3662,282.2642)"><path
             d="M 0,0 H 10.102"
             style="fill:none;stroke:#000000;stroke-width:15;stroke-linecap:round;stroke-linejoin:round;stroke-miterlimit:10;stroke-dasharray:none;stroke-opacity:1"
             id="path2393" /></g><g
           id="g2395"
           transform="translate(292.3662,304.4878)"><path
             d="M 0,0 H 10.102"
             style="fill:none;stroke:#000000;stroke-width:15;stroke-linecap:round;stroke-linejoin:round;stroke-miterlimit:10;stroke-dasharray:none;stroke-opacity:1"
             id="path2397" /></g><g
           id="g2399"
           transform="translate(231.7559,304.4878)"><path
             d="M 0,0 H -10.102"
             style="fill:none;stroke:#000000;stroke-width:15;stroke-linecap:round;stroke-linejoin:round;stroke-miterlimit:10;stroke-dasharray:none;stroke-opacity:1"
             id="path2401" /></g><g
           id="g2403"
           transform="translate(292.3662,260.0405)"><path
             d="M 0,0 H 10.102"
             style="fill:none;stroke:#000000;stroke-width:15;stroke-linecap:round;stroke-linejoin:round;stroke-miterlimit:10;stroke-dasharray:none;stroke-opacity:1"
             id="path2405" /></g><g
           id="g2407"
           transform="translate(231.7559,260.0405)"><path
             d="M 0,0 H -10.102"
             style="fill:none;stroke:#000000;stroke-width:15;stroke-linecap:round;stroke-linejoin:round;stroke-miterlimit:10;stroke-dasharray:none;stroke-opacity:1"
             id="path2409" /></g><g
           id="g2411"
           transform="translate(231.7559,282.2642)"><path
             d="M 0,0 H -10.102"
             style="fill:none;stroke:#000000;stroke-width:15;stroke-linecap:round;stroke-linejoin:round;stroke-miterlimit:10;stroke-dasharray:none;stroke-opacity:1"
             id="path2413" /></g><g
           id="g2415"
           transform="translate(205.4922,142.5566)"><path
             d="m 0,0 v 0.61 c 0,16.569 13.431,30 30,30 h 41.016 c 16.569,0 30,-13.431 30,-30 V 0 c 0,-16.568 -13.431,-30 -30,-30 H 30 C 13.431,-30 0,-16.568 0,0 Z"
             style="fill:none;stroke:#000000;stroke-width:15;stroke-linecap:round;stroke-linejoin:round;stroke-miterlimit:10;stroke-dasharray:none;stroke-opacity:1"
             id="path2417" /></g><g
           id="g2419"
           transform="translate(306.5078,142.8618)"><path
             d="M 0,0 H 10.102"
             style="fill:none;stroke:#000000;stroke-width:15;stroke-linecap:round;stroke-linejoin:round;stroke-miterlimit:10;stroke-dasharray:none;stroke-opacity:1"
             id="path2421" /></g><g
           id="g2423"
           transform="translate(294.3857,117.6797)"><path
             d="M 0,0 7.144,-7.143"
             style="fill:none;stroke:#000000;stroke-width:15;stroke-linecap:round;stroke-linejoin:round;stroke-miterlimit:10;stroke-dasharray:none;stroke-opacity:1"
             id="path2425" /></g><g
           id="g2427"
           transform="translate(294.3857,168.0439)"><path
             d="M 0,0 7.144,7.143"
             style="fill:none;stroke:#000000;stroke-width:15;stroke-linecap:round;stroke-linejoin:round;stroke-miterlimit:10;stroke-dasharray:none;stroke-opacity:1"
             id="path2429" /></g><g
           id="g2431"
           transform="translate(217.6143,117.6797)"><path
             d="M 0,0 -7.144,-7.143"
             style="fill:none;stroke:#000000;stroke-width:15;stroke-linecap:round;stroke-linejoin:round;stroke-miterlimit:10;stroke-dasharray:none;stroke-opacity:1"
             id="path2433" /></g><g
           id="g2435"
           transform="translate(217.6143,168.0439)"><path
             d="M 0,0 -7.144,7.143"
             style="fill:none;stroke:#000000;stroke-width:15;stroke-linecap:round;stroke-linejoin:round;stroke-miterlimit:10;stroke-dasharray:none;stroke-opacity:1"
             id="path2437" /></g><g
           id="g2439"
           transform="translate(205.4922,142.8618)"><path
             d="M 0,0 H -10.102"
             style="fill:none;stroke:#000000;stroke-width:15;stroke-linecap:round;stroke-linejoin:round;stroke-miterlimit:10;stroke-dasharray:none;stroke-opacity:1"
             id="path2441" /></g><g
           id="g2443"
           transform="translate(256,112.5571)"><path
             d="M 0,0 V -10.102"
             style="fill:none;stroke:#000000;stroke-width:15;stroke-linecap:round;stroke-linejoin:round;stroke-miterlimit:10;stroke-dasharray:none;stroke-opacity:1"
             id="path2445" /></g><g
           id="g2447"
           transform="translate(278.2236,112.5571)"><path
             d="M 0,0 V -10.102"
             style="fill:none;stroke:#000000;stroke-width:15;stroke-linecap:round;stroke-linejoin:round;stroke-miterlimit:10;stroke-dasharray:none;stroke-opacity:1"
             id="path2449" /></g><g
           id="g2451"
           transform="translate(278.2236,173.1665)"><path
             d="M 0,0 V 10.102"
             style="fill:none;stroke:#000000;stroke-width:15;stroke-linecap:round;stroke-linejoin:round;stroke-miterlimit:10;stroke-dasharray:none;stroke-opacity:1"
             id="path2453" /></g><g
           id="g2455"
           transform="translate(233.7764,112.5571)"><path
             d="M 0,0 V -10.102"
             style="fill:none;stroke:#000000;stroke-width:15;stroke-linecap:round;stroke-linejoin:round;stroke-miterlimit:10;stroke-dasharray:none;stroke-opacity:1"
             id="path2457" /></g><g
           id="g2459"
           transform="translate(233.7764,173.1665)"><path
             d="M 0,0 V 10.102"
             style="fill:none;stroke:#000000;stroke-width:15;stroke-linecap:round;stroke-linejoin:round;stroke-miterlimit:10;stroke-dasharray:none;stroke-opacity:1"
             id="path2461" /></g><g
           id="g2463"
           transform="translate(256,173.1665)"><path
             d="M 0,0 V 10.102"
             style="fill:none;stroke:#000000;stroke-width:15;stroke-linecap:round;stroke-linejoin:round;stroke-miterlimit:10;stroke-dasharray:none;stroke-opacity:1"
             id="path2465" /></g><g
           id="g2467"
           transform="translate(78.2725,159.8457)"><path
             d="m 0,0 c -15.502,28.592 -24.305,61.345 -24.305,96.154 0,111.58 90.453,202.033 202.033,202.033 111.579,0 202.032,-90.453 202.032,-202.033 0,-111.579 -90.453,-202.032 -202.032,-202.032 -64.231,0 -121.459,29.973 -158.465,76.695"
             style="fill:none;stroke:#000000;stroke-width:15;stroke-linecap:round;stroke-linejoin:round;stroke-miterlimit:10;stroke-dasharray:none;stroke-opacity:1"
             id="path2469" /></g><g
           id="g2471"
           transform="translate(403.7715,310.2617)"><path
             d="m 0,0 -0.288,-0.288 c -7.811,-7.81 -20.474,-7.81 -28.284,0 l -28.86,28.86 c -7.81,7.81 -7.81,20.473 0,28.284 l 0.288,0.288 c 7.811,7.81 20.474,7.81 28.285,0 L 0,28.284 C 7.81,20.474 7.81,7.811 0,0 Z"
             style="fill:none;stroke:#000000;stroke-width:15;stroke-linecap:round;stroke-linejoin:round;stroke-miterlimit:10;stroke-dasharray:none;stroke-opacity:1"
             id="path2473" /></g><g
           id="g2475"
           transform="translate(111.2598,178.9404)"><path
             d="m 0,0 -0.287,0.288 c -7.811,7.81 -7.811,20.473 0,28.284 l 28.858,28.859 c 7.811,7.81 20.475,7.81 28.284,0 l 0.289,-0.287 c 7.81,-7.811 7.81,-20.475 0,-28.285 L 28.284,0 C 20.474,-7.811 7.811,-7.811 0,0 Z"
             style="fill:none;stroke:#000000;stroke-width:15;stroke-linecap:round;stroke-linejoin:round;stroke-miterlimit:10;stroke-dasharray:none;stroke-opacity:1"
             id="path2477" /></g><g
           id="g2479"
           transform="translate(410.5547,196.4004)"><path
             d="m 0,0 c 0,-16.737 -13.567,-30.305 -30.305,-30.305 -16.737,0 -30.304,13.568 -30.304,30.305 0,16.737 13.567,30.305 30.304,30.305 C -13.567,30.305 0,16.737 0,0 Z"
             style="fill:none;stroke:#000000;stroke-width:15;stroke-linecap:round;stroke-linejoin:round;stroke-miterlimit:10;stroke-dasharray:none;stroke-opacity:1"
             id="path2481" /></g><g
           id="g2483"
           transform="translate(276.2031,401.4634)"><path
             d="m 0,0 c 0,-11.158 -9.045,-20.203 -20.203,-20.203 -11.158,0 -20.203,9.045 -20.203,20.203 0,11.158 9.045,20.203 20.203,20.203 C -9.045,20.203 0,11.158 0,0 Z"
             style="fill:none;stroke:#000000;stroke-width:15;stroke-linecap:round;stroke-linejoin:round;stroke-miterlimit:10;stroke-dasharray:none;stroke-opacity:1"
             id="path2485" /></g><g
           id="g2487"
           transform="translate(188.3193,326.7114)"><path
             d="m 0,0 c 0,-16.737 -13.568,-30.305 -30.305,-30.305 -16.737,0 -30.305,13.568 -30.305,30.305 0,16.737 13.568,30.305 30.305,30.305 C -13.568,30.305 0,16.737 0,0 Z"
             style="fill:none;stroke:#000000;stroke-width:15;stroke-linecap:round;stroke-linejoin:round;stroke-miterlimit:10;stroke-dasharray:none;stroke-opacity:1"
             id="path2489" /></g><g
           id="g2491"
           transform="translate(158.0146,357.0161)"><path
             d="M 0,0 V 10.102"
             style="fill:none;stroke:#000000;stroke-width:15;stroke-linecap:round;stroke-linejoin:round;stroke-miterlimit:10;stroke-dasharray:none;stroke-opacity:1"
             id="path2493" /></g><g
           id="g2495"
           transform="translate(136.585,348.1401)"><path
             d="M 0,0 -7.143,7.143"
             style="fill:none;stroke:#000000;stroke-width:15;stroke-linecap:round;stroke-linejoin:round;stroke-miterlimit:10;stroke-dasharray:none;stroke-opacity:1"
             id="path2497" /></g><g
           id="g2499"
           transform="translate(127.709,326.7114)"><path
             d="M 0,0 H -10.102"
             style="fill:none;stroke:#000000;stroke-width:15;stroke-linecap:round;stroke-linejoin:round;stroke-miterlimit:10;stroke-dasharray:none;stroke-opacity:1"
             id="path2501" /></g><g
           id="g2503"
           transform="translate(136.585,305.2827)"><path
             d="M 0,0 -7.143,-7.143"
             style="fill:none;stroke:#000000;stroke-width:15;stroke-linecap:round;stroke-linejoin:round;stroke-miterlimit:10;stroke-dasharray:none;stroke-opacity:1"
             id="path2505" /></g><g
           id="g2507"
           transform="translate(158.0146,296.4067)"><path
             d="M 0,0 V -10.102"
             style="fill:none;stroke:#000000;stroke-width:15;stroke-linecap:round;stroke-linejoin:round;stroke-miterlimit:10;stroke-dasharray:none;stroke-opacity:1"
             id="path2509" /></g><g
           id="g2511"
           transform="translate(179.4434,305.2827)"><path
             d="M 0,0 7.143,-7.143"
             style="fill:none;stroke:#000000;stroke-width:15;stroke-linecap:round;stroke-linejoin:round;stroke-miterlimit:10;stroke-dasharray:none;stroke-opacity:1"
             id="path2513" /></g><g
           id="g2515"
           transform="translate(188.3193,326.7114)"><path
             d="M 0,0 H 10.102"
             style="fill:none;stroke:#000000;stroke-width:15;stroke-linecap:round;stroke-linejoin:round;stroke-miterlimit:10;stroke-dasharray:none;stroke-opacity:1"
             id="path2517" /></g><g
           id="g2519"
           transform="translate(179.4434,348.1401)"><path
             d="M 0,0 7.143,7.143"
             style="fill:none;stroke:#000000;stroke-width:15;stroke-linecap:round;stroke-linejoin:round;stroke-miterlimit:10;stroke-dasharray:none;stroke-opacity:1"
             id="path2521" /></g></g></g></g></svg>
