<svg xmlns="http://www.w3.org/2000/svg" version="1.1" xmlns:xlink="http://www.w3.org/1999/xlink" xmlns:svgjs="http://svgjs.com/svgjs" width="512" height="512" x="0" y="0" viewBox="0 0 682.667 682.667" style="enable-background:new 0 0 512 512" xml:space="preserve" class=""><g><defs stroke-width="8" style="stroke-width: 8;"><clipPath id="a" clipPathUnits="userSpaceOnUse" stroke-width="8" style="stroke-width: 8;"><path d="M0 512h512V0H0Z" fill="#4e7988" data-original="#000000" class="" stroke-width="8" style="stroke-width: 8;"></path></clipPath></defs><g clip-path="url(#a)" transform="matrix(1.33333 0 0 -1.33333 0 682.667)" stroke-width="8" style="stroke-width: 8;"><path d="M0 0c-23.24-29.29-37.11-66.33-37.11-106.61h171.7v-171.71c40.359 0 77.47 13.93 106.78 37.24" style="stroke-width: 8; stroke-linecap: round; stroke-linejoin: round; stroke-miterlimit: 10; stroke-dasharray: none; stroke-opacity: 1;" transform="translate(76.36 438.96)" fill="none" stroke="#4e7988" stroke-width="8" stroke-linecap="round" stroke-linejoin="round" stroke-miterlimit="10" stroke-dasharray="none" stroke-opacity="" data-original="#000000" class=""></path><path d="M0 0c30.34 27.06 70.359 43.5 114.21 43.5 94.83 0 171.7-76.88 171.7-171.7 0-12.15-1.261-24.01-3.67-35.45" style="stroke-width: 8; stroke-linecap: round; stroke-linejoin: round; stroke-miterlimit: 10; stroke-dasharray: none; stroke-opacity: 1;" transform="translate(96.74 460.55)" fill="none" stroke="#4e7988" stroke-width="8" stroke-linecap="round" stroke-linejoin="round" stroke-miterlimit="10" stroke-dasharray="none" stroke-opacity="" data-original="#000000" class=""></path><path d="M0 0h-49.669c-8.408 0-15.225-6.816-15.225-15.224v-77.76h80.118v77.76C15.224-6.816 8.408 0 0 0Z" style="stroke-width: 8; stroke-linecap: round; stroke-linejoin: round; stroke-miterlimit: 10; stroke-dasharray: none; stroke-opacity: 1;" transform="translate(275.965 100.933)" fill="none" stroke="#4e7988" stroke-width="8" stroke-linecap="round" stroke-linejoin="round" stroke-miterlimit="10" stroke-dasharray="none" stroke-opacity="" data-original="#000000" class=""></path><path d="M0 0v-56.31h-80.109v273.73c0 8.41 6.809 15.22 15.219 15.22h49.67c8.41 0 15.22-6.81 15.22-15.22V30" style="stroke-width: 8; stroke-linecap: round; stroke-linejoin: round; stroke-miterlimit: 10; stroke-dasharray: none; stroke-opacity: 1;" transform="translate(397.84 64.26)" fill="none" stroke="#4e7988" stroke-width="8" stroke-linecap="round" stroke-linejoin="round" stroke-miterlimit="10" stroke-dasharray="none" stroke-opacity="" data-original="#000000" class=""></path><path d="M0 0h-49.669c-8.408 0-15.224-6.816-15.224-15.224v-160.217h80.118v160.217C15.225-6.816 8.408 0 0 0Z" style="stroke-width: 8; stroke-linecap: round; stroke-linejoin: round; stroke-miterlimit: 10; stroke-dasharray: none; stroke-opacity: 1;" transform="translate(489.275 183.39)" fill="none" stroke="#4e7988" stroke-width="8" stroke-linecap="round" stroke-linejoin="round" stroke-miterlimit="10" stroke-dasharray="none" stroke-opacity="" data-original="#000000" class=""></path><path d="M0 0v171.71h-171.7C-171.7 76.88-94.83 0 0 0Z" style="stroke-width: 8; stroke-linecap: round; stroke-linejoin: round; stroke-miterlimit: 10; stroke-dasharray: none; stroke-opacity: 1;" transform="translate(179.2 128.894)" fill="none" stroke="#4e7988" stroke-width="8" stroke-linecap="round" stroke-linejoin="round" stroke-miterlimit="10" stroke-dasharray="none" stroke-opacity="" data-original="#000000" class=""></path><path d="m0 0-39.128-84.842h-85.489" style="stroke-width: 8; stroke-linecap: round; stroke-linejoin: round; stroke-miterlimit: 10; stroke-dasharray: none; stroke-opacity: 1;" transform="translate(142.313 164.098)" fill="none" stroke="#4e7988" stroke-width="8" stroke-linecap="round" stroke-linejoin="round" stroke-miterlimit="10" stroke-dasharray="none" stroke-opacity="" data-original="#000000" class=""></path><path d="M0 0h62.309" style="stroke-width: 8; stroke-linecap: round; stroke-linejoin: round; stroke-miterlimit: 10; stroke-dasharray: none; stroke-opacity: 1;" transform="translate(17.695 111.545)" fill="none" stroke="#4e7988" stroke-width="8" stroke-linecap="round" stroke-linejoin="round" stroke-miterlimit="10" stroke-dasharray="none" stroke-opacity="" data-original="#000000" class=""></path><path d="m0 0 49.771 88.692h105.836" style="stroke-width: 8; stroke-linecap: round; stroke-linejoin: round; stroke-miterlimit: 10; stroke-dasharray: none; stroke-opacity: 1;" transform="translate(315.929 375.496)" fill="none" stroke="#4e7988" stroke-width="8" stroke-linecap="round" stroke-linejoin="round" stroke-miterlimit="10" stroke-dasharray="none" stroke-opacity="" data-original="#000000" class=""></path><path d="M0 0h-73.89" style="stroke-width: 8; stroke-linecap: round; stroke-linejoin: round; stroke-miterlimit: 10; stroke-dasharray: none; stroke-opacity: 1;" transform="translate(471.536 494.051)" fill="none" stroke="#4e7988" stroke-width="8" stroke-linecap="round" stroke-linejoin="round" stroke-miterlimit="10" stroke-dasharray="none" stroke-opacity="" data-original="#000000" class=""></path><path d="M0 0h-54.49" style="stroke-width: 8; stroke-linecap: round; stroke-linejoin: round; stroke-miterlimit: 10; stroke-dasharray: none; stroke-opacity: 1;" transform="translate(489.5 335.552)" fill="none" stroke="#4e7988" stroke-width="8" stroke-linecap="round" stroke-linejoin="round" stroke-miterlimit="10" stroke-dasharray="none" stroke-opacity="" data-original="#000000" class=""></path><path d="M0 0h-54.49" style="stroke-width: 8; stroke-linecap: round; stroke-linejoin: round; stroke-miterlimit: 10; stroke-dasharray: none; stroke-opacity: 1;" transform="translate(489.5 303.228)" fill="none" stroke="#4e7988" stroke-width="8" stroke-linecap="round" stroke-linejoin="round" stroke-miterlimit="10" stroke-dasharray="none" stroke-opacity="" data-original="#000000" class=""></path><path d="M0 0h-54.49" style="stroke-width: 8; stroke-linecap: round; stroke-linejoin: round; stroke-miterlimit: 10; stroke-dasharray: none; stroke-opacity: 1;" transform="translate(489.5 270.905)" fill="none" stroke="#4e7988" stroke-width="8" stroke-linecap="round" stroke-linejoin="round" stroke-miterlimit="10" stroke-dasharray="none" stroke-opacity="" data-original="#000000" class=""></path></g></g></svg>