<?xml version="1.0" encoding="UTF-8" standalone="no"?>
<!-- Created with Inkscape (http://www.inkscape.org/) -->

<svg
   version="1.1"
   id="svg6345"
   xml:space="preserve"
   viewBox="0 0 682.66669 682.66669"
   xmlns="http://www.w3.org/2000/svg"
   xmlns:svg="http://www.w3.org/2000/svg"><defs
     id="defs6349"><clipPath
       clipPathUnits="userSpaceOnUse"
       id="clipPath6359"><path
         d="M 0,512 H 512 V 0 H 0 Z"
         id="path6357" /></clipPath></defs><g
     id="g6351"
     transform="matrix(1.3333333,0,0,-1.3333333,0,682.66667)"><g
       id="g6353"><g
         id="g6355"
         clip-path="url(#clipPath6359)"><g
           id="g6361"
           transform="translate(76.3604,438.96)"><path
             d="m 0,0 c -23.24,-29.29 -37.11,-66.33 -37.11,-106.61 h 171.7 v -171.71 c 40.359,0 77.47,13.93 106.78,37.24"
             style="fill:none;stroke:#000000;stroke-width:15;stroke-linecap:round;stroke-linejoin:round;stroke-miterlimit:10;stroke-dasharray:none;stroke-opacity:1"
             id="path6363" /></g><g
           id="g6365"
           transform="translate(96.7402,460.5498)"><path
             d="m 0,0 c 30.34,27.06 70.359,43.5 114.21,43.5 94.83,0 171.7,-76.88 171.7,-171.7 0,-12.15 -1.261,-24.01 -3.67,-35.45"
             style="fill:none;stroke:#000000;stroke-width:15;stroke-linecap:round;stroke-linejoin:round;stroke-miterlimit:10;stroke-dasharray:none;stroke-opacity:1"
             id="path6367" /></g><g
           id="g6369"
           transform="translate(275.9648,100.9331)"><path
             d="m 0,0 h -49.669 c -8.408,0 -15.225,-6.816 -15.225,-15.224 v -77.76 h 80.118 v 77.76 C 15.224,-6.816 8.408,0 0,0 Z"
             style="fill:none;stroke:#000000;stroke-width:15;stroke-linecap:round;stroke-linejoin:round;stroke-miterlimit:10;stroke-dasharray:none;stroke-opacity:1"
             id="path6371" /></g><g
           id="g6373"
           transform="translate(397.8398,64.2598)"><path
             d="m 0,0 v -56.31 h -80.109 v 273.73 c 0,8.41 6.809,15.22 15.219,15.22 h 49.67 C -6.81,232.64 0,225.83 0,217.42 V 30"
             style="fill:none;stroke:#000000;stroke-width:15;stroke-linecap:round;stroke-linejoin:round;stroke-miterlimit:10;stroke-dasharray:none;stroke-opacity:1"
             id="path6375" /></g><g
           id="g6377"
           transform="translate(489.2754,183.3901)"><path
             d="m 0,0 h -49.669 c -8.408,0 -15.224,-6.816 -15.224,-15.224 V -175.441 H 15.225 V -15.224 C 15.225,-6.816 8.408,0 0,0 Z"
             style="fill:none;stroke:#000000;stroke-width:15;stroke-linecap:round;stroke-linejoin:round;stroke-miterlimit:10;stroke-dasharray:none;stroke-opacity:1"
             id="path6379" /></g><g
           id="g6381"
           transform="translate(179.2002,128.8945)"><path
             d="M 0,0 V 171.71 H -171.7 C -171.7,76.88 -94.83,0 0,0 Z"
             style="fill:none;stroke:#000000;stroke-width:15;stroke-linecap:round;stroke-linejoin:round;stroke-miterlimit:10;stroke-dasharray:none;stroke-opacity:1"
             id="path6383" /></g><g
           id="g6385"
           transform="translate(142.3125,164.0981)"><path
             d="m 0,0 -39.128,-84.842 h -85.489"
             style="fill:none;stroke:#000000;stroke-width:15;stroke-linecap:round;stroke-linejoin:round;stroke-miterlimit:10;stroke-dasharray:none;stroke-opacity:1"
             id="path6387" /></g><g
           id="g6389"
           transform="translate(17.6953,111.5454)"><path
             d="M 0,0 H 62.309"
             style="fill:none;stroke:#000000;stroke-width:15;stroke-linecap:round;stroke-linejoin:round;stroke-miterlimit:10;stroke-dasharray:none;stroke-opacity:1"
             id="path6391" /></g><g
           id="g6393"
           transform="translate(315.9287,375.4961)"><path
             d="M 0,0 49.771,88.692 H 155.607"
             style="fill:none;stroke:#000000;stroke-width:15;stroke-linecap:round;stroke-linejoin:round;stroke-miterlimit:10;stroke-dasharray:none;stroke-opacity:1"
             id="path6395" /></g><g
           id="g6397"
           transform="translate(471.5361,494.0513)"><path
             d="M 0,0 H -73.89"
             style="fill:none;stroke:#000000;stroke-width:15;stroke-linecap:round;stroke-linejoin:round;stroke-miterlimit:10;stroke-dasharray:none;stroke-opacity:1"
             id="path6399" /></g><g
           id="g6401"
           transform="translate(489.5,335.5518)"><path
             d="M 0,0 H -54.49"
             style="fill:none;stroke:#000000;stroke-width:15;stroke-linecap:round;stroke-linejoin:round;stroke-miterlimit:10;stroke-dasharray:none;stroke-opacity:1"
             id="path6403" /></g><g
           id="g6405"
           transform="translate(489.5,303.2285)"><path
             d="M 0,0 H -54.49"
             style="fill:none;stroke:#000000;stroke-width:15;stroke-linecap:round;stroke-linejoin:round;stroke-miterlimit:10;stroke-dasharray:none;stroke-opacity:1"
             id="path6407" /></g><g
           id="g6409"
           transform="translate(489.5,270.9053)"><path
             d="M 0,0 H -54.49"
             style="fill:none;stroke:#000000;stroke-width:15;stroke-linecap:round;stroke-linejoin:round;stroke-miterlimit:10;stroke-dasharray:none;stroke-opacity:1"
             id="path6411" /></g></g></g></g></svg>
