<?xml version="1.0" encoding="iso-8859-1"?>
<!-- Generator: Adobe Illustrator 19.0.0, SVG Export Plug-In . SVG Version: 6.00 Build 0)  -->
<svg version="1.1" id="Capa_1" xmlns="http://www.w3.org/2000/svg" xmlns:xlink="http://www.w3.org/1999/xlink" x="0px" y="0px"
	 viewBox="0 0 512 512" style="enable-background:new 0 0 512 512;" xml:space="preserve">
<g>
	<g>
		<path d="M455.408,71.056h-46.176c-12.177,0-22.082,9.906-22.082,22.082v26.338c0,8.15,6.631,14.782,14.781,14.782h61.392
			c7.812,0,14.168-6.354,14.168-14.167V93.139C477.49,80.962,467.584,71.056,455.408,71.056z M462.489,119.257H402.15V93.139
			c0-3.904,3.177-7.081,7.081-7.081h46.176c3.904,0,7.081,3.177,7.081,7.081V119.257z"/>
	</g>
</g>
<g>
	<g>
		<path d="M432.319,0c-17.583,0-31.889,14.306-31.889,31.889c0,17.584,14.306,31.889,31.889,31.889s31.889-14.306,31.889-31.89
			C464.208,14.306,449.902,0,432.319,0z M432.319,48.778c-9.313,0-16.888-7.576-16.888-16.889s7.575-16.888,16.888-16.888
			c9.313,0,16.888,7.575,16.888,16.888S441.632,48.778,432.319,48.778z"/>
	</g>
</g>
<g>
	<g>
		<path d="M337.829,160.687h-46.176c-12.177,0-22.082,9.906-22.082,22.082v26.338c0,8.151,6.631,14.782,14.782,14.782h61.392
			c7.813,0,14.167-6.354,14.167-14.167v-26.953C359.912,170.592,350.006,160.687,337.829,160.687z M344.911,208.888h-60.339v-26.119
			c0-3.904,3.177-7.081,7.081-7.081h46.176c3.904,0,7.081,3.177,7.081,7.081V208.888z"/>
	</g>
</g>
<g>
	<g>
		<path d="M314.741,89.629c-17.583,0-31.889,14.306-31.889,31.889c0,17.585,14.306,31.89,31.889,31.89
			c17.583,0,31.889-14.306,31.889-31.89C346.63,103.935,332.324,89.629,314.741,89.629z M314.741,138.408
			c-9.313,0-16.888-7.576-16.888-16.889s7.576-16.888,16.888-16.888c9.313,0,16.888,7.575,16.888,16.888
			S324.054,138.408,314.741,138.408z"/>
	</g>
</g>
<g>
	<g>
		<path d="M220.252,301.542h-46.176c-12.177,0-22.082,9.906-22.082,22.082v26.338c-0.001,8.151,6.63,14.782,14.782,14.782h61.392
			c7.812,0,14.167-6.355,14.167-14.168v-26.952C242.335,311.448,232.429,301.542,220.252,301.542z M227.333,349.742h-60.339v-26.119
			c0-3.904,3.177-7.081,7.081-7.081h46.176c3.904,0,7.081,3.177,7.081,7.081V349.742z"/>
	</g>
</g>
<g>
	<g>
		<path d="M197.163,230.485c-17.583,0-31.889,14.306-31.889,31.889c0.001,17.584,14.306,31.89,31.889,31.89
			s31.889-14.306,31.889-31.89C229.052,244.791,214.746,230.485,197.163,230.485z M197.163,279.264
			c-9.313,0-16.888-7.576-16.888-16.889c0-9.313,7.576-16.888,16.888-16.888c9.313,0,16.888,7.575,16.888,16.888
			C214.051,271.688,206.476,279.264,197.163,279.264z"/>
	</g>
</g>
<g>
	<g>
		<path d="M102.674,254.424H56.498c-12.177,0-22.082,9.906-22.082,22.082v26.338c0,8.152,6.631,14.782,14.782,14.782h61.392
			c7.812,0,14.167-6.354,14.167-14.167v-26.953C124.757,264.33,114.851,254.424,102.674,254.424z M109.756,302.625H49.417v-26.119
			c0-3.904,3.177-7.081,7.081-7.081h46.176c3.904,0,7.081,3.177,7.081,7.081V302.625z"/>
	</g>
</g>
<g>
	<g>
		<path d="M79.586,183.368c-17.583,0-31.889,14.306-31.889,31.889c0,17.584,14.306,31.89,31.889,31.89s31.889-14.306,31.889-31.89
			C111.475,197.674,97.169,183.368,79.586,183.368z M79.586,232.146c-9.313,0-16.888-7.576-16.888-16.889
			s7.576-16.888,16.888-16.888c9.313,0,16.888,7.575,16.888,16.888S88.898,232.146,79.586,232.146z"/>
	</g>
</g>
<g>
	<g>
		<path d="M489.709,467.416h-22.887V263.891c0-4.143-3.357-7.5-7.5-7.5s-7.5,3.357-7.5,7.5v203.525h-39.002V167.219
			c0-1.632,1.328-2.959,2.96-2.959h33.082c1.632,0,2.96,1.327,2.96,2.959v61.67c0,4.143,3.357,7.5,7.5,7.5s7.5-3.357,7.5-7.5v-61.67
			c0-9.903-8.057-17.96-17.961-17.96h-33.082c-9.904,0-17.961,8.057-17.961,17.96v300.197h-48.573V256.85
			c0-9.903-8.057-17.96-17.961-17.96h-33.082c-9.904,0-17.961,8.057-17.961,17.96v210.567h-48.573v-69.711
			c0-9.904-8.057-17.961-17.961-17.961h-33.083c-9.903,0-17.96,8.057-17.96,17.961v69.711H114.09v-62.671c0-4.143-3.357-7.5-7.5-7.5
			s-7.5,3.357-7.5,7.5v62.671H60.087V350.589c0-1.632,1.327-2.96,2.959-2.96h33.083c1.632,0,2.96,1.328,2.96,2.96v19.154
			c0,4.143,3.357,7.5,7.5,7.5s7.5-3.357,7.5-7.5v-19.154c0-9.904-8.057-17.961-17.961-17.961H63.045
			c-9.903,0-17.96,8.057-17.96,17.961v116.827H22.291C10,467.416,0,477.416,0,489.708C0,501.999,10,512,22.291,512h365.525
			c4.143,0,7.5-3.357,7.5-7.5c0-4.143-3.357-7.5-7.5-7.5H22.291c-4.02,0-7.29-3.271-7.29-7.291c0-4.02,3.271-7.29,7.29-7.29
			c57.833,0,417.283,0,467.417,0c4.02,0,7.29,3.271,7.29,7.29c0,4.021-3.271,7.291-7.29,7.291h-66.89c-4.143,0-7.5,3.357-7.5,7.5
			c0,4.143,3.357,7.5,7.5,7.5h66.89C502,512,512,501.999,512,489.708S502,467.416,489.709,467.416z M216.665,467.416h-39.002
			v-69.711c0-1.632,1.327-2.96,2.959-2.96h33.083c1.632,0,2.96,1.328,2.96,2.96V467.416z M334.243,467.416h-39.002V256.85
			c0-1.632,1.328-2.959,2.96-2.959h33.082c1.632,0,2.96,1.327,2.96,2.959V467.416z"/>
	</g>
</g>
<g>
</g>
<g>
</g>
<g>
</g>
<g>
</g>
<g>
</g>
<g>
</g>
<g>
</g>
<g>
</g>
<g>
</g>
<g>
</g>
<g>
</g>
<g>
</g>
<g>
</g>
<g>
</g>
<g>
</g>
</svg>
