<?xml version="1.0" encoding="UTF-8"?>
<svg xmlns="http://www.w3.org/2000/svg" id="Layer_1" data-name="Layer 1" viewBox="0 0 64 64" width="512" height="512"><path d="M63,32V30H44V24a1,1,0,0,0-1-1H25V15.535l2.555-1.7-1.11-1.664-3,2A1,1,0,0,0,23,15v8H21a1,1,0,0,0-1,1v6H1v2ZM22,25H42v5H22Z"/><path d="M51.828,7.828a4,4,0,0,0,0-5.656,4.093,4.093,0,0,0-5.656,0A3.971,3.971,0,0,0,45,5c0,.091.02.178.026.268L44.757,5a3,3,0,0,0-4.242,0l-5.657,5.657a1,1,0,0,0,0,1.414l7.071,7.071a1,1,0,0,0,1.414,0L49,13.485a3,3,0,0,0,0-4.242l-.269-.269c.09.006.178.026.269.026A3.971,3.971,0,0,0,51.828,7.828Zm-4.242,4.243-4.95,4.95-5.657-5.657,4.95-4.949a1,1,0,0,1,1.414,0l4.242,4.243A1,1,0,0,1,47.586,12.071Zm0-5.657a2,2,0,1,1,2.828,0A2.047,2.047,0,0,1,47.586,6.414Z"/><rect x="27.828" y="15.828" width="8" height="2" transform="translate(-2.577 27.435) rotate(-45)"/><rect x="34.071" y="17.243" width="4" height="2" transform="translate(-2.335 30.849) rotate(-45)"/><rect x="38.606" y="19.364" width="2" height="2" transform="translate(-2.799 33.97) rotate(-45)"/><path d="M21.567,10.9a1,1,0,0,0,1.058-.12l5-4a1,1,0,0,0,0-1.562l-5-4A1,1,0,0,0,21,2V3H15a1,1,0,0,0-1,1V8a1,1,0,0,0,1,1h6v1A1,1,0,0,0,21.567,10.9ZM16,7V5h6a1,1,0,0,0,1-.922L25.4,6,23,7.922A1,1,0,0,0,22,7Z"/><path d="M31,43a1,1,0,0,0,1-1V37a1,1,0,0,0-1-1H3a1,1,0,0,0-1,1v5a1,1,0,0,0,1,1H5v2.586L3.493,47.093a1,1,0,0,0-.037,1.374L11,56.883V62a1,1,0,0,0,1,1H22a1,1,0,0,0,1-1V56.883l7.544-8.416a1,1,0,0,0-.037-1.374L29,45.586V43ZM21.255,55.833A1,1,0,0,0,21,56.5V61H13V56.5a1,1,0,0,0-.255-.667l-7.168-8,.475-.475,6.3,5.4A1,1,0,0,0,13,53h8a1,1,0,0,0,.651-.241l6.3-5.4.475.475ZM16.993,44.15a4,4,0,0,0-2.8,6.85H13.37L7,45.54V43H27v2.54L20.63,51h-.838a3.995,3.995,0,0,0-2.8-6.85Zm2,4a2,2,0,1,1-2-2A2,2,0,0,1,18.993,48.15ZM4,41V38H30v3Z"/><path d="M44,45.586l-1.507,1.507a1,1,0,0,0-.037,1.374L50,56.883V62a1,1,0,0,0,1,1H61a1,1,0,0,0,1-1V54a3,3,0,0,0-3-3h-.7a4,4,0,1,0-5.6,0H52.37L46,45.54V43h4a1,1,0,0,0,1-1V37a1,1,0,0,0-1-1H40a1,1,0,0,0-1,1v5a1,1,0,0,0,1,1h4Zm11.5.564a2,2,0,1,1-2,2A2,2,0,0,1,55.5,46.15Zm-4.151,6.609A1,1,0,0,0,52,53h7a1,1,0,0,1,1,1v7H52V56.5a1,1,0,0,0-.255-.667l-7.168-8,.475-.475ZM41,41V38h8v3Z"/></svg>
