<svg id="Layer_1" enable-background="new 0 0 68 68"  viewBox="0 0 68 68"  xmlns="http://www.w3.org/2000/svg"><g id="_x38_2"><path d="m32.46 6.18c-8.16-8.02-22.83-5.16-27.25 6-3.38 7.22-.89 15.4 4.63 19.83 4.27 3.43 10.29 4.53 15.49 2.84 2.7-.88 5.13-2.5 7.05-4.59 7.09-6.9 6.37-17.92.08-24.08zm-16.19-2.34c.15.02.27.05.34.07.21.07.38.28.4.49.03.33-.2.78-.35 1.23-.69 2 .84 3.23 2.39 2.55.48-.21.85-.55 1.23-.91 1.5-1.42 3.2-2.62 5.03-3.56 1.73.5 3.33 1.31 4.76 2.4-8.79 2.4-15.18 14.14-17.11 11.94-.69-.8.93-3.76 1.46-4.62.36-.59 1.31-2.14.31-3.29-.51-.58-1.32-.77-2.42-.57-2.05.37-3.83 1.15-5.33 2.32 1.8-3.82 5.14-6.76 9.29-8.05zm-6.94 23.01c.48 1.16 1.71 1.69 2.84 1.69 4.03 0 9.97-9.15 15.87-13.89.15-.12.45-.36.64-.36.29.04.39.7.23 1.07-.14.34-.38.66-.63 1-.28.38-.58.77-.79 1.25-.32.73-.28 1.67.1 2.33.3.51.76.82 1.32.87 1.16.1 1.9-.9 2.3-1.45 1.14-1.54 2.58-2.78 4.49-3.83.27 1.57.31 2.94.17 4.3-3.48 2.06-6.29 5.06-8.34 8.93-.16.3-.32.49-.44.6.03-.13.09-.32.21-.47l.13-.17c.42-.54.99-1.28.72-2.19-.24-.84-1.15-1.37-2.11-1.23-.7.1-1.26.49-1.76.9-2.3 1.88-4.07 4.44-5.04 7.26-5.6-.55-10.31-4.14-12.46-9.1.3-.49.6-.9 1-1.16.35-.23.91-.31 1.19-.04s.26.76.19 1.54c-.06.66-.13 1.43.17 2.15zm11.47 6.66c1.5-3.95 4.63-6.63 5.45-6.74.23-.03.43.08.46.17.06.22-.42.79-.61 1.04-.69.92-.78 2.28.23 2.8.88.46 1.84-.05 2.52-1.32 1.69-3.19 3.93-5.75 6.66-7.63-1.58 6.67-7.56 11.65-14.71 11.68zm14.56-19.5c-4.97 2.62-5.51 5.36-6.31 5.31-.27-.02-.38-.7-.2-1.11.31-.71 1.05-1.35 1.44-2.29.77-1.85-.83-4.35-3.2-2.44-5.17 4.15-11.53 12.97-14.59 13.53-.67.12-1.53-.12-1.78-.74-.42-1.02.61-2.97-.7-4.23-.88-.84-2.56-.89-3.84.59-.73-2.44-.82-4.96-.33-7.37 0 0 .01 0 .01-.01 1.6-2.3 3.86-3.72 6.72-4.24.52-.1.9-.06 1.03.09.45.51-.95 1.82-1.99 4.7-.93 2.59.34 3.97 2 3.97 1.16 0 2.05-.7 2.88-1.47 4.77-4.42 8.78-9.78 14.97-11 1.87 1.87 3.19 4.17 3.89 6.71zm-12.29-10.76c-3.24 2-3.92 3.24-4.62 3.55-.18.08-.36.06-.41.01-.07-.06-.09-.34.03-.7.35-1.02.74-1.72.11-2.73 1.85-.33 3.24-.34 4.89-.13z"/><path d="m64.99 44.53c0-7.59-6.17-13.76-13.76-13.76-5.95 0-11.01 3.8-12.93 9.1-.09.21-.18.42-.26.63-1.86 4.93-.47 10.96 3.45 14.49 2.21 1.99 5.16 3.09 8.13 3.2 8.29.98 15.37-5.53 15.37-13.66zm-7.71 10.65c-.64.37-1.32.67-2.02.92-.25-.74.71-1.58 2.02-.92zm4.71-16.52c.25.45.46.92.65 1.4-.45.17-.92-.09-1.05-.41-.12-.29-.01-.76.4-.99zm-8.25-6.12c1.23.26 2.4.7 3.47 1.3-1.5 2.03-4.31.54-3.47-1.3zm-1.52-.21c-.58 2.11 1.06 3.99 3.18 3.99 1.21 0 2.35-.65 3.06-1.66 1.04.76 1.96 1.68 2.71 2.73-1.01.63-1.37 1.86-.98 2.82.42 1.05 1.71 1.69 2.9 1.29 1.27 4.95-.64 9.87-4.45 12.78-2.74-2.03-5.48.03-4.82 2.24-7.65 1.65-14.85-4.19-14.85-11.98.01-7.05 6-12.79 13.25-12.21z"/><path d="m56.39 49.68c1.25-.27 2.27-1.38 2.49-2.7.46-2.71-2.38-4.81-4.53-3.16-1.21.93-1.77 2.73-1.28 4.1.47 1.28 1.96 2.06 3.32 1.76zm.35-4.68c.5.35.77 1.06.65 1.73-.12.72-.68 1.35-1.33 1.49-.64.14-1.37-.24-1.58-.8-.46-1.29.86-3.41 2.26-2.42z"/><path d="m41.33 39.31c-.81.12-1.67 1.29-1.37 2.45.24.92 1.14 1.61 2.1 1.61h.01c.91 0 1.79-.61 2.13-1.48.28-.72.17-1.56-.28-2.13-.61-.78-1.77-.96-2.59-.45zm1.42 1.37c.12.16.15.42.06.65-.21.53-.85.57-.74.53-.29 0-.58-.22-.65-.48-.06-.22.07-.52.27-.62.14-.01.29-.06.41-.16.16-.13.51-.09.65.08z"/><path d="m47.8 52.79c.94-.45 1.5-1.5 1.34-2.5-.36-2.21-3.94-3.04-5-.88-.82 1.69 1.71 4.3 3.66 3.38zm-1.5-3.14c.59 0 1.28.37 1.36.88.06.34-.17.75-.5.91-.37.17-.98-.02-1.39-.43-.67-.68-.26-1.36.53-1.36z"/><path d="m8.08 60.3c1.73 3.68 5.12 6.01 9.32 6.05 1.03.09 2.07.05 3.2-.18 5.19-1.03 8.7-5.35 9.13-10.13 2.69-1.56 3.97-3.2 3.66-4.74-.33-1.66-2.36-2.71-5.84-3.06-5.75-7.8-17.95-5.38-20.26 4.03-6.34 3.43-5.27 7.17.79 8.03zm12.23 4.4c-4.13.82-8.06-1.04-10.18-4.21 2.96.13 6.22-.22 9.17-.81 3.31-.66 6.37-1.64 8.81-2.79-.74 3.74-3.66 6.99-7.8 7.81zm11.61-13.11c.11.57-.44 1.53-2.17 2.68-.1-1.51-.42-2.86-1.18-4.39 2.26.39 3.24 1.12 3.35 1.71zm-13.54-6.52c5.41 0 9.98 4.41 9.9 10.06-5.07 2.67-13.37 4.29-18.99 3.8-2.85-6.57 1.96-13.86 9.09-13.86zm-11.38 9.11c-.08 1.15-.01 2.93.45 4.49-1.7-.35-2.78-.95-2.92-1.62-.11-.6.5-1.64 2.47-2.87z"/><path d="m50.71 16.48c-.47-.24-1.03-.28-1.55-.12-.13-.02-.27 0-.4.05-.62.27-1.08.82-1.27 1.52s-.07 1.41.33 1.96c.4.54 1.05.87 1.77.89h.09c.69 0 1.32-.28 1.74-.77.44-.51.61-1.22.47-1.93-.16-.7-.58-1.29-1.18-1.6zm-.45 2.57c-.14.16-.37.25-.64.24-.26-.01-.49-.12-.62-.28-.07-.09-.11-.21-.12-.33.22-.12.38-.35.39-.62.01-.09.12-.17.16-.2.18-.1.42-.12.57-.04.19.1.33.31.38.56s.02.51-.12.67z"/><path d="m9.22 40.03c.41-.41.58-1.03.44-1.64-.18-.83-.86-1.33-1.32-1.35-.07-.03-.15-.05-.23-.06-1.24-.11-2.26 1.23-1.83 2.4.42 1.17 2.06 1.53 2.94.65zm-1.25-1.55h.05c.01.01.02.01.04.02.17.06.3.62-.15.51-.11-.02-.2-.08-.22-.14-.06-.13.13-.39.28-.39z"/><path d="m39.24 59.52c-.12.06-.21.15-.28.26-.44.17-.91 1.03-.62 1.99.19.63.66 1.11 1.24 1.29.17.05.33.07.51.07.44 0 .87-.16 1.24-.46.51-.42.78-1.03.72-1.64-.13-1.29-1.65-2.12-2.81-1.51zm.78 2.1c-.1-.03-.19-.14-.24-.29-.04-.15-.03-.29.04-.38.02-.02.04-.05.05-.07.03-.01.05-.02.08-.04.2-.11.59.1.61.33.01.11-.33.52-.54.45z"/></g></svg>