<svg id="Layer_2" enable-background="new 0 0 32 32" viewBox="0 0 32 32"  xmlns="http://www.w3.org/2000/svg"><g><path d="m29.125 1h-6.5625c-1.03546 0-1.875.83954-1.875 1.875s.83954 1.875 1.875 1.875h2.04376l-9.9281 9.9281c-.74066.73126-.74066 1.91254 0 2.64374.3656.36566.84369.55316 1.32184.55316s.9563-.1875 1.32184-.55316l9.92816-9.9281v2.04376c0 1.03546.83954 1.875 1.875 1.875s1.875-.83954 1.875-1.875v-6.5625c0-1.03546-.83954-1.875-1.875-1.875z"/><path d="m29.125 14.125c-1.03546 0-1.875.83954-1.875 1.875v11.25h-22.5v-22.5h11.25c1.03546 0 1.875-.83954 1.875-1.875s-.83954-1.875-1.875-1.875h-13.125c-1.03546 0-1.875.83954-1.875 1.875v26.25c0 1.03546.83954 1.875 1.875 1.875h26.25c1.03546 0 1.875-.83954 1.875-1.875v-13.125c0-1.03546-.83954-1.875-1.875-1.875z"/></g></svg>