<svg id="Слой_1" height="512" viewBox="0 0 512 512" width="512" xmlns="http://www.w3.org/2000/svg" data-name="Слой 1"><path d="m257.33 446.11a31.89 31.89 0 0 1 -9.41-1.41l-70-21.62-23.8 10.12a4.2 4.2 0 1 1 -3.28-7.72l25.22-10.72a4.18 4.18 0 0 1 2.88-.15l71.44 22.08a23.76 23.76 0 0 0 18.16-1.76l98.81-53.14a13.1 13.1 0 0 0 -12.35-23.09l-52.5 28.22a4.2 4.2 0 1 1 -4-7.39l52.5-28.22a21.49 21.49 0 0 1 20.36 37.85l-98.83 53.14a32.15 32.15 0 0 1 -15.2 3.81z"/><path d="m270.91 407.4a19.61 19.61 0 0 1 -3.3-.28l-54.16-9.23a4.2 4.2 0 1 1 1.41-8.27l54.14 9.23a11.59 11.59 0 0 0 13.1-8.5 11.46 11.46 0 0 0 -8-13.94l-70.4-20a46.82 46.82 0 0 0 -35.16 3.82l-41.16 23.41a4.2 4.2 0 0 1 -4.15-7.3l41.25-23.46a55.23 55.23 0 0 1 41.52-4.56l70.4 20a19.81 19.81 0 0 1 13.84 24.1 20.05 20.05 0 0 1 -19.33 14.98z"/><path d="m256 338.22a57.37 57.37 0 0 1 -57.3-57.3c0-30.55 51.92-90.65 54.13-93.2a4.2 4.2 0 0 1 6.34 0c2.21 2.54 54.13 62.65 54.13 93.2a57.37 57.37 0 0 1 -57.3 57.3zm0-141.28c-16.14 19.24-48.91 62.72-48.91 84a48.91 48.91 0 1 0 97.82 0c0-21.29-32.77-64.76-48.91-84z"/><path d="m476.12 511.82h-440.24a35.83 35.83 0 0 1 -32.05-51.82l219.91-439.88a35.88 35.88 0 0 1 32.26-19.94 35.87 35.87 0 0 1 32.26 19.95l219.91 439.87a35.83 35.83 0 0 1 -32.06 51.87zm-220.12-503.25a27.18 27.18 0 0 0 -24.75 15.31l-219.92 439.83a27.43 27.43 0 0 0 24.55 39.72h440.24a27.43 27.43 0 0 0 24.55-39.72l-219.92-439.83a27.18 27.18 0 0 0 -24.75-15.31zm188.89 456.43h-377.78a4.2 4.2 0 0 1 -3.75-6.07l188.89-377.73a4.2 4.2 0 0 1 7.51 0l188.89 377.75a4.2 4.2 0 0 1 -3.75 6.07zm-371-8.39h364.21l-182.1-364.15z"/></svg>